ply
format ascii 1.0
comment Saved by Easy3D (liangliang.nan@gmail.com)
element vertex 538
property float x
property float y
property float z
element edge 2757
property list uchar int vertex_indices
end_header
0 0 0
1.11838 0.101102 -0.00499725
0.321271 -0.0499813 -0.0059967
0.866634 0.0460359 0.0370026
1.06157 -0.171232 -0.0279961
1.45341 -0.0118149 -0.131996
1.67646 -0.180262 -0.0329971
1.9149 0.0774931 -0.0719948
2.12395 -0.097895 -0.0389977
2.57156 0.0194102 -0.0519981
2.72508 -0.0439894 -0.0569954
3.11669 0.0455507 -0.00699615
3.55006 0.0860378 -0.0769958
4.2486 0.0138403 -0.140995
4.41647 0.062197 -0.119995
5.24099 0.0524708 -0.0809975
4.91937 -0.00236298 -0.137997
5.70213 0.0369638 -0.125996
6.10716 -0.0412467 -0.0969963
5.52049 0.0515425 -0.102997
5.72954 -0.123846 -0.086998
6.8205 0.138066 -0.0379982
6.28879 -0.0558254 -0.190998
6.86203 0.0191359 -0.115997
7.25318 -0.0310774 -0.111996
7.70044 -0.0185874 -0.212997
8.06417 0.0920086 -0.117996
7.56045 -0.088 -0.184998
8.10559 -0.0618595 -0.147995
8.48331 0.0556778 -0.215996
8.8327 0.0545174 -0.137997
8.70636 -0.112769 -0.166996
9.16832 0.116292 -0.0699959
8.97268 0.12393 -0.187996
9.16762 -0.0933378 -0.237995
9.61534 0.0589058 -0.230995
9.62911 -0.00402973 -0.211998
10.3841 0.0912913 -0.197998
10.3136 -0.0831685 -0.175995
10.6497 0.11836 -0.256996
10.8174 0.09684 -0.225998
11.2646 0.10933 -0.233997
10.8867 -0.0780839 -0.191998
11.39 -0.00289043 -0.245998
11.684 0.142876 -0.213997
11.9073 0.0443059 -0.274998
12.0749 0.0227859 -0.220997
12.1303 -0.124141 -0.176998
12.4803 0.0493905 -0.262997
12.55 0.0142201 -0.258995
12.8854 0.00611843 -0.307995
13.249 0.081776 -0.243996
13.2486 -0.0579774 -0.175995
13.696 -0.010549 -0.276997
13.8078 0.0100427 -0.240997
14.5346 0.0216044 -0.233997
14.3532 0.10606 -0.235996
14.5622 -0.0693282 -0.202995
15.3876 0.165514 -0.314995
15.8067 0.129183 -0.237995
15.0098 0.047977 -0.346996
15.625 0.108824 -0.293995
16.2955 0.0227437 -0.254997
16.7431 0.140049 -0.345997
15.834 -0.0665643 -0.243996
16.2679 0.113676 -0.324997
16.4909 -0.0547705 -0.225998
17.0502 0.0132496 -0.288998
18.2382 0.0442426 -0.318996
18.2658 -0.04669 -0.344997
18.6153 -0.012912 -0.253998
18.9928 0.0347485 -0.243996
19.4261 0.0402973 -0.350998
18.4333 -0.103148 -0.253998
18.6437 0.105786 -0.364998
18.8807 -0.0557199 -0.299995
19.2443 0.0199377 -0.340996
19.6918 0.102304 -0.290997
19.8177 0.129837 -0.371998
19.8868 -0.114963 -0.355995
20.223 0.121504 -0.356998
20.2228 0.0865653 -0.402996
20.4739 -0.067999 -0.287998
21.0331 2.1098e-05 -0.274998
20.9075 0.0423649 -0.336998
21.4526 0.0685054 -0.358997
21.648 -0.00900887 -0.282997
21.844 0.0881687 -0.370998
22.2909 -0.00415632 -0.329998
23.0041 0.140218 -0.317997
22.8502 0.0638638 -0.412998
23.4231 0.0340101 -0.318996
24.611 0.0300647 -0.352997
23.6465 -0.0296217 -0.327995
24.2753 -0.0317104 -0.356998
25.0302 0.0286722 -0.334995
24.7788 0.0784215 -0.357998
25.8553 0.193638 -0.326996
25.3657 0.055509 -0.332996
25.7711 0.0821136 -0.368996
26.3303 0.150134 -0.507996
26.3858 0.0032069 -0.353996
26.6376 0.0932112 -0.307995
27.0426 0.0150007 -0.332996
26.9588 0.00829153 -0.328995
27.4621 0.083485 -0.380997
27.4623 0.118423 -0.410995
27.6993 -0.0430822 -0.329998
27.8677 0.179966 -0.378998
28.3003 -0.0241151 -0.379997
28.2588 0.0948146 -0.343998
28.4678 -0.0805734 -0.342999
28.6922 0.135302 -0.360996
29.1251 0.0360355 -0.357998
28.9434 0.0506142 -0.551998
29.1946 -0.0690117 -0.306995
29.5308 0.167455 -0.349998
29.5866 0.125344 -0.397995
30.0058 0.123951 -0.422997
29.8376 -0.0292208 -0.248997
30.0619 0.186654 -0.475998
30.285 0.0182076 -0.410995
30.4107 0.0108022 -0.425995
31.1236 0.050361 -0.298996
30.7185 0.0936331 -0.372997
30.9555 -0.0678724 -0.258995
31.8784 0.0758053 -0.393997
31.3052 0.0357823 -0.427998
32.2561 0.193343 -0.434998
31.9759 -0.0153594 -0.413998
32.6328 -0.00356557 -0.395996
33.0107 0.183848 -0.440998
33.4152 -0.0690539 -0.398998
33.849 0.111187 -0.426998
34.6316 0.0806367 -0.317997
34.0581 -0.0642014 -0.426998
34.5059 0.122981 -0.331997
35.0512 0.184059 -0.367996
35.0509 0.114183 -0.371998
35.6238 0.0843289 -0.411995
36.1967 0.0544752 -0.467999
37.0357 0.191444 -0.400997
36.8116 0.0454452 -0.414997
38.2653 0.103507 -0.342999
38.6845 0.102115 -0.370998
37.4125 0.029474 -0.375996
37.9858 0.104435 -0.295998
38.6703 0.0252966 -0.368996
39.104 0.170599 -0.391998
39.5089 0.05745 -0.484997
39.2017 0.114373 -0.429996
39.4387 -0.047133 -0.314995
39.8303 0.0424071 -0.292995
39.8724 0.0981692 -0.367996
40.7111 0.130323 -0.411995
40.5711 0.0609101 -0.380997
41.1301 0.0590534 -0.350998
41.0746 0.171042 -0.387997
41.5911 0.008608 -0.372997
41.2696 -0.0112875 -0.435997
41.7731 0.0988444 -0.388996
42.458 0.124521 -0.477997
42.402 0.0967557 -0.354996
43.2404 0.0590323 -0.375996
43.1006 0.0594965 -0.294998
43.7015 0.0435253 -0.344997
44.0933 0.168004 -0.353996
44.5264 0.138614 -0.345997
44.2469 0.139542 -0.315998
45.2949 0.101123 -0.382996
45.5888 0.211951 -0.306995
44.9871 -0.0166464 -0.365997
45.4767 0.121483 -0.353996
46.0638 0.168447 -0.286995
46.2869 -2.84217e-14 -0.254997
46.7065 0.103423 -0.350998
46.7763 0.103191 -0.649998
47.0279 0.0883797 -0.315998
47.7968 0.190642 -0.306995
47.2936 0.150387 -0.359997
47.5026 -0.0250012 -0.342999
47.8946 0.169354 -0.403996
48.1736 0.0286722 -0.227997
48.1318 0.0427868 -0.271996
48.7468 0.0686952 -0.302998
49.0125 0.130702 -0.269997
49.4879 0.192013 -0.351997
49.4174 0.0175536 -0.356998
49.9347 0.0647499 -0.317997
49.907 0.155683 -0.362995
50.1441 -0.00582306 -0.263996
50.8015 0.180663 -0.274998
50.6752 0.0133762 -0.289997
51.2065 0.0675138 -0.288998
51.207 0.242206 -0.270996
51.5977 0.0522388 -0.201996
52.0172 0.120723 -0.251995
51.8212 0.0235454 -0.309998
52.3945 0.0985068 -0.224998
52.3804 0.0566272 -0.323997
52.9395 0.0897089 -0.283997
53.1776 0.242649 -0.263996
53.5827 0.199377 -0.285995
53.5265 0.101735 -0.320995
53.9598 0.107284 -0.255997
54.3372 0.120006 -0.265995
54.7144 0.0977895 -0.233997
54.1136 0.148699 -0.277996
54.3227 -0.026689 -0.293995
54.8401 0.0554457 -0.296997
56.1677 0.0510362 -0.186996
56.3916 0.127158 -0.205997
56.7407 0.0561208 -0.230995
57.37 0.158847 -0.233997
57.691 0.0389892 -0.126995
57.3001 0.159079 -0.158997
57.4951 -0.0232501 -0.207996
58.0405 0.0727672 -0.215996
59.0609 0.12528 -0.138996
58.7811 0.0563318 -0.166996
59.4102 0.0891815 -0.159996
59.9274 0.136378 -0.350998
60.2064 -0.004304 -0.137997
60.5563 0.134289 -0.247997
61.4092 0.243261 -0.172997
61.8143 0.199988 -0.130997
62.2336 0.198596 -0.0919952
61.1154 0.167371 -0.168995
61.7444 0.20022 -0.0509949
61.9535 0.0248324 -0.0849953
62.4566 0.0301491 -0.157997
62.9741 0.147222 -0.109997
63.6309 0.124078 -0.111996
64.5257 0.253873 -0.0619965
64.9169 0.203659 -0.0889969
64.1622 0.213154 -0.060997
64.763 0.162244 -0.113998
65.336 0.167329 -0.0909958
65.5731 0.00582306 -0.0079956
66.16 -0.0170894 -0.0649948
64.3993 0.051648 0.00500489
66.6636 0.127981 -0.0209961
67.0273 0.238577 -0.0399971
67.4322 0.125428 -0.00099945
68.5925 0.212415 -0.0629959
67.2367 0.168004 -0.079998
67.4737 0.0064982 0.00200653
68.0611 0.123339 -0.0579948
68.8997 0.155493 0.0500031
68.7461 0.183954 0.0390015
69.2494 0.224209 0.0180054
70.0041 0.249653 -0.0169983
69.5425 0.125407 0.105003
70.2272 0.0812064 0.0699997
70.7449 0.268156 0.0970001
70.8422 0.107115 0.0430069
71.6253 0.251257 0.0559998
71.5409 0.104794 0.104004
72.4497 0.206592 0.0710068
72.1977 0.0816495 0.155006
72.8549 0.198258 0.109001
72.6591 0.136019 0.0820007
73.6095 0.153826 0.136002
73.9585 0.0478504 0.260002
73.3715 0.0358245 0.161003
73.8051 0.146188 0.121002
74.2945 0.214441 0.113007
74.5175 0.0459937 0.146004
75.0907 0.0860167 0.127007
75.6919 0.174861 0.198006
76.349 0.256531 0.182007
76.7261 0.164438 0.253006
77.8722 0.209546 0.239006
76.5303 0.137137 0.296005
77.229 0.0998782 0.249001
77.9277 0.0975574 0.275002
78.2637 0.264148 0.252007
78.5007 0.102642 0.300003
78.5985 0.0813541 0.309006
78.8925 0.227121 0.245003
79.1295 0.0656149 0.310005
79.6469 0.14775 0.319
80.0801 0.153298 0.242004
79.605 0.161864 0.332001
79.8702 0.0491796 0.513
80.891 0.241446 0.346001
80.3456 0.145429 0.368004
81.0165 0.164164 0.357002
81.6874 0.182899 0.345001
82.0368 0.181739 0.426003
81.7293 0.168784 0.354004
82.4421 0.173405 0.414001
82.8613 0.172012 0.397003
82.4279 0.131525 0.347
83.1268 0.164143 0.451004
83.7138 0.176169 0.436005
83.9654 0.161358 0.415001
84.2172 0.251362 0.445
84.3426 0.139142 0.427002
84.7205 0.291617 0.460007
84.4543 0.0898566 0.479004
84.7762 0.249506 0.465004
85.0133 0.088 0.515007
85.5025 0.121314 0.550003
85.5024 0.0863754 0.466003
85.8942 0.245792 0.477005
86.3552 0.160408 0.479004
86.1313 0.0842867 0.510002
87.1521 0.276553 0.562004
87.5993 0.254105 0.561005
86.8439 0.0539688 0.585007
87.2358 0.213386 0.446007
87.501 0.100701 0.643005
88.0323 0.189777 0.542
88.1161 0.161548 0.629005
88.9405 0.116883 0.673004
89.4442 0.296892 0.686005
89.6812 0.135386 0.735001
90.8974 0.2152 0.650002
91.2746 0.192984 0.738007
90.2125 0.189524 0.590004
91.568 0.164058 0.670006
92.1692 0.217964 0.706001
92.3922 0.0495171 0.755005
92.8818 0.187646 0.751007
90.9531 0.173088 0.705002
94.2238 0.294993 0.849007
94.8944 0.208913 0.832001
95.2579 0.249632 0.819
95.5789 0.129774 0.873001
95.9986 0.268135 0.842003
93.5385 0.129563 0.777
94.6707 0.202668 0.843002
95.3135 0.172582 0.798004
95.8449 0.261658 0.868004
96.376 0.280857 0.895004
96.697 0.160999 0.904007
96.739 0.181823 0.923004
97.1026 0.257481 0.895004
97.4238 0.172561 0.957001
97.9832 0.275519 0.943001
98.2206 0.218829 0.855003
98.2062 0.107073 0.959
98.5698 0.18273 0.914001
98.8912 0.167687 0.986
99.2267 0.194524 1.037
98.626 0.280372 0.992004
98.8771 0.125808 1.05701
99.4223 0.186887 1.04501
100.037 0.177857 1.048
100.596 0.245877 1.03201
100.764 0.294233 1.051
101.183 0.257903 1.096
101.603 0.186633 1.111
102.469 0.337484 1.138
101.351 0.201444 1.148
102.022 0.150302 1.118
102.847 0.245391 1.153
103.196 0.209293 1.2
103.587 0.298833 1.19601
104.006 0.122748 1.147
104.622 0.358287 1.355
104.621 0.218534 1.258
104.985 0.224314 1.291
105.25 0.251383 1.247
105.711 0.235876 1.19701
106.075 0.17178 1.345
106.829 0.197225 1.34901
106.69 0.16275 1.314
107.346 0.139606 1.39001
108.828 0.316365 1.479
107.947 0.158573 1.395
108.548 0.212478 1.445
109.177 0.175451 1.506
109.555 0.25805 1.482
110.659 0.317272 1.555
109.331 0.14699 1.472
110.687 0.22634 1.568
111.036 0.329995 1.62601
111.148 0.350586 1.514
111.498 0.314488 1.59901
111.399 0.23096 1.662
112.042 0.235813 1.604
112.629 0.143024 1.772
112.727 0.226551 1.634
113.007 0.295499 1.677
113.384 0.203406 1.636
113.761 0.251067 1.651
114.111 0.354721 1.787
113.468 0.210115 1.749
114.166 0.137918 1.723
114.6 0.248282 1.71301
114.837 0.0867763 1.71301
115.355 0.273726 1.764
115.354 0.168911 1.75201
117.186 0.309572 1.915
116.095 0.117537 1.82401
116.612 0.199672 1.806
117.339 0.246172 1.931
117.549 0.245476 1.90501
118.639 0.192942 1.956
118.989 0.401411 2.05701
118.625 0.290816 1.972
118.848 0.122369 1.939
119.422 0.267207 1.97601
119.338 0.330374 2.056
119.561 0.161928 2.024
120.889 0.192456 2.122
121.322 0.267882 2.15701
121.015 0.219989 2.15701
122.65 0.333349 2.164
121.546 0.344004 2.132
121.797 0.154501 2.132
122.44 0.159354 2.056
123.055 0.255139 2.16801
123.363 0.372908 2.255
123.754 0.322695 2.23701
123.74 0.280815 2.245
123.963 0.112368 2.246
124.117 0.22366 2.29
124.509 0.278262 2.306
124.411 0.264612 2.32
125.137 0.241235 2.366
125.208 0.345818 2.357
125.557 0.239843 2.348
125.906 0.343497 2.368
125.822 0.231973 2.384
126.563 0.145661 2.441
127.01 0.228028 2.371
127.01 0.297904 2.431
127.387 0.24075 2.481
128.114 0.252312 2.48901
127.597 0.274992 2.50201
127.834 0.113486 2.51701
128.226 0.272903 2.54301
128.478 0.362908 2.533
129.554 0.408247 2.64001
129.022 0.179418 2.576
129.554 0.338371 2.631
129.917 0.274275 2.653
129.791 0.141927 2.565
130.63 0.243957 2.729
130.434 0.251594 2.687
131.384 0.199524 2.77901
131.091 0.263388 2.661
131.664 0.373288 2.756
132.139 0.224968 2.743
131.873 0.1979 2.675
132.559 0.293453 2.845
133.216 0.375123 2.789
133.523 0.283262 2.912
134.739 0.223323 2.92001
134.124 0.197414 2.86301
134.641 0.349426 2.959
134.892 0.159923 2.958
135.172 0.403563 2.90401
135.592 0.367233 2.952
135.549 0.206655 2.985
136.178 0.239505 3.07401
136.374 0.266806 3.01601
136.626 0.321872 3.039
136.877 0.167308 3.104
137.03 0.208723 3.149
137.408 0.32626 3.07
137.324 0.284613 3.134
137.716 0.374153 3.208
137.883 0.352633 3.15601
138.107 0.184186 3.139
138.415 0.40677 3.209
138.778 0.377613 3.201
139.127 0.376453 3.242
139.477 0.305415 3.217
139.826 0.40907 3.318
139.518 0.256362 3.248
140.245 0.372739 3.291
140.608 0.273705 3.37801
140.986 0.391242 3.305
141.573 0.263515 3.359
141.531 0.382444 3.429
141.782 0.22788 3.494
142.481 0.190621 3.46001
142.943 0.349806 3.54601
143.376 0.320416 3.54401
143.166 0.181359 3.33701
143.697 0.37525 3.54
145.053 0.314846 3.755
145.29 0.293094 3.717
145.472 0.313454 3.731
146.576 0.372676 3.772
145.849 0.326176 3.674
146.072 0.122791 3.542
146.492 0.331028 3.732
146.744 0.246341 3.896
146.94 0.378457 3.734
148.351 0.31088 3.845
147.96 0.326155 3.894
148.729 0.393479 3.899
148.854 0.281258 4.02901
149.497 0.390926 3.939
149.832 0.278009 4.01801
150.224 0.262734 3.86401
150.503 0.331682 4.065
150.419 0.255097 4.049
151.104 0.280773 4.05701
151.65 0.411728 4.146
151.887 0.285161 4.162
152.446 0.353181 4.216
152.837 0.407783 4.22
153.215 0.420505 4.25401
153.298 0.252523 4.343
153.829 0.236783 4.396
153.746 0.334889 4.291
153.983 0.138445 4.242
154.556 0.35316 4.30801
154.892 0.379997 4.333
155.185 0.316133 4.444
156.051 0.257354 4.50201
156.457 0.318897 4.484
156.583 0.381368 4.505
157.169 0.288579 4.52901
157.547 0.301301 4.566
156.862 0.240687 4.58801
157.505 0.315416 4.58601
157.756 0.160852 4.58701
158.693 0.311471 4.647
158.371 0.291575 4.69
159.056 0.317251 4.716
159.168 0.267966 4.732
159.769 0.321872 4.79301
159.741 0.377866 4.812
159.978 0.251299 4.894
160.496 0.333434 4.866
160.776 0.472259 4.93401
161.181 0.428987 4.944
161.628 0.3716 4.938
161.111 0.359342 4.925
161.362 0.239716 5.006
161.893 0.293854 4.96201
2 0 1
2 0 2
2 0 3
2 0 4
2 0 5
2 0 6
2 0 7
2 0 8
2 0 9
2 1 10
2 1 2
2 1 3
2 1 4
2 1 5
2 1 6
2 1 7
2 1 8
2 1 9
2 10 11
2 10 12
2 10 5
2 10 6
2 10 7
2 10 8
2 10 9
2 10 13
2 11 12
2 11 14
2 11 5
2 11 6
2 11 7
2 11 8
2 11 9
2 11 13
2 12 14
2 12 15
2 12 7
2 12 8
2 12 9
2 12 13
2 12 16
2 14 15
2 14 17
2 14 18
2 14 13
2 14 16
2 14 19
2 14 20
2 15 17
2 15 18
2 15 21
2 15 13
2 15 16
2 15 19
2 15 20
2 15 22
2 17 18
2 17 21
2 17 13
2 17 16
2 17 19
2 17 20
2 17 22
2 17 23
2 18 21
2 18 24
2 18 16
2 18 19
2 18 20
2 18 22
2 18 23
2 21 24
2 21 25
2 21 26
2 21 19
2 21 20
2 21 22
2 21 27
2 24 25
2 24 26
2 24 22
2 24 23
2 24 27
2 24 28
2 24 29
2 25 26
2 25 30
2 25 23
2 25 27
2 25 28
2 25 29
2 25 31
2 26 30
2 26 32
2 26 23
2 26 27
2 26 29
2 26 31
2 26 33
2 26 34
2 30 32
2 30 35
2 30 28
2 30 29
2 30 33
2 30 34
2 30 36
2 32 35
2 32 37
2 32 28
2 32 29
2 32 31
2 32 33
2 32 36
2 35 37
2 35 31
2 35 33
2 35 34
2 35 38
2 35 39
2 37 40
2 37 41
2 37 36
2 37 39
2 37 42
2 37 43
2 40 41
2 40 44
2 40 36
2 40 38
2 40 39
2 40 42
2 40 43
2 40 45
2 41 44
2 41 46
2 41 38
2 41 39
2 41 42
2 41 43
2 41 45
2 41 47
2 44 46
2 44 48
2 44 39
2 44 42
2 44 43
2 44 45
2 44 47
2 44 49
2 46 48
2 46 50
2 46 51
2 46 42
2 46 43
2 46 45
2 46 49
2 46 52
2 48 50
2 48 51
2 48 53
2 48 43
2 48 45
2 48 47
2 48 49
2 48 52
2 50 51
2 50 53
2 50 45
2 50 47
2 50 49
2 50 52
2 50 54
2 51 53
2 51 55
2 51 47
2 51 49
2 51 54
2 51 56
2 53 55
2 53 49
2 53 52
2 53 54
2 53 56
2 53 57
2 55 58
2 55 59
2 55 54
2 55 56
2 55 60
2 55 61
2 58 59
2 58 62
2 58 63
2 58 56
2 58 57
2 58 60
2 58 61
2 58 64
2 58 65
2 58 66
2 59 62
2 59 63
2 59 57
2 59 60
2 59 61
2 59 65
2 59 66
2 59 67
2 62 63
2 62 60
2 62 61
2 62 64
2 62 65
2 62 66
2 62 67
2 63 61
2 63 64
2 63 65
2 63 66
2 63 67
2 63 68
2 69 70
2 69 71
2 69 72
2 69 67
2 69 68
2 69 73
2 69 74
2 69 75
2 69 76
2 70 71
2 70 72
2 70 68
2 70 73
2 70 75
2 70 76
2 70 77
2 71 72
2 71 78
2 71 68
2 71 73
2 71 74
2 71 75
2 71 76
2 71 77
2 71 79
2 72 78
2 72 80
2 72 68
2 72 73
2 72 74
2 72 75
2 72 76
2 72 77
2 72 79
2 72 81
2 72 82
2 78 80
2 78 83
2 78 75
2 78 76
2 78 77
2 78 79
2 78 81
2 78 82
2 78 84
2 80 83
2 80 85
2 80 76
2 80 77
2 80 79
2 80 82
2 80 84
2 80 86
2 83 85
2 83 87
2 83 79
2 83 81
2 83 82
2 83 86
2 83 88
2 85 87
2 85 89
2 85 81
2 85 82
2 85 84
2 85 86
2 85 88
2 85 90
2 87 89
2 87 91
2 87 82
2 87 84
2 87 86
2 87 88
2 87 90
2 89 91
2 89 92
2 89 86
2 89 88
2 89 90
2 89 93
2 89 94
2 91 92
2 91 95
2 91 88
2 91 90
2 91 93
2 91 94
2 91 96
2 92 95
2 92 97
2 92 90
2 92 93
2 92 94
2 92 96
2 92 98
2 92 99
2 95 97
2 95 100
2 95 93
2 95 94
2 95 96
2 95 98
2 95 99
2 95 101
2 97 100
2 97 102
2 97 103
2 97 96
2 97 98
2 97 101
2 97 104
2 100 102
2 100 103
2 100 105
2 100 96
2 100 98
2 100 99
2 100 104
2 100 106
2 102 103
2 102 105
2 102 98
2 102 99
2 102 101
2 102 104
2 102 106
2 102 107
2 103 105
2 103 108
2 103 101
2 103 104
2 103 106
2 103 107
2 105 108
2 105 109
2 105 101
2 105 104
2 105 107
2 105 110
2 105 111
2 108 109
2 108 112
2 108 104
2 108 106
2 108 107
2 108 110
2 108 111
2 109 112
2 109 113
2 109 106
2 109 107
2 109 110
2 109 111
2 109 114
2 109 115
2 112 113
2 112 116
2 112 107
2 112 110
2 112 111
2 112 114
2 112 115
2 112 117
2 113 116
2 113 118
2 113 110
2 113 111
2 113 114
2 113 117
2 113 119
2 116 118
2 116 114
2 116 120
2 116 121
2 118 122
2 118 123
2 118 115
2 118 117
2 118 120
2 118 121
2 118 124
2 118 125
2 122 123
2 122 126
2 122 117
2 122 119
2 122 120
2 122 121
2 122 124
2 122 125
2 122 127
2 123 126
2 123 128
2 123 120
2 123 121
2 123 124
2 123 127
2 123 129
2 123 130
2 126 128
2 126 131
2 126 124
2 126 125
2 126 127
2 126 129
2 126 130
2 126 132
2 128 131
2 128 124
2 128 125
2 128 127
2 128 129
2 128 130
2 128 132
2 128 133
2 131 134
2 131 129
2 131 130
2 131 132
2 131 133
2 131 135
2 131 136
2 134 137
2 134 132
2 134 133
2 134 135
2 134 136
2 134 138
2 134 139
2 134 140
2 137 141
2 137 132
2 137 133
2 137 135
2 137 136
2 137 139
2 137 140
2 137 142
2 141 143
2 141 144
2 141 139
2 141 140
2 141 142
2 141 145
2 141 146
2 141 147
2 143 144
2 143 148
2 143 149
2 143 142
2 143 145
2 143 146
2 143 147
2 143 150
2 143 151
2 144 148
2 144 149
2 144 152
2 144 145
2 144 146
2 144 150
2 144 151
2 144 153
2 148 149
2 148 152
2 148 145
2 148 146
2 148 147
2 148 150
2 148 151
2 148 153
2 149 154
2 149 147
2 149 150
2 149 153
2 149 155
2 152 154
2 152 156
2 152 147
2 152 150
2 152 151
2 152 155
2 152 157
2 154 156
2 154 158
2 154 153
2 154 155
2 154 157
2 154 159
2 154 160
2 156 158
2 156 161
2 156 153
2 156 155
2 156 160
2 156 162
2 158 161
2 158 163
2 158 155
2 158 157
2 158 159
2 158 160
2 158 162
2 158 164
2 161 163
2 161 157
2 161 159
2 161 160
2 161 164
2 161 165
2 163 166
2 163 167
2 163 160
2 163 162
2 163 164
2 163 165
2 163 168
2 166 167
2 166 169
2 166 170
2 166 164
2 166 165
2 166 168
2 166 171
2 166 172
2 167 169
2 167 170
2 167 164
2 167 165
2 167 168
2 167 171
2 167 172
2 169 170
2 169 165
2 169 168
2 169 171
2 169 172
2 169 173
2 169 174
2 169 175
2 170 176
2 170 168
2 170 171
2 170 172
2 170 173
2 170 174
2 170 175
2 176 177
2 176 178
2 176 172
2 176 173
2 176 174
2 176 179
2 176 180
2 176 181
2 177 178
2 177 182
2 177 173
2 177 174
2 177 175
2 177 179
2 177 180
2 177 181
2 177 183
2 178 182
2 178 175
2 178 179
2 178 183
2 178 184
2 182 185
2 182 186
2 182 179
2 182 180
2 182 181
2 182 184
2 182 187
2 185 186
2 185 188
2 185 181
2 185 183
2 185 184
2 185 187
2 185 189
2 185 190
2 186 188
2 186 191
2 186 184
2 186 189
2 186 190
2 186 192
2 188 191
2 188 184
2 188 187
2 188 189
2 188 190
2 188 192
2 188 193
2 191 194
2 191 195
2 191 196
2 191 189
2 191 190
2 191 193
2 191 197
2 194 195
2 194 196
2 194 198
2 194 190
2 194 192
2 194 197
2 194 199
2 195 196
2 195 198
2 195 192
2 195 193
2 195 197
2 195 199
2 195 200
2 196 198
2 196 201
2 196 193
2 196 197
2 196 199
2 196 200
2 198 201
2 198 202
2 198 193
2 198 197
2 198 200
2 198 203
2 201 202
2 201 204
2 201 205
2 201 206
2 201 199
2 201 200
2 201 203
2 201 207
2 201 208
2 202 204
2 202 205
2 202 206
2 202 200
2 202 203
2 202 207
2 202 208
2 202 209
2 204 205
2 204 206
2 204 200
2 204 203
2 204 207
2 204 208
2 204 209
2 205 206
2 205 200
2 205 203
2 205 207
2 205 209
2 205 210
2 206 211
2 206 203
2 206 207
2 206 208
2 206 209
2 206 210
2 206 212
2 211 213
2 211 214
2 211 209
2 211 210
2 211 212
2 211 215
2 211 216
2 211 217
2 213 214
2 213 218
2 213 210
2 213 212
2 213 215
2 213 216
2 213 217
2 213 219
2 214 218
2 214 210
2 214 212
2 214 215
2 214 216
2 214 217
2 214 219
2 214 220
2 218 215
2 218 216
2 218 217
2 218 219
2 218 220
2 218 221
2 218 222
2 218 223
2 224 225
2 224 226
2 224 221
2 224 222
2 224 223
2 224 227
2 224 228
2 224 229
2 224 230
2 225 226
2 225 222
2 225 223
2 225 227
2 225 228
2 225 229
2 225 230
2 225 231
2 226 223
2 226 227
2 226 228
2 226 229
2 226 230
2 226 231
2 226 232
2 233 234
2 233 231
2 233 232
2 233 235
2 233 236
2 233 237
2 233 238
2 233 239
2 234 232
2 234 235
2 234 240
2 234 236
2 234 237
2 234 238
2 234 239
2 234 241
2 242 243
2 242 244
2 242 237
2 242 238
2 242 239
2 242 241
2 242 245
2 242 246
2 242 247
2 243 244
2 243 248
2 243 239
2 243 241
2 243 245
2 243 246
2 243 247
2 243 249
2 244 248
2 244 250
2 244 251
2 244 245
2 244 246
2 244 247
2 244 249
2 244 252
2 248 250
2 248 251
2 248 245
2 248 246
2 248 247
2 248 249
2 248 252
2 248 253
2 250 251
2 250 254
2 250 247
2 250 249
2 250 252
2 250 253
2 250 255
2 251 254
2 251 256
2 251 249
2 251 252
2 251 253
2 251 255
2 251 257
2 254 256
2 254 258
2 254 252
2 254 253
2 254 257
2 254 259
2 256 258
2 256 260
2 256 253
2 256 255
2 256 259
2 256 261
2 258 260
2 258 262
2 258 263
2 258 255
2 258 257
2 258 261
2 258 264
2 258 265
2 260 262
2 260 263
2 260 257
2 260 259
2 260 261
2 260 264
2 260 265
2 260 266
2 260 267
2 262 263
2 262 259
2 262 261
2 262 264
2 262 265
2 262 266
2 262 267
2 262 268
2 263 261
2 263 264
2 263 265
2 263 266
2 263 267
2 263 268
2 263 269
2 270 271
2 270 272
2 270 267
2 270 268
2 270 269
2 270 273
2 270 274
2 270 275
2 270 276
2 271 272
2 271 268
2 271 269
2 271 273
2 271 274
2 271 275
2 271 276
2 271 277
2 272 278
2 272 273
2 272 274
2 272 275
2 272 276
2 272 277
2 272 279
2 272 280
2 278 281
2 278 282
2 278 274
2 278 275
2 278 276
2 278 277
2 278 279
2 278 280
2 278 283
2 278 284
2 281 282
2 281 285
2 281 276
2 281 277
2 281 279
2 281 280
2 281 283
2 281 284
2 281 286
2 281 287
2 282 285
2 282 279
2 282 280
2 282 283
2 282 284
2 282 287
2 285 288
2 285 289
2 285 283
2 285 284
2 285 286
2 285 287
2 285 290
2 288 289
2 288 291
2 288 292
2 288 286
2 288 287
2 288 290
2 288 293
2 288 294
2 289 291
2 289 292
2 289 287
2 289 290
2 289 293
2 289 294
2 289 295
2 291 292
2 291 296
2 291 287
2 291 290
2 291 294
2 291 295
2 292 296
2 292 290
2 292 293
2 292 294
2 292 295
2 292 297
2 296 298
2 296 299
2 296 293
2 296 294
2 296 295
2 296 297
2 296 300
2 296 301
2 296 302
2 298 299
2 298 303
2 298 294
2 298 295
2 298 300
2 298 301
2 298 302
2 298 304
2 299 303
2 299 295
2 299 297
2 299 300
2 299 301
2 299 302
2 299 304
2 299 305
2 303 306
2 303 300
2 303 301
2 303 302
2 303 305
2 303 307
2 306 308
2 306 309
2 306 304
2 306 305
2 306 307
2 306 310
2 306 311
2 306 312
2 308 309
2 308 313
2 308 305
2 308 307
2 308 310
2 308 311
2 308 312
2 308 314
2 308 315
2 309 313
2 309 307
2 309 310
2 309 311
2 309 312
2 309 314
2 309 315
2 309 316
2 313 310
2 313 311
2 313 312
2 313 314
2 313 315
2 313 316
2 313 317
2 318 319
2 318 315
2 318 316
2 318 317
2 318 320
2 318 321
2 318 322
2 318 323
2 318 324
2 319 316
2 319 317
2 319 320
2 319 325
2 319 321
2 319 322
2 319 323
2 319 324
2 326 327
2 326 328
2 326 329
2 326 330
2 326 322
2 326 323
2 326 324
2 326 331
2 326 332
2 326 333
2 326 334
2 327 328
2 327 329
2 327 330
2 327 335
2 327 331
2 327 332
2 327 333
2 327 334
2 328 329
2 328 330
2 328 335
2 328 331
2 328 332
2 328 333
2 328 334
2 328 336
2 329 330
2 329 335
2 329 337
2 329 332
2 329 333
2 329 334
2 329 336
2 330 335
2 330 337
2 330 338
2 330 332
2 330 333
2 330 334
2 330 336
2 335 337
2 335 338
2 335 332
2 335 333
2 335 334
2 335 336
2 335 339
2 337 338
2 337 333
2 337 334
2 337 336
2 337 339
2 337 340
2 338 341
2 338 334
2 338 336
2 338 339
2 338 340
2 338 342
2 341 343
2 341 344
2 341 345
2 341 339
2 341 340
2 341 346
2 341 347
2 341 348
2 343 344
2 343 345
2 343 339
2 343 340
2 343 342
2 343 347
2 343 348
2 344 345
2 344 340
2 344 342
2 344 346
2 344 348
2 344 349
2 344 350
2 345 351
2 345 340
2 345 342
2 345 346
2 345 347
2 345 348
2 345 349
2 345 350
2 351 352
2 351 353
2 351 354
2 351 348
2 351 349
2 351 350
2 351 355
2 351 356
2 352 353
2 352 354
2 352 357
2 352 348
2 352 349
2 352 350
2 352 355
2 352 356
2 353 354
2 353 357
2 353 358
2 353 349
2 353 350
2 353 355
2 353 356
2 354 357
2 354 358
2 354 359
2 354 355
2 354 356
2 354 360
2 357 358
2 357 359
2 357 361
2 357 355
2 357 356
2 357 360
2 357 362
2 358 359
2 358 361
2 358 363
2 358 355
2 358 356
2 358 360
2 358 362
2 359 361
2 359 363
2 359 356
2 359 360
2 359 362
2 359 364
2 361 363
2 361 365
2 361 360
2 361 364
2 361 366
2 363 365
2 363 367
2 363 360
2 363 362
2 363 364
2 363 366
2 363 368
2 365 367
2 365 360
2 365 362
2 365 364
2 365 366
2 365 368
2 365 369
2 367 370
2 367 364
2 367 366
2 367 368
2 367 369
2 367 371
2 367 372
2 370 373
2 370 374
2 370 375
2 370 369
2 370 371
2 370 372
2 370 376
2 370 377
2 373 374
2 373 375
2 373 378
2 373 369
2 373 371
2 373 372
2 373 376
2 373 377
2 374 375
2 374 378
2 374 371
2 374 372
2 374 376
2 374 377
2 374 379
2 375 378
2 375 380
2 375 372
2 375 376
2 375 377
2 375 379
2 375 381
2 375 382
2 378 380
2 378 383
2 378 376
2 378 377
2 378 379
2 378 381
2 378 382
2 378 384
2 380 383
2 380 385
2 380 377
2 380 379
2 380 381
2 380 382
2 380 384
2 383 385
2 383 386
2 383 387
2 383 388
2 383 379
2 383 381
2 383 382
2 383 384
2 383 389
2 385 386
2 385 387
2 385 388
2 385 381
2 385 382
2 385 384
2 385 389
2 385 390
2 386 387
2 386 388
2 386 382
2 386 384
2 386 389
2 386 390
2 386 391
2 386 392
2 387 388
2 387 393
2 387 384
2 387 389
2 387 390
2 387 391
2 387 392
2 387 394
2 388 393
2 388 384
2 388 389
2 388 390
2 388 391
2 388 392
2 388 394
2 393 395
2 393 390
2 393 391
2 393 392
2 393 396
2 393 397
2 393 398
2 395 399
2 395 400
2 395 401
2 395 394
2 395 396
2 395 397
2 395 398
2 395 402
2 395 403
2 399 400
2 399 401
2 399 404
2 399 396
2 399 397
2 399 398
2 399 402
2 399 403
2 399 405
2 400 404
2 400 398
2 400 402
2 400 403
2 400 405
2 400 406
2 401 404
2 401 398
2 401 402
2 401 405
2 401 406
2 404 407
2 404 408
2 404 402
2 404 403
2 404 406
2 404 409
2 407 408
2 407 410
2 407 405
2 407 406
2 407 409
2 407 411
2 407 412
2 407 413
2 408 410
2 408 406
2 408 409
2 408 411
2 408 412
2 408 413
2 408 414
2 410 415
2 410 416
2 410 409
2 410 411
2 410 412
2 410 414
2 410 417
2 410 418
2 415 416
2 415 419
2 415 420
2 415 411
2 415 412
2 415 413
2 415 414
2 415 417
2 415 418
2 415 421
2 416 419
2 416 420
2 416 413
2 416 414
2 416 418
2 416 421
2 416 422
2 419 420
2 419 423
2 419 424
2 419 414
2 419 417
2 419 418
2 419 421
2 419 422
2 420 423
2 420 424
2 420 425
2 420 417
2 420 418
2 420 421
2 420 422
2 420 426
2 423 424
2 423 425
2 423 418
2 423 421
2 423 426
2 423 427
2 424 425
2 424 421
2 424 422
2 424 426
2 424 427
2 424 428
2 425 429
2 425 430
2 425 422
2 425 427
2 425 428
2 429 430
2 429 431
2 429 426
2 429 427
2 429 432
2 429 433
2 429 434
2 430 431
2 430 435
2 430 427
2 430 428
2 430 432
2 430 433
2 430 434
2 431 435
2 431 436
2 431 428
2 431 432
2 431 433
2 431 434
2 431 437
2 431 438
2 435 436
2 435 439
2 435 432
2 435 433
2 435 434
2 435 437
2 435 438
2 435 440
2 436 439
2 436 441
2 436 434
2 436 437
2 436 440
2 436 442
2 439 441
2 439 443
2 439 437
2 439 438
2 439 440
2 439 442
2 439 444
2 439 445
2 441 443
2 441 446
2 441 438
2 441 440
2 441 442
2 441 444
2 441 445
2 441 447
2 441 448
2 443 446
2 443 440
2 443 442
2 443 444
2 443 447
2 443 448
2 446 449
2 446 450
2 446 442
2 446 444
2 446 445
2 446 447
2 446 448
2 449 450
2 449 451
2 449 445
2 449 447
2 449 448
2 449 452
2 449 453
2 449 454
2 450 451
2 450 455
2 450 447
2 450 448
2 450 452
2 450 453
2 450 454
2 451 455
2 451 456
2 451 452
2 451 453
2 451 454
2 451 457
2 451 458
2 455 456
2 455 459
2 455 452
2 455 453
2 455 454
2 455 457
2 455 458
2 455 460
2 456 459
2 456 452
2 456 453
2 456 454
2 456 457
2 456 458
2 456 460
2 456 461
2 459 462
2 459 463
2 459 454
2 459 457
2 459 458
2 459 460
2 459 461
2 459 464
2 462 463
2 462 465
2 462 458
2 462 460
2 462 461
2 462 464
2 462 466
2 462 467
2 463 465
2 463 468
2 463 469
2 463 458
2 463 460
2 463 461
2 463 464
2 463 466
2 463 467
2 465 468
2 465 469
2 465 470
2 465 460
2 465 461
2 465 464
2 465 466
2 465 467
2 468 469
2 468 470
2 468 471
2 468 472
2 468 464
2 468 466
2 468 473
2 469 470
2 469 471
2 469 472
2 469 474
2 469 466
2 469 467
2 469 473
2 470 471
2 470 472
2 470 474
2 470 475
2 470 466
2 470 467
2 470 473
2 471 472
2 471 474
2 471 475
2 471 476
2 471 467
2 472 474
2 472 475
2 472 476
2 472 477
2 472 473
2 472 478
2 474 475
2 474 476
2 474 477
2 474 473
2 474 478
2 474 479
2 475 476
2 475 477
2 475 473
2 475 478
2 475 479
2 475 480
2 476 477
2 476 481
2 476 473
2 476 478
2 476 479
2 476 480
2 477 481
2 477 482
2 477 478
2 477 479
2 477 480
2 477 483
2 477 484
2 481 482
2 481 485
2 481 478
2 481 479
2 481 480
2 481 483
2 481 484
2 482 485
2 482 478
2 482 479
2 482 480
2 482 483
2 482 484
2 482 486
2 485 487
2 485 488
2 485 483
2 485 484
2 485 486
2 485 489
2 485 490
2 485 491
2 485 492
2 487 488
2 487 493
2 487 484
2 487 486
2 487 489
2 487 490
2 487 491
2 487 492
2 488 493
2 488 494
2 488 486
2 488 489
2 488 490
2 488 491
2 488 492
2 488 495
2 493 494
2 493 496
2 493 486
2 493 489
2 493 490
2 493 491
2 493 492
2 493 495
2 493 497
2 494 496
2 494 498
2 494 499
2 494 491
2 494 492
2 494 495
2 494 497
2 496 498
2 496 499
2 496 500
2 496 501
2 496 495
2 496 497
2 496 502
2 498 499
2 498 500
2 498 501
2 498 495
2 498 497
2 498 502
2 498 503
2 499 500
2 499 501
2 499 504
2 499 495
2 499 497
2 499 502
2 499 503
2 500 501
2 500 504
2 500 497
2 500 502
2 500 503
2 500 505
2 501 504
2 501 497
2 501 502
2 501 503
2 501 505
2 504 506
2 504 507
2 504 508
2 504 502
2 504 503
2 504 505
2 504 509
2 506 507
2 506 508
2 506 510
2 506 503
2 506 505
2 506 509
2 506 511
2 506 512
2 507 508
2 507 510
2 507 513
2 507 503
2 507 505
2 507 509
2 507 511
2 507 512
2 508 510
2 508 513
2 508 514
2 508 505
2 508 511
2 508 512
2 510 513
2 510 514
2 510 509
2 510 511
2 510 512
2 510 515
2 513 514
2 513 509
2 513 511
2 513 512
2 513 515
2 513 516
2 514 517
2 514 509
2 514 511
2 514 512
2 514 515
2 514 516
2 514 518
2 517 519
2 517 520
2 517 515
2 517 516
2 517 518
2 517 521
2 517 522
2 517 523
2 519 520
2 519 524
2 519 516
2 519 518
2 519 521
2 519 522
2 519 523
2 519 525
2 520 524
2 520 526
2 520 516
2 520 518
2 520 521
2 520 522
2 520 523
2 520 525
2 520 527
2 524 526
2 524 528
2 524 522
2 524 523
2 524 525
2 524 527
2 524 529
2 524 530
2 526 528
2 526 523
2 526 525
2 526 527
2 526 529
2 526 530
2 526 531
2 528 532
2 528 533
2 528 534
2 528 525
2 528 527
2 528 530
2 528 531
2 528 535
2 528 536
2 528 537
2 532 533
2 532 534
2 532 529
2 532 530
2 532 531
2 532 535
2 532 536
2 532 537
2 533 534
2 533 529
2 533 530
2 533 531
2 533 537
2 534 529
2 534 530
2 534 531
2 534 535
2 534 536
2 534 537
2 2 3
2 2 4
2 2 5
2 2 6
2 2 7
2 2 8
2 2 9
2 3 4
2 3 5
2 3 6
2 3 7
2 3 8
2 3 9
2 4 5
2 4 6
2 4 7
2 4 8
2 4 9
2 5 6
2 5 7
2 5 8
2 5 9
2 6 7
2 6 8
2 6 9
2 7 8
2 7 9
2 8 9
2 13 16
2 13 19
2 13 20
2 16 19
2 16 20
2 16 22
2 19 20
2 19 22
2 20 22
2 20 23
2 22 23
2 22 27
2 23 27
2 27 28
2 27 29
2 27 31
2 28 29
2 28 31
2 28 33
2 28 34
2 29 33
2 29 34
2 31 33
2 31 34
2 31 36
2 33 34
2 33 36
2 34 36
2 34 38
2 36 38
2 36 39
2 38 39
2 38 42
2 38 43
2 39 42
2 39 43
2 42 43
2 42 45
2 43 45
2 43 47
2 45 49
2 47 49
2 47 52
2 49 52
2 49 54
2 52 54
2 52 56
2 54 56
2 54 57
2 54 60
2 56 57
2 56 60
2 56 61
2 57 60
2 57 61
2 57 64
2 60 61
2 60 64
2 60 65
2 60 66
2 61 64
2 61 65
2 61 66
2 64 65
2 64 66
2 64 67
2 65 66
2 65 67
2 66 67
2 67 68
2 67 73
2 68 73
2 68 74
2 68 75
2 68 76
2 73 74
2 73 75
2 73 76
2 73 77
2 74 75
2 74 76
2 74 77
2 75 76
2 75 77
2 75 79
2 76 77
2 76 79
2 76 81
2 77 79
2 77 81
2 77 82
2 79 81
2 79 82
2 79 84
2 81 84
2 82 84
2 82 86
2 84 86
2 84 88
2 86 88
2 86 90
2 88 90
2 88 93
2 90 93
2 90 94
2 93 94
2 93 96
2 93 98
2 94 96
2 94 98
2 94 99
2 96 98
2 96 99
2 98 99
2 98 101
2 99 101
2 99 104
2 101 104
2 101 106
2 104 106
2 104 107
2 106 107
2 106 110
2 106 111
2 107 110
2 107 111
2 110 111
2 110 114
2 111 114
2 111 115
2 114 117
2 114 119
2 115 117
2 115 119
2 115 120
2 117 120
2 117 121
2 117 124
2 119 120
2 119 121
2 119 124
2 120 121
2 120 124
2 120 125
2 120 127
2 121 124
2 121 125
2 121 127
2 124 125
2 124 127
2 124 129
2 125 127
2 125 129
2 127 129
2 127 130
2 129 130
2 129 132
2 130 132
2 130 133
2 130 135
2 132 133
2 132 135
2 132 136
2 132 138
2 133 135
2 133 136
2 133 138
2 133 139
2 135 136
2 135 138
2 135 139
2 136 138
2 136 139
2 136 140
2 138 139
2 138 140
2 138 142
2 139 140
2 139 142
2 139 145
2 140 142
2 140 145
2 140 146
2 142 145
2 142 146
2 142 147
2 145 146
2 145 147
2 146 147
2 146 150
2 146 151
2 147 150
2 147 151
2 147 153
2 150 151
2 150 153
2 151 153
2 151 155
2 153 155
2 153 157
2 153 159
2 155 157
2 155 159
2 155 160
2 157 159
2 157 160
2 157 162
2 159 160
2 159 162
2 160 162
2 160 164
2 162 164
2 162 165
2 164 165
2 164 168
2 165 168
2 165 171
2 168 171
2 168 172
2 171 172
2 171 173
2 171 174
2 172 173
2 172 174
2 172 175
2 173 175
2 173 179
2 174 175
2 174 179
2 174 180
2 175 179
2 175 180
2 175 181
2 179 180
2 179 181
2 179 183
2 180 183
2 181 183
2 181 184
2 183 184
2 183 187
2 184 187
2 184 189
2 187 189
2 187 190
2 187 192
2 189 192
2 189 193
2 190 192
2 190 193
2 192 193
2 192 197
2 193 197
2 193 199
2 197 199
2 197 200
2 199 200
2 199 203
2 200 203
2 200 207
2 200 208
2 203 207
2 203 208
2 203 209
2 207 208
2 207 209
2 208 209
2 209 210
2 209 212
2 210 212
2 210 215
2 210 216
2 212 215
2 212 216
2 212 217
2 215 216
2 215 217
2 215 219
2 216 217
2 216 219
2 216 220
2 217 219
2 217 220
2 217 221
2 219 220
2 219 221
2 219 222
2 220 221
2 220 222
2 220 223
2 220 227
2 221 223
2 221 227
2 221 228
2 222 227
2 222 228
2 223 227
2 223 228
2 223 229
2 227 228
2 227 229
2 227 230
2 228 229
2 228 230
2 228 231
2 229 230
2 229 231
2 229 232
2 230 231
2 230 232
2 230 235
2 231 232
2 231 235
2 231 240
2 231 236
2 232 235
2 232 240
2 232 236
2 235 236
2 235 237
2 235 238
2 240 236
2 240 237
2 240 238
2 240 239
2 236 237
2 236 238
2 236 239
2 237 238
2 237 239
2 237 241
2 238 239
2 238 241
2 239 241
2 239 245
2 239 246
2 241 245
2 241 246
2 241 247
2 245 246
2 245 247
2 245 249
2 246 247
2 246 249
2 247 249
2 247 252
2 249 252
2 249 253
2 252 253
2 252 255
2 253 255
2 253 257
2 255 257
2 255 259
2 257 259
2 257 261
2 259 261
2 259 264
2 261 264
2 261 265
2 261 266
2 264 265
2 264 266
2 264 267
2 265 266
2 265 267
2 265 268
2 265 269
2 266 267
2 266 268
2 266 269
2 267 268
2 267 269
2 268 269
2 268 273
2 269 273
2 269 274
2 273 274
2 273 275
2 273 276
2 273 277
2 274 275
2 274 276
2 274 277
2 275 276
2 275 277
2 275 279
2 275 280
2 276 277
2 276 279
2 276 280
2 276 283
2 277 279
2 277 280
2 277 283
2 279 280
2 279 283
2 279 284
2 280 283
2 280 284
2 280 286
2 283 284
2 283 286
2 283 287
2 284 286
2 284 287
2 286 287
2 286 290
2 287 290
2 287 293
2 290 293
2 290 294
2 293 294
2 293 295
2 294 295
2 294 297
2 294 300
2 295 297
2 295 300
2 295 301
2 297 300
2 297 301
2 297 302
2 297 304
2 300 301
2 300 302
2 300 304
2 301 302
2 301 304
2 301 305
2 301 307
2 302 304
2 302 305
2 302 307
2 304 305
2 304 307
2 305 310
2 305 311
2 307 310
2 307 311
2 307 312
2 310 311
2 310 312
2 310 314
2 311 312
2 311 314
2 311 315
2 312 314
2 312 315
2 314 315
2 314 316
2 314 317
2 314 320
2 315 316
2 315 317
2 315 320
2 316 317
2 316 320
2 316 325
2 317 320
2 317 325
2 317 321
2 320 325
2 320 321
2 320 322
2 320 323
2 325 321
2 325 322
2 325 323
2 325 324
2 321 322
2 321 323
2 321 324
2 321 331
2 322 323
2 322 324
2 322 331
2 323 324
2 323 331
2 324 331
2 324 332
2 331 332
2 331 333
2 332 333
2 332 334
2 333 334
2 333 336
2 334 336
2 336 339
2 336 340
2 339 340
2 339 342
2 339 346
2 340 342
2 340 346
2 340 347
2 342 346
2 342 347
2 342 348
2 346 348
2 346 349
2 347 348
2 347 349
2 348 349
2 348 350
2 349 350
2 349 355
2 350 355
2 350 356
2 355 356
2 360 362
2 360 364
2 362 364
2 362 366
2 362 368
2 364 366
2 364 368
2 366 368
2 366 369
2 366 371
2 368 369
2 368 371
2 368 372
2 369 371
2 369 372
2 369 376
2 371 372
2 371 376
2 372 376
2 376 377
2 376 379
2 377 379
2 377 381
2 377 382
2 379 381
2 379 382
2 379 384
2 381 382
2 381 384
2 382 384
2 384 389
2 389 390
2 389 391
2 389 392
2 390 391
2 390 392
2 390 394
2 390 396
2 391 392
2 391 394
2 391 396
2 391 397
2 392 394
2 392 396
2 392 397
2 394 396
2 394 397
2 396 397
2 396 398
2 397 398
2 397 402
2 398 402
2 398 403
2 402 403
2 402 405
2 402 406
2 403 405
2 403 406
2 405 406
2 405 409
2 406 409
2 406 411
2 409 411
2 409 412
2 409 413
2 411 412
2 411 413
2 411 414
2 412 413
2 412 414
2 412 417
2 413 414
2 413 417
2 414 417
2 414 418
2 414 421
2 417 418
2 417 421
2 418 421
2 418 422
2 421 422
2 421 426
2 422 426
2 426 427
2 426 428
2 427 428
2 427 432
2 427 433
2 428 432
2 428 433
2 428 434
2 432 433
2 432 434
2 432 437
2 433 434
2 433 437
2 434 437
2 434 438
2 434 440
2 437 438
2 437 440
2 437 442
2 438 440
2 438 442
2 440 442
2 440 444
2 442 444
2 442 445
2 442 447
2 444 445
2 444 447
2 444 448
2 445 448
2 447 448
2 448 452
2 452 453
2 452 454
2 452 457
2 453 454
2 453 457
2 453 458
2 454 457
2 454 458
2 457 458
2 457 460
2 457 461
2 458 460
2 458 461
2 458 464
2 460 461
2 460 464
2 461 464
2 461 466
2 461 467
2 464 466
2 464 467
2 467 473
2 478 479
2 478 480
2 478 483
2 479 480
2 479 483
2 479 484
2 480 483
2 480 484
2 483 484
2 483 486
2 484 486
2 486 489
2 486 490
2 486 491
2 486 492
2 489 491
2 489 492
2 489 495
2 490 491
2 490 492
2 490 495
2 491 492
2 491 495
2 492 495
2 495 497
2 497 502
2 502 503
2 502 505
2 503 505
2 505 509
2 509 511
2 509 512
2 511 512
2 511 515
2 512 515
2 515 516
2 515 518
2 515 521
2 516 518
2 516 521
2 516 522
2 518 521
2 518 522
2 518 523
2 521 522
2 521 523
2 521 525
2 522 523
2 522 525
2 523 525
2 523 527
2 525 527
2 525 529
2 527 529
2 527 530
2 527 531
2 529 530
2 529 531
2 529 535
2 529 536
2 529 537
2 530 531
2 530 535
2 530 536
2 530 537
2 531 535
2 531 536
2 531 537
2 535 536
2 535 537
2 536 537
2 1 11
2 14 22
2 21 28
2 21 29
2 24 32
2 24 20
2 24 31
2 25 22
2 25 34
2 32 38
2 32 39
2 32 42
2 35 29
2 37 44
2 44 50
2 44 51
2 44 52
2 50 43
2 51 60
2 53 47
2 53 60
2 59 56
2 63 69
2 63 70
2 63 60
2 63 74
2 69 66
2 69 79
2 69 81
2 70 67
2 71 67
2 71 82
2 78 74
2 80 87
2 83 89
2 83 77
2 85 79
2 87 81
2 89 96
2 91 86
2 91 98
2 92 100
2 95 102
2 95 104
2 100 108
2 100 107
2 102 108
2 102 110
2 108 116
2 108 114
2 108 119
2 112 119
2 112 120
2 116 123
2 116 110
2 116 124
2 118 114
2 122 111
2 122 114
2 122 115
2 122 129
2 123 131
2 123 119
2 148 154
2 148 157
2 149 157
2 149 159
2 152 158
2 152 146
2 152 159
2 154 161
2 156 151
2 156 164
2 161 166
2 163 159
2 163 171
2 166 162
2 169 176
2 170 179
2 176 171
2 178 185
2 178 186
2 178 173
2 178 174
2 182 174
2 182 190
2 185 191
2 186 194
2 186 181
2 194 201
2 194 189
2 195 201
2 195 190
2 198 204
2 198 208
2 224 231
2 226 235
2 242 249
2 243 238
2 244 253
2 258 266
2 263 259
2 282 288
2 282 290
2 285 291
2 285 292
2 291 297
2 298 293
2 298 305
2 299 294
2 303 308
2 303 297
2 303 310
2 329 339
2 330 340
2 335 340
2 341 336
2 343 349
2 354 350
2 378 385
2 383 377
2 383 390
2 385 379
2 388 396
2 415 423
2 415 422
2 416 423
2 416 424
2 424 418
2 425 432
2 429 435
2 431 440
2 435 428
2 436 432
2 436 433
2 436 444
2 441 437
2 446 452
2 449 455
2 450 445
2 456 463
2 459 467
2 465 458
2 465 473
2 472 479
2 494 500
2 508 515
2 524 531
2 20 27
2 27 34
2 31 38
2 33 39
2 34 39
2 34 42
2 38 47
2 39 45
2 42 47
2 52 57
2 57 66
2 66 73
2 73 79
2 74 79
2 74 81
2 79 86
2 82 88
2 86 93
2 90 96
2 98 104
2 101 107
2 106 114
2 107 114
2 107 115
2 110 115
2 110 119
2 114 120
2 114 121
2 115 121
2 115 125
2 119 125
2 125 130
2 130 136
2 145 150
2 151 159
2 164 171
2 180 184
2 180 187
2 181 187
2 189 197
2 190 197
2 199 208
2 208 210
2 222 229
2 223 230
2 230 240
2 232 238
2 237 245
2 238 246
2 239 247
2 252 257
2 253 259
2 255 261
2 257 264
2 261 267
2 274 279
2 274 280
2 275 284
2 276 284
2 277 284
2 284 290
2 293 297
2 294 302
2 302 310
2 304 310
2 304 311
2 312 316
2 336 342
2 339 347
2 342 349
2 346 350
2 348 355
2 349 356
2 356 360
2 413 418
2 422 427
2 433 440
2 454 461
2 516 523
2 518 525
2 525 530
