ply
format ascii 1.0
comment Saved by Easy3D (liangliang.nan@gmail.com)
element vertex 146
property float x
property float y
property float z
element edge 85
property list uchar int vertex_indices
end_header
6.8205 0.138066 -0.0379982
6.86203 0.0191359 -0.115997
8.06417 0.0920086 -0.117996
8.10559 -0.0618595 -0.147995
8.8327 0.0545174 -0.137997
8.70636 -0.112769 -0.166996
9.16832 0.116292 -0.0699959
9.16762 -0.0933378 -0.237995
9.61534 0.0589058 -0.230995
9.62911 -0.00402973 -0.211998
10.3841 0.0912913 -0.197998
10.3136 -0.0831685 -0.175995
12.0749 0.0227859 -0.220997
12.1303 -0.124141 -0.176998
13.249 0.081776 -0.243996
13.2486 -0.0579774 -0.175995
14.5346 0.0216044 -0.233997
14.5622 -0.0693282 -0.202995
15.8067 0.129183 -0.237995
15.834 -0.0665643 -0.243996
18.6153 -0.012912 -0.253998
18.6437 0.105786 -0.364998
20.223 0.121504 -0.356998
20.2228 0.0865653 -0.402996
21.0331 2.1098e-05 -0.274998
20.9075 0.0423649 -0.336998
25.8553 0.193638 -0.326996
25.7711 0.0821136 -0.368996
26.3303 0.150134 -0.507996
26.3858 0.0032069 -0.353996
27.4621 0.083485 -0.380997
27.4623 0.118423 -0.410995
29.1251 0.0360355 -0.357998
29.1946 -0.0690117 -0.306995
29.5308 0.167455 -0.349998
29.5866 0.125344 -0.397995
29.8376 -0.0292208 -0.248997
30.0058 0.123951 -0.422997
31.1236 0.050361 -0.298996
30.9555 -0.0678724 -0.258995
35.0512 0.184059 -0.367996
35.0509 0.114183 -0.371998
38.6845 0.102115 -0.370998
38.6703 0.0252966 -0.368996
39.5089 0.05745 -0.484997
39.8303 0.0424071 -0.292995
39.4387 -0.047133 -0.314995
39.8724 0.0981692 -0.367996
41.1301 0.0590534 -0.350998
41.0746 0.171042 -0.387997
41.2696 -0.0112875 -0.435997
42.458 0.124521 -0.477997
42.402 0.0967557 -0.354996
46.7763 0.103191 -0.649998
46.7065 0.103423 -0.350998
47.7968 0.190642 -0.306995
47.5026 -0.0250012 -0.342999
47.8946 0.169354 -0.403996
48.1736 0.0286722 -0.227997
48.1318 0.0427868 -0.271996
49.4879 0.192013 -0.351997
49.4174 0.0175536 -0.356998
50.8015 0.180663 -0.274998
50.6752 0.0133762 -0.289997
51.207 0.242206 -0.270996
51.2065 0.0675138 -0.288998
52.3945 0.0985068 -0.224998
52.3804 0.0566272 -0.323997
54.3372 0.120006 -0.265995
54.3227 -0.026689 -0.293995
64.5257 0.253873 -0.0619965
64.3993 0.051648 0.00500489
70.7449 0.268156 0.0970001
70.8422 0.107115 0.0430069
71.6253 0.251257 0.0559998
71.5409 0.104794 0.104004
72.4497 0.206592 0.0710068
72.1977 0.0816495 0.155006
80.0801 0.153298 0.242004
80.3456 0.145429 0.368004
82.4421 0.173405 0.414001
82.4279 0.131525 0.347
84.3426 0.139142 0.427002
84.2172 0.251362 0.445
85.5025 0.121314 0.550003
85.5024 0.0863754 0.466003
90.8974 0.2152 0.650002
90.9531 0.173088 0.705002
98.2206 0.218829 0.855003
98.2062 0.107073 0.959
98.5698 0.18273 0.914001
98.626 0.280372 0.992004
98.8912 0.167687 0.986
98.8771 0.125808 1.05701
104.622 0.358287 1.355
104.621 0.218534 1.258
115.355 0.273726 1.764
115.354 0.168911 1.75201
118.639 0.192942 1.956
118.989 0.401411 2.05701
118.848 0.122369 1.939
119.422 0.267207 1.97601
119.338 0.330374 2.056
122.65 0.333349 2.164
122.44 0.159354 2.056
123.754 0.322695 2.23701
123.74 0.280815 2.245
125.208 0.345818 2.357
125.137 0.241235 2.366
125.906 0.343497 2.368
125.822 0.231973 2.384
127.01 0.297904 2.431
127.01 0.228028 2.371
129.554 0.408247 2.64001
129.554 0.338371 2.631
131.384 0.199524 2.77901
131.664 0.373288 2.756
138.415 0.40677 3.209
138.107 0.184186 3.139
139.477 0.305415 3.217
139.518 0.256362 3.248
153.215 0.420505 4.25401
153.298 0.252523 4.343
159.769 0.321872 4.79301
159.741 0.377866 4.812
161.181 0.428987 4.944
161.111 0.359342 4.925
161.362 0.239716 5.006
8.48331 0.0556778 -0.215996
11.9073 0.0443059 -0.274998
20.4739 -0.067999 -0.287998
28.9434 0.0506142 -0.551998
46.0638 0.168447 -0.286995
46.2869 -2.84217e-14 -0.254997
49.907 0.155683 -0.362995
50.1441 -0.00582306 -0.263996
59.9274 0.136378 -0.350998
60.2064 -0.004304 -0.137997
60.5563 0.134289 -0.247997
64.1622 0.213154 -0.060997
85.8942 0.245792 0.477005
86.1313 0.0842867 0.510002
131.873 0.1979 2.675
137.883 0.352633 3.15601
145.849 0.326176 3.674
146.072 0.122791 3.542
2 0 1
2 2 3
2 4 5
2 6 7
2 8 9
2 10 11
2 12 13
2 14 15
2 16 17
2 18 19
2 20 21
2 22 23
2 24 25
2 26 27
2 28 29
2 30 31
2 32 33
2 34 33
2 34 35
2 34 36
2 37 36
2 38 39
2 40 41
2 42 43
2 44 45
2 44 46
2 45 47
2 48 49
2 48 50
2 51 52
2 53 54
2 55 56
2 55 57
2 58 59
2 60 61
2 62 63
2 64 65
2 66 67
2 68 69
2 70 71
2 72 73
2 74 75
2 76 77
2 78 79
2 80 81
2 82 83
2 84 85
2 86 87
2 88 89
2 90 91
2 92 93
2 94 95
2 96 97
2 98 99
2 99 100
2 101 102
2 103 104
2 105 106
2 107 108
2 109 110
2 111 112
2 113 114
2 115 116
2 117 118
2 119 120
2 121 122
2 123 124
2 125 126
2 125 127
2 128 5
2 129 13
2 23 130
2 131 33
2 35 36
2 132 133
2 56 57
2 134 135
2 136 137
2 137 138
2 139 71
2 140 141
2 91 93
2 116 142
2 143 118
2 144 145
