ply
format ascii 1.0
comment Converted from TXT point cloud
element vertex 52
property float x
property float y
property float z
end_header
6.820504 0.138066 -0.037998
25.855322 0.193638 -0.326996
46.776348 0.103191 -0.649998
73.60948 0.153826 0.136002
76.349019 0.256531 0.182007
77.872193 0.209546 0.239006
80.080135 0.153298 0.242004
84.720461 0.291617 0.460007
87.152149 0.276553 0.562004
91.274644 0.192984 0.738007
100.764346 0.294233 1.051003
102.469501 0.337484 1.138
103.587413 0.298833 1.196007
104.621797 0.358287 1.355003
105.71148 0.235876 1.197006
112.629045 0.143024 1.772003
114.111151 0.354722 1.787003
118.988757 0.401411 2.057007
123.362994 0.372908 2.255005
141.57271 0.263515 3.359001
150.223543 0.262734 3.864006
160.775743 0.472259 4.934006
161.180889 0.428987 4.944
161.627914 0.3716 4.938004
5.729544 -0.123846 -0.086998
66.159969 -0.017089 -0.064995
67.473745 0.006498 0.002007
68.061104 0.123339 -0.057995
70.842175 0.107115 0.043007
72.659086 0.136019 0.082001
73.805111 0.146188 0.121002
74.517529 0.045994 0.146004
75.090658 0.086017 0.127007
78.263688 0.264148 0.252007
78.892463 0.227121 0.245003
87.500952 0.100701 0.643005
88.116076 0.161548 0.629005
88.940483 0.116883 0.673004
89.681246 0.135386 0.735001
92.392208 0.049517 0.755005
104.006093 0.122748 1.147003
111.148331 0.350586 1.514
114.166333 0.137918 1.723
116.094885 0.117537 1.824005
121.014602 0.219989 2.157005
131.873494 0.1979 2.675003
143.165644 0.181359 3.337006
146.072354 0.122791 3.542
159.741242 0.377866 4.812004
159.978405 0.251299 4.894005
161.11078 0.359342 4.925003
161.361942 0.239716 5.006004
