ply
format ascii 1.0
comment Converted from DAT line segments
element vertex 32
property float x
property float y
property float z
element edge 16
property list uchar int vertex_indices
end_header
9.615341 0.058906 -0.230995
59.927405 0.136378 -0.350998
116.612251 0.199672 1.806
161.89319 0.293854 4.962006
128.477995 0.362908 2.533005
154.89175 0.379997 4.333
1.453413 -0.011815 -0.131996
63.630872 0.124078 -0.111996
6.28879 -0.055825 -0.190998
57.495138 -0.02325 -0.207996
26.330344 0.150134 -0.507996
53.582737 0.199377 -0.285995
64.399284 0.051648 0.005005
90.212494 0.189524 0.590004
85.502408 0.086375 0.466003
121.546083 0.344004 2.132004
8.972684 0.12393 -0.187996
61.115426 0.167371 -0.168995
114.836988 0.086776 1.713005
157.756 0.160852 4.587006
28.943433 0.050614 -0.551998
74.294481 0.214441 0.113007
89.444198 0.296892 0.686005
98.626048 0.280372 0.992004
1.061569 -0.171232 -0.027996
3.116688 0.045551 -0.006996
79.870157 0.04918 0.513
86.843948 0.053969 0.585007
19.886757 -0.114963 -0.355995
41.26962 -0.011287 -0.435997
0.0 0.0 0.0
1.118376 0.101102 -0.004997
2 0 1
2 2 3
2 4 5
2 6 7
2 8 9
2 10 11
2 12 13
2 14 15
2 16 17
2 18 19
2 20 21
2 22 23
2 24 25
2 26 27
2 28 29
2 30 31
