ply
format ascii 1.0
comment Saved by Easy3D (liangliang.nan@gmail.com)
element vertex 18
property float x
property float y
property float z
element edge 9
property list uchar int vertex_indices
end_header
32.2449 0.606093 -0.566851
0.0111618 -0.592717 0.0958576
148.733 0.127834 3.82083
108.544 0.392782 1.52317
82.0376 0.495904 0.286403
49.4166 -0.254437 -0.130401
82.4291 0.359397 0.358828
95.5778 -0.0182624 0.861173
94.2253 0.31807 0.776551
102.845 0.0839957 1.17445
31.3034 0.0995042 -0.408239
44.2488 0.0228856 -0.369754
161.892 0.188053 5.02498
149.833 0.445058 3.84503
102.019 0.245133 1.11448
107.349 0.235903 1.39353
48.7505 0.105272 -0.321014
44.9833 0.0603687 -0.299981
2 0 1
2 2 3
2 4 5
2 6 7
2 8 9
2 10 11
2 12 13
2 14 15
2 16 17
