ply
format ascii 1.0
comment Saved by Easy3D (liangliang.nan@gmail.com)
element vertex 79
property float x
property float y
property float z
end_header
119.561 0.161928 2.024
121.015 0.219989 2.15701
23.4231 0.0340101 -0.318996
23.6465 -0.0296217 -0.327995
27.0426 0.0150007 -0.332996
30.4107 0.0108022 -0.425995
35.0512 0.184059 -0.367996
153.983 0.138445 4.242
28.9434 0.0506142 -0.551998
42.458 0.124521 -0.477997
45.2949 0.101123 -0.382996
143.166 0.181359 3.33701
89.4442 0.296892 0.686005
48.1736 0.0286722 -0.227997
30.9555 -0.0678724 -0.258995
57.37 0.158847 -0.233997
34.5059 0.122981 -0.331997
59.0609 0.12528 -0.138996
36.1967 0.0544752 -0.467999
43.7015 0.0435253 -0.344997
45.4767 0.121483 -0.353996
47.8946 0.169354 -0.403996
50.1441 -0.00582306 -0.263996
50.6752 0.0133762 -0.289997
51.8212 0.0235454 -0.309998
57.3001 0.159079 -0.158997
57.4951 -0.0232501 -0.207996
59.9274 0.136378 -0.350998
133.216 0.375123 2.789
60.5563 0.134289 -0.247997
135.592 0.367233 2.952
138.415 0.40677 3.209
138.778 0.377613 3.201
148.854 0.281258 4.02901
139.826 0.40907 3.318
149.497 0.390926 3.939
152.446 0.353181 4.216
136.626 0.321872 3.039
114.837 0.0867763 1.71301
116.095 0.117537 1.82401
8.10559 -0.0618595 -0.147995
153.298 0.252523 4.343
7.70044 -0.0185874 -0.212997
41.5911 0.008608 -0.372997
44.5264 0.138614 -0.345997
45.5888 0.211951 -0.306995
46.7763 0.103191 -0.649998
49.0125 0.130702 -0.269997
57.691 0.0389892 -0.126995
120.889 0.192456 2.122
135.172 0.403563 2.90401
137.716 0.374153 3.208
139.127 0.376453 3.242
140.245 0.372739 3.291
151.65 0.411728 4.146
153.829 0.236783 4.396
5.72954 -0.123846 -0.086998
7.56045 -0.088 -0.184998
26.9588 0.00829153 -0.328995
28.4678 -0.0805734 -0.342999
29.1946 -0.0690117 -0.306995
30.285 0.0182076 -0.410995
33.849 0.111187 -0.426998
35.0509 0.114183 -0.371998
35.6238 0.0843289 -0.411995
41.2696 -0.0112875 -0.435997
49.907 0.155683 -0.362995
52.3804 0.0566272 -0.323997
58.0405 0.0727672 -0.215996
90.2125 0.189524 0.590004
107.947 0.158573 1.395
115.354 0.168911 1.75201
116.612 0.199672 1.806
118.848 0.122369 1.939
122.44 0.159354 2.056
134.641 0.349426 2.959
146.072 0.122791 3.542
146.744 0.246341 3.896
151.887 0.285161 4.162
