ply
format ascii 1.0
comment Converted from TXT point cloud
element vertex 63
property float x
property float y
property float z
end_header
-0.292374 0.55511 7.139999
272.276822 1.407922 -5.09
30.755473 9.326644 -3.24
235.986863 9.943222 1.100002
16.948022 0.382682 5.209999
218.924285 9.705349 0.470001
27.91585 9.029739 -3.039999
222.519455 1.17229 -8.16
220.240291 1.141188 -8.25
29.941351 8.96515 -3.09
33.758018 9.043049 -3.559999
208.424745 1.459199 -0.369999
206.975716 1.49727 -0.399998
136.091756 9.387177 -0.23
106.162839 9.187858 0.470001
105.22274 9.189812 0.459999
110.058803 9.434265 -8.49
121.220568 0.933655 -0.860001
125.979461 9.531548 -9.049999
126.727123 0.9065 -0.919998
130.743344 0.535617 -9.41
131.814303 9.518513 -9.139999
66.997253 9.598934 -6.119999
76.85428 9.586371 -6.709999
77.670531 0.974685 0.93
102.2218 9.24591 0.529999
101.92547 9.113431 0.610001
104.791572 9.155649 0.41
105.846867 9.101386 0.549999
199.54975 1.15406 -9.289999
198.05331 1.37155 -0.869999
201.604557 1.194848 -9.25
309.363355 10.782778 -1.619999
218.940229 9.879312 0.420002
218.391527 9.772419 0.59
212.144286 10.285318 -8.299999
196.522575 1.582359 -0.529999
205.094717 1.614926 -0.48
57.992933 0.547734 2.080002
58.417576 0.441804 -5.849998
3.973113 8.661772 6.82
14.326931 9.269242 -1.34
101.777236 0.765914 -0.23
102.600044 0.808742 -0.25
111.159905 9.428081 -8.57
-0.412001 0.474853 7.119999
0.877316 0.562288 6.990002
127.131324 0.960326 -0.880001
133.445267 9.551481 -9.09
127.101286 0.502413 -9.26
129.041698 0.48176 -9.269999
131.066397 0.530921 -9.369999
131.965922 0.499706 -9.4
137.056939 0.961125 -1.119999
160.56146 9.900517 -9.599998
298.150063 1.48634 -3.16
295.998899 1.565603 -3.389999
274.118469 1.848566 2.529999
197.138888 1.232565 -0.889999
256.40061 1.703728 1.369999
203.189715 1.179737 -9.24
240.526562 1.540775 0.639999
237.642911 1.552091 0.440002
