ply
format ascii 1.0
comment Converted from DAT line segments
element vertex 136
property float x
property float y
property float z
element edge 68
property list uchar int vertex_indices
end_header
34.035753 9.225298 -3.51
95.388982 9.402683 -7.879999
36.094536 0.18292 -3.84
96.401646 0.330926 -8.129999
127.977192 9.600371 -9.109999
197.926879 10.014394 -9.119999
225.04077 1.257684 -8.449999
293.05294 1.586139 -3.67
230.678186 10.215379 -7.92
292.057825 10.604362 -3.529999
121.192065 0.71453 -9.25
202.54626 0.965396 -9.279999
19.208836 0.581067 5.110001
216.465489 1.213827 -8.709999
-0.092018 -0.00742 0.0
31.99853 0.15027 -3.5
125.056876 0.965546 -0.939999
200.002095 1.381004 -0.970001
219.454078 10.210786 -8.4
296.386318 10.539921 -3.129999
3.412829 8.979767 -0.389999
58.970744 9.195684 -5.65
137.711732 0.633065 -9.59
188.053944 0.872287 -9.689999
35.153635 0.298623 -3.699999
109.499112 0.540291 -8.719999
238.67567 1.650058 0.52
302.175563 2.0819 4.850002
46.948144 9.352335 -4.41
109.162418 9.47677 -8.48
176.663844 0.97062 -9.25
217.032297 1.035925 -8.74
112.042929 9.454163 -8.619999
177.927205 10.062188 -9.09
-0.504417 0.492445 7.02
41.566484 0.497858 3.200001
175.89961 10.11925 -8.98
214.524797 10.097674 -8.57
216.274378 1.22643 -8.57
272.485167 1.690559 -5.269999
137.145447 9.560412 -9.32
179.254269 9.818822 -9.449999
8.530395 8.720213 6.200001
84.050794 8.987877 0.970001
5.436237 8.907651 -0.529999
200.010816 9.576759 -0.32
289.586747 10.699612 -3.59
315.466023 10.683098 -1.110001
259.360733 1.500856 -6.43
305.90721 1.737448 -2.24
109.517672 9.471227 -8.209999
310.587293 10.401857 5.709999
22.302505 0.158603 -2.33
65.915095 0.225867 -6.309999
176.809079 1.376224 -0.809998
219.97529 1.587898 -0.360001
197.752758 10.204724 -8.73
222.154747 10.124668 -8.15
110.269835 0.51246 -8.75
142.844927 0.896248 -9.199999
3.264699 8.680385 6.82
84.383267 9.017051 1.02
136.220768 0.986884 -1.139999
178.774121 1.210869 -1.349998
106.704424 0.871499 -0.43
137.036495 1.120881 -0.82
27.247416 0.794453 4.510002
102.222009 0.849001 -0.239998
198.618548 9.935567 -9.039999
230.445699 10.312469 -7.559999
96.071999 0.661815 -7.809999
114.600665 0.573059 -8.65
90.894741 9.687561 -7.389999
114.274437 9.547172 -8.439999
219.614803 1.574623 -0.299999
285.694935 1.953838 3.32
214.331629 1.122044 -8.49
219.254874 1.330088 -8.24
85.641395 0.594675 -7.449999
141.560355 0.592605 -9.549999
68.240589 9.054493 2.09
102.291992 9.031774 0.240002
177.949253 9.674935 -0.329998
209.023545 9.67736 -0.040001
146.879219 9.221277 -0.559998
175.104642 9.476724 -0.809998
110.603807 9.761129 -8.24
132.880797 9.854422 -8.769999
201.818204 1.030016 -8.859999
210.590876 1.083851 -8.609999
88.973448 0.912761 0.66
108.239031 1.024518 -0.239998
73.535067 0.450251 -6.849998
236.260865 1.831021 0.639999
3.896083 9.084589 -0.259998
141.109825 9.236383 -0.309998
60.232849 9.18527 -5.73
73.428766 9.282113 -6.709999
105.518581 9.087266 0.290001
114.281275 9.338491 0.27
94.181266 1.094374 0.220001
117.789751 1.076866 -0.439999
238.662133 1.134848 -7.719999
262.028956 1.298072 -6.17
253.965466 10.092582 2.0
258.977499 10.036719 2.25
110.555733 9.121726 -0.009998
131.292568 9.391956 -0.130001
216.229652 9.696535 0.18
234.421346 9.912325 1.060001
231.885379 9.774242 0.690002
251.531334 9.970778 1.799999
96.615258 9.1468 0.810001
102.507175 9.10573 0.389999
311.87525 10.834302 -1.399998
315.408146 10.824883 -1.099998
299.836776 10.350703 5.0
310.134147 10.288662 5.75
10.159546 -0.11754 -1.07
25.303446 0.102505 -2.529999
30.221249 8.688641 4.260002
59.027086 8.815111 2.310001
225.544223 1.085238 -8.309999
233.592781 1.101234 -7.949999
249.485389 10.195123 -6.83
273.817185 10.329203 -5.119999
74.214909 0.6788 1.279999
83.298074 0.682777 0.690002
87.678688 9.203417 1.139999
97.471872 8.961284 0.630001
208.506485 9.800882 0.200001
214.978014 9.744583 0.170002
293.030334 2.204654 4.139999
302.852823 2.067897 4.990002
202.988138 1.154706 -8.849998
205.129324 1.272833 -8.799999
2 0 1
2 2 3
2 4 5
2 6 7
2 8 9
2 10 11
2 12 13
2 14 15
2 16 17
2 18 19
2 20 21
2 22 23
2 24 25
2 26 27
2 28 29
2 30 31
2 32 33
2 34 35
2 36 37
2 38 39
2 40 41
2 42 43
2 44 45
2 46 47
2 48 49
2 50 51
2 52 53
2 54 55
2 56 57
2 58 59
2 60 61
2 62 63
2 64 65
2 66 67
2 68 69
2 70 71
2 72 73
2 74 75
2 76 77
2 78 79
2 80 81
2 82 83
2 84 85
2 86 87
2 88 89
2 90 91
2 92 93
2 94 95
2 96 97
2 98 99
2 100 101
2 102 103
2 104 105
2 106 107
2 108 109
2 110 111
2 112 113
2 114 115
2 116 117
2 118 119
2 120 121
2 122 123
2 124 125
2 126 127
2 128 129
2 130 131
2 132 133
2 134 135
