ply
format ascii 1.0
comment Saved by Easy3D (liangliang.nan@gmail.com)
element vertex 18
property float x
property float y
property float z
end_header
5.56507 -0.0764393 -0.68
12.4814 -0.0496502 -1.39
14.3014 -0.0368118 -1.62
304.768 1.60815 -2.33
297.842 1.54372 -3.11
295.489 1.48044 -3.29
310.587 10.4019 5.71
304.023 1.60879 -2.42
294.464 1.52633 -3.42
284.609 1.43267 -4.43
299.487 1.51187 -2.88
0.118734 -0.0660301 -0.0200005
10.1595 -0.11754 -1.07
2.48822 -0.0600469 -0.220001
305.567 1.56442 -2.3
298.15 1.48634 -3.16
286.783 1.43244 -4.2
282.789 1.41984 -4.45
