ply
format ascii 1.0
element vertex 17
property float x
property float y
property float z
element edge 16
property list uchar int vertex_indices
end_header
152.57164610071845 0.31206770664717726 4.2327435256843815
161.89319042233623 0.33303077163548145 5.027868886683895
143.14386443513024 0.2910495664399789 3.501679642352439
133.6098454255716 0.2699763510138862 2.834677236688062
123.96958907204252 0.24884806036889923 2.2317363086912554
114.22309537454302 0.227664694505018 1.6928568583620167
104.3703643330731 0.20642625342224258 1.2180388857003464
94.41139594763271 0.1851327371205728 0.8072823907062446
84.34619021822192 0.16378414560000884 0.46058737337971234
74.1747471448407 0.1423804788605506 0.17795383372074858
63.89706672748903 0.12092173690219807 -0.04061822827064737
53.51314896616694 0.0994079197249513 -0.1951288125944744
43.022993860874415 0.07783902732881025 -0.28557791925073284
32.42660141161146 0.05621505971377494 -0.3119655482394226
21.723971618378073 0.03453601687984538 -0.2742916995605439
10.91510448117425 0.012801898827021554 -0.17255637321409661
0.0 -0.008987294444696536 -0.006759569200080709
2 0 1
2 2 0
2 3 2
2 4 3
2 5 4
2 6 5
2 7 6
2 8 7
2 9 8
2 10 9
2 11 10
2 12 11
2 13 12
2 14 13
2 15 14
2 16 15
