ply
format ascii 1.0
element vertex 66
property float x
property float y
property float z
element edge 64
property list uchar int vertex_indices
end_header
301.4979495186054 8.45039463252602 -2.0877280090044446
310.7254648820381 8.464380642815359 -1.3100013799999957
292.24614605942605 8.437579559210224 -2.8130408220045746
282.9700545045 8.425935422867973 -3.485939819000384
273.6696748538273 8.415462223499265 -4.106424999991876
264.3450071074079 8.4061599611041 -4.6744963649790465
254.9960512652419 8.398028635682481 -5.190153913961899
245.62280732732918 8.391068247234404 -5.653397646940433
236.22527529366977 8.38527879575987 -6.064227563914644
226.8034551642638 8.380660281258884 -6.422643664884538
217.3573469391111 8.377212703731438 -6.728645949850115
207.8869506182117 8.374936063177538 -6.98223441881137
198.39226620156566 8.373830359597182 -7.183409071768307
188.87329368917298 8.373895592990369 -7.332169908720925
179.33003308103355 8.375131763357098 -7.428516929669222
169.76248437714753 8.377538870697373 -7.472450134613201
160.17064757751484 8.38111691501119 -7.46396952355286
150.55452268213548 8.385865896298554 -7.4030750964882
140.91410969100943 8.391785814559462 -7.289766853419222
131.24940860413676 8.398876669793914 -7.124044794345925
121.5604194215174 8.407138462001909 -6.905908919268308
111.84714214315136 8.416571191183444 -6.635359228186371
102.10957676903867 8.427174857338528 -6.312395721100115
92.34772329917928 8.438949460467153 -5.937018398009538
82.56158173357326 8.451895000569321 -5.509227258914644
72.75115207222058 8.466011477645035 -5.02902230381543
62.91643431512122 8.481298891694294 -4.4964035327118985
53.0574284622752 8.497757242717094 -3.911370945604046
43.174134513682496 8.515386530713439 -3.2739245424918737
33.26655246934314 8.53418675568333 -2.584064323375383
23.334682329257113 8.554157917626762 -1.8417902882545731
13.378524093424428 8.575300016543737 -1.047102437129444
3.3980777618450744 8.59761305243426 -0.2000007699999955
293.7346900261219 0.245530603459531 -2.9085763870384933
302.70359734925273 0.25695627530775866 -2.0999984799999964
284.7332848281871 0.23519458799941506 -3.660753114128817
275.6993817554485 0.22594822892741093 -4.356528661270968
266.632980807906 0.21779152624351852 -4.995903028464946
257.5340819855596 0.21072447994773788 -5.578876215710752
248.40268528840946 0.20474709004006905 -6.105448223008384
239.23879071645536 0.19985935652051195 -6.575619050357844
230.0423982696974 0.1960612793890666 -6.989388697759128
220.81350794813562 0.1933528586457331 -7.346757165212242
211.55211975176994 0.19173409429051128 -7.647724452717184
202.2582336806004 0.19120498632340122 -7.892290560273953
192.93184973462695 0.191765534744403 -8.08045548788255
183.57296791384968 0.19341573955351646 -8.212219235542971
174.18158821826847 0.1961556007507417 -8.28758180325522
164.75771064788347 0.19998511833607874 -8.306543191019298
155.30133520269456 0.2049042923095275 -8.269103398835203
145.81246188270183 0.21091312267108808 -8.175262426702933
136.29109068790518 0.21801160942076037 -8.025020274622491
126.73722161830474 0.22619975255854452 -7.818376942593879
117.1508546739004 0.2354775520844404 -7.555332430617092
107.53198985469217 0.24584500799844794 -7.235886738692132
97.88062716068008 0.25730212030056737 -6.860039866819001
88.19676659186412 0.2698488889907985 -6.427791814997693
78.4804081482443 0.2834853140691414 -5.939142583228215
68.7315518298206 0.29821139553559606 -5.3940921715105645
58.95019763659305 0.3140271333901626 -4.792640579844742
49.13634556856164 0.33093252763284076 -4.134787808230746
39.28999562572635 0.34892757826363074 -3.420533856668576
29.411147808087186 0.36801228528253244 -2.6498787251582336
19.499802115644165 0.38818664868954594 -1.8228224136997193
9.555958548397282 0.4094506684846712 -0.9393649222930318
-0.4203828936534716 0.43180434466790824 0.0004937490618285023
2 0 1
2 2 0
2 3 2
2 4 3
2 5 4
2 6 5
2 7 6
2 8 7
2 9 8
2 10 9
2 11 10
2 12 11
2 13 12
2 14 13
2 15 14
2 16 15
2 17 16
2 18 17
2 19 18
2 20 19
2 21 20
2 22 21
2 23 22
2 24 23
2 25 24
2 26 25
2 27 26
2 28 27
2 29 28
2 30 29
2 31 30
2 32 31
2 33 34
2 35 33
2 36 35
2 37 36
2 38 37
2 39 38
2 40 39
2 41 40
2 42 41
2 43 42
2 44 43
2 45 44
2 46 45
2 47 46
2 48 47
2 49 48
2 50 49
2 51 50
2 52 51
2 53 52
2 54 53
2 55 54
2 56 55
2 57 56
2 58 57
2 59 58
2 60 59
2 61 60
2 62 61
2 63 62
2 64 63
2 65 64
