ply
format ascii 1.0
element vertex 132
property float x
property float y
property float z
element edge 128
property list uchar int vertex_indices
end_header
296.5314805605492 1.6389297912229024 -3.132356817072896
305.90720993179133 1.7080901024361816 -2.180662164853835
287.14370302758385 1.5707761191034115 -4.018255680170453
277.7438773328954 1.5036290860777093 -4.838358754146508
268.33200347648386 1.437488692145796 -5.59266603900106
258.90808145834916 1.3723549373076713 -6.28117753473411
249.47211127849135 1.3082278215633354 -6.903893241345656
240.0240929369104 1.245107344912788 -7.460813158835698
230.56402643360627 1.1829935073560298 -7.951937287204241
221.09191176857902 1.1218863088930597 -8.37726562645128
211.60774894182867 1.0617857495238787 -8.736798176576814
202.1115379533552 1.0026918292484863 -9.030534937580846
192.6032788031586 0.9446045480668828 -9.258475909463375
183.08297149123882 0.8875239059790677 -9.4206210922244
173.55061601759593 0.8314499029850415 -9.516970485863922
164.00621238222996 0.7763825390848043 -9.547524090381943
154.44976058514078 0.7223218142783552 -9.512281905778458
144.88126062632853 0.6692677285656954 -9.411243932053473
135.30071250579311 0.6172202819468239 -9.244410169206985
125.70811622353457 0.5661794744217411 -9.011780617238992
116.10347177955288 0.5161453059904472 -8.713355276149496
106.48677917384808 0.4671177766529419 -8.3491341459385
96.85803840642014 0.4190968864092253 -7.919117226605999
87.21724947726906 0.37208263525929747 -7.423304518151996
77.56441238639486 0.3260750232031584 -6.861696020576488
67.89952713379753 0.281074050240808 -6.234291733879479
58.22259371947706 0.23707971637224629 -5.541091658060967
48.533612143433466 0.19409202159747327 -4.782095793120952
38.83258240566673 0.152110965916489 -3.957304139059433
29.11950450617687 0.11113654932929343 -3.066716695876413
19.39437844496387 0.07116877183588656 -2.1103334635718882
9.65720422202774 0.0322076334362684 -1.088154442145861
-0.09201816263151943 -0.005746865869561037 -0.00017963159833094144
300.797689422709 10.272002034982151 4.9853032744874515
310.58729341965415 10.337339280741213 5.783996456789158
291.0200707751392 10.20753946108738 4.240227400788298
281.25443747694464 10.1439515590569 3.548768835691694
271.5007895281254 10.081238328890711 2.9109275791976414
261.75912692868155 10.019399770588814 2.32670363130614
252.02944967861302 9.958435884151209 1.7960969920171919
242.31175777791975 9.898346669577894 1.3191076613307935
232.6060512266019 9.839132126868874 0.8957356392469475
222.91233002465938 9.780792256024142 0.5259809257656531
213.23059417209205 9.7233270570437 0.20984352088690839
203.56084366890008 9.666736529927551 -0.05267657538928516
193.90307851508345 9.611020674675693 -0.2615793630629266
184.25729871064217 9.556179491288129 -0.4168648421340173
174.6235042555762 9.502212979764854 -0.5185330126025568
165.00169514988553 9.449121140105873 -0.5665838744685449
155.3918713935702 9.396903972311181 -0.5610174277319815
145.79403298663019 9.34556147638078 -0.5018336723928669
136.20817992906547 9.29509365231467 -0.3890326084512008
126.63431222087607 9.245500500112852 -0.2226142359069837
117.07242986206202 9.196782019775327 -0.0025785547602155123
107.5225328526233 9.148938211302092 0.2710744349891038
97.98462119255989 9.101969074693148 0.5983447333409748
88.45869488187179 9.055874609948498 0.9792323402953966
78.94475392055902 9.010654817068136 1.4137372558523702
69.44279830862155 8.966309696052067 1.9018594800118955
59.95282804605942 8.922839246900288 2.443599012773971
50.474843132872614 8.8802434696128 3.038955854138597
41.00884356906113 8.838522364189604 3.687930004105775
31.554829354624957 8.797675930630703 4.390521462675506
22.11280048956411 8.757704168936092 5.146730229847787
12.682756973878579 8.718607079105771 5.9565563056226205
3.2646988075683705 8.68038466113974 6.819999690000003
305.7608924983835 10.676274925739621 -2.070070007836588
315.44509130026216 10.719705802506365 -1.0499992399999982
296.0723834124911 10.632190952786228 -3.0229991135345324
286.3795640425851 10.587453883646202 -3.908786557093821
276.68243438866534 10.542063718319525 -4.727432338514458
266.98099445073194 10.496020456806205 -5.478936457796443
257.27524422878486 10.449324099106239 -6.163298914939778
247.56518372282403 10.401974645219635 -6.780519709944461
237.85081293284955 10.353972095146382 -7.330598842810495
228.13213185886138 10.30531644888649 -7.8135363135378775
218.40914050085954 10.25600770643995 -8.22933212212661
208.68183885884397 10.206045867806768 -8.577986268576689
198.9502269328147 10.155430932986942 -8.859498752888118
189.21430472277174 10.104162901980471 -9.073869575060897
179.4740722287151 10.052241774787358 -9.221098735095023
169.72952945064478 9.999667551407601 -9.301186232990498
159.98067638856077 9.946440231841201 -9.314132068747327
150.227513042463 9.892559816088156 -9.259936242365498
140.4700394123516 9.838026304148467 -9.138598753845024
130.7082554982265 9.782839696022135 -8.950119603185897
120.94216130008772 9.72699999170916 -8.694498790388117
111.17175681793526 9.670507191209541 -8.37173631545169
101.39704205176908 9.613361294523276 -7.98183217837661
91.61801700158921 9.55556230165037 -7.524786379162878
81.83468166739564 9.497110212590817 -7.000598917810494
72.04703604918839 9.438005027344623 -6.409269794319462
62.255080146967444 9.378246745911783 -5.750799008689776
52.45881396073283 9.317835368292302 -5.025186560921442
42.65823749048451 9.256770894486179 -4.232432451014455
32.85335073622249 9.195053324493408 -3.3725366789688174
23.044153697946783 9.132682658313994 -2.4454992447845294
13.230646375657386 9.069658895947939 -1.4513201484615903
3.412828769354296 9.005982037395237 -0.38999938999999983
293.5622649616469 2.0709800468613278 4.232924800551605
302.8528229244843 2.1393661459368984 5.045880345501296
284.2594904970346 2.003687702097935 3.4763965304055526
274.94449953064736 1.9374891116467197 2.7762955350631366
265.6172920624852 1.8723842755076807 2.1326218145243523
256.2778680925481 1.8083731936808192 1.5453753687892067
246.92622762083604 1.7454558661661348 1.0145561978576951
237.5623706473491 1.6836322929636278 0.5401643017298201
228.1862971720872 1.6229024740732976 0.1221996804055816
218.7980071950504 1.563266409495145 -0.2393376661150226
209.39750071623865 1.5047240992291697 -0.5444477378319911
199.98477773565196 1.4472755432753708 -0.793130534745323
190.55983825329037 1.39092074163375 -0.9853860568550201
181.12268226915387 1.335659694304306 -1.1212143041610818
171.67330978324247 1.2814924012870395 -1.2006152766635072
162.21172079555603 1.2284188625819494 -1.223588974362297
152.73791530609475 1.176439078189037 -1.190135397257451
143.25189331485853 1.1255530481083018 -1.1002545453489696
133.7536548218474 1.075760772339744 -0.9539464186368524
124.24319982706129 1.027062250883363 -0.7512110171210999
114.72052833050029 0.9794574837391593 -0.49204834080171156
105.18564033216435 0.9329464709071329 -0.17645838967868732
95.63853583205349 0.8875292123872837 0.1955588362479721
86.07921483016774 0.8432057081796117 0.6240033369782669
76.50767732650701 0.7999759582841167 1.108875112512199
66.92392332107138 0.7578399627007992 1.6501741628497661
57.32795281386082 0.7167977214296586 2.247900487990968
47.719765804875315 0.6768492344706952 2.9020540879358054
38.0993622941149 0.637994501823909 3.612634962684279
28.466742281579556 0.6002335234893004 4.37964311223639
18.821905767269286 0.5635662994668684 5.203078536592134
9.164852751184089 0.527992829756614 6.082941235751516
-0.5044167666760334 0.49351311435853656 7.019231209714531
2 0 1
2 2 0
2 3 2
2 4 3
2 5 4
2 6 5
2 7 6
2 8 7
2 9 8
2 10 9
2 11 10
2 12 11
2 13 12
2 14 13
2 15 14
2 16 15
2 17 16
2 18 17
2 19 18
2 20 19
2 21 20
2 22 21
2 23 22
2 24 23
2 25 24
2 26 25
2 27 26
2 28 27
2 29 28
2 30 29
2 31 30
2 32 31
2 33 34
2 35 33
2 36 35
2 37 36
2 38 37
2 39 38
2 40 39
2 41 40
2 42 41
2 43 42
2 44 43
2 45 44
2 46 45
2 47 46
2 48 47
2 49 48
2 50 49
2 51 50
2 52 51
2 53 52
2 54 53
2 55 54
2 56 55
2 57 56
2 58 57
2 59 58
2 60 59
2 61 60
2 62 61
2 63 62
2 64 63
2 65 64
2 66 67
2 68 66
2 69 68
2 70 69
2 71 70
2 72 71
2 73 72
2 74 73
2 75 74
2 76 75
2 77 76
2 78 77
2 79 78
2 80 79
2 81 80
2 82 81
2 83 82
2 84 83
2 85 84
2 86 85
2 87 86
2 88 87
2 89 88
2 90 89
2 91 90
2 92 91
2 93 92
2 94 93
2 95 94
2 96 95
2 97 96
2 98 97
2 99 100
2 101 99
2 102 101
2 103 102
2 104 103
2 105 104
2 106 105
2 107 106
2 108 107
2 109 108
2 110 109
2 111 110
2 112 111
2 113 112
2 114 113
2 115 114
2 116 115
2 117 116
2 118 117
2 119 118
2 120 119
2 121 120
2 122 121
2 123 122
2 124 123
2 125 124
2 126 125
2 127 126
2 128 127
2 129 128
2 130 129
2 131 130
