ply
format ascii 1.0
element vertex 106
property float x
property float y
property float z
element edge 125
property list uchar int vertex_indices
end_header
3.54371873560955 1.070993355421333 4.375212011556281
1.121154387889459 3.4750352184021196 4.375212011556281
5.966283083329641 3.4750352184021196 4.375212011556281
3.54371873560955 5.879077081382906 4.375212011556281
2.662154103602295 4.3859578324855315 18.447447898632543
2.8762092190227553 2.773241000816323 21.061793085900213
4.211228252196345 4.176829435987916 21.061793085900216
4.425283367616806 2.5641126043187077 18.447447898632543
2.8762092190227557 4.176829435987916 21.06179308590022
2.662154103602295 2.5641126043187077 18.447447898632543
4.425283367616805 4.385957832485531 18.447447898632547
4.211228252196345 2.7732410008163226 21.06179308590022
14.664390223809185 3.8117333488301606 21.894469134145943
9.752470184511871 4.087201198510444 19.054378215603847
4.425283367616806 4.3859578324855315 18.447447898632543
14.664390223809185 3.1383370879740786 21.894469134145943
9.752470184511871 2.862869238293795 19.054378215603847
-7.576952752590085 3.8117333488301606 21.894469134145943
-2.6650327132927707 4.087201198510444 19.054378215603847
-7.576952752590085 3.1383370879740786 21.894469134145943
-2.6650327132927707 2.862869238293795 19.054378215603847
5.394915028446362 1.6167981053201803 6.604928457166218
5.235854582431244 5.177872840301624 8.54760060824962
5.028829694719609 1.9744575738789614 11.07608266657568
4.820654104540003 4.7722286677908095 13.618618738295465
4.643444092523005 2.35097309354937 15.782959175300515
4.484884989920541 4.444187656503302 17.719508208347403
4.425283367616805 3.47503521840212 18.447447898632543
5.394915028446362 5.333272331484059 6.604928457166218
5.235854582431244 1.7721975965026155 8.54760060824962
5.028829694719609 4.975612862925278 11.07608266657568
4.820654104540003 2.1778417690134293 13.618618738295465
4.643444092523005 4.599097343254869 15.782959175300515
4.484884989920541 2.5058827803009374 17.719508208347403
4.425283367616805 3.4750352184021196 18.447447898632543
2.8762092190227557 2.7732410008163226 21.06179308590022
4.211228252196345 4.176829435987916 21.06179308590022
1.692522442772738 1.6167981053201803 6.604928457166218
1.8515828887878554 5.177872840301624 8.54760060824962
2.058607776499491 1.9744575738789614 11.07608266657568
2.266783366679097 4.7722286677908095 13.618618738295465
2.443993378696095 2.35097309354937 15.782959175300515
2.6025524812985585 4.444187656503302 17.719508208347403
2.662154103602295 3.4750352184021196 18.447447898632543
1.692522442772738 5.333272331484059 6.604928457166218
1.8515828887878554 1.7721975965026155 8.54760060824962
2.058607776499491 4.975612862925278 11.07608266657568
2.266783366679097 2.1778417690134293 13.618618738295465
2.443993378696095 4.599097343254869 15.782959175300515
2.6025524812985585 2.5058827803009374 17.719508208347403
4.575589321439878 4.532804325947371 16.611698044100123
2.3262325909851187 4.7141477341596545 14.344697127713797
4.968097335893514 4.916278327556332 11.817832517760205
1.916321848173042 5.114623920785943 9.338284757819837
2.5118481497792216 4.532804325947371 16.611698044100123
4.425283367616805 4.3859578324855315 18.447447898632543
4.761204880233981 4.7141477341596545 14.344697127713797
2.119340135325585 4.916278327556332 11.817832517760205
5.171115623046058 5.114623920785943 9.338284757819837
1.6925224427727377 5.333272331484059 6.604928457166218
4.575589321439878 2.417266110856868 16.611698044100123
2.3262325909851187 2.235922702644585 14.344697127713797
4.968097335893514 2.0337921092479063 11.817832517760205
1.916321848173042 1.8354465160182962 9.338284757819837
2.5118481497792216 2.417266110856868 16.611698044100123
4.425283367616805 2.5641126043187077 18.447447898632543
4.761204880233981 2.235922702644585 14.344697127713797
2.119340135325585 2.0337921092479063 11.817832517760205
5.171115623046058 1.8354465160182962 9.338284757819837
1.6925224427727377 1.6167981053201803 6.604928457166218
0.0 6.950070436804239 0.0
0.0 0.0 0.0
7.0874374712191 6.950070436804239 0.0
7.0874374712191 0.0 0.0
1.121154387889459 5.879077081382906 4.375212011556281
1.121154387889459 1.070993355421333 4.375212011556281
5.966283083329641 5.879077081382906 4.375212011556281
5.966283083329641 1.070993355421333 4.375212011556281
5.966283083329641 3.475035218402119 4.375212011556281
3.5437187356095503 3.4750352184021196 21.928698327287396
4.211228252196345 4.176829435987917 21.06179308590022
15.079657001406936 3.7884445645353577 19.66130853257515
15.079657001406936 3.1616258722688815 19.66130853257515
10.110968688406935 4.0670960642266 20.36802183342003
9.76404101557961 4.086240264809906 19.054378215603847
8.058372794268449 4.1826389381264555 19.669378791029253
4.350170632896875 4.312573901726976 19.36483133108095
15.079657001406936 3.788444564535358 19.66130853257515
10.110968688406935 2.8829743725776384 20.36802183342003
9.76404101557961 2.863830171994334 19.054378215603847
8.058372794268449 2.7674314986777833 19.669378791029253
4.350170632896875 2.6374965350772634 19.36483133108095
15.079657001406936 3.161625872268881 19.66130853257515
-7.992219530187836 3.7884445645353577 19.66130853257515
-7.992219530187836 3.1616258722688815 19.66130853257515
-3.023531217187834 4.0670960642266 20.36802183342003
2.8762092190227557 4.176829435987917 21.06179308590022
-2.6766035443605087 4.086240264809906 19.054378215603847
-0.9709353230493488 4.1826389381264555 19.669378791029253
2.7372668383222254 4.312573901726976 19.36483133108095
-7.992219530187836 3.788444564535358 19.66130853257515
-3.023531217187834 2.8829743725776384 20.36802183342003
-2.6766035443605087 2.863830171994334 19.054378215603847
-0.9709353230493488 2.7674314986777833 19.669378791029253
2.7372668383222254 2.6374965350772634 19.36483133108095
-7.992219530187836 3.161625872268881 19.66130853257515
2 0 1
2 2 0
2 3 2
2 1 3
2 4 5
2 6 4
2 7 6
2 5 7
2 8 9
2 10 8
2 11 10
2 9 11
2 12 13
2 14 12
2 15 16
2 7 15
2 17 18
2 4 17
2 19 20
2 9 19
2 21 2
2 22 21
2 23 22
2 24 23
2 25 24
2 26 25
2 27 26
2 28 2
2 29 28
2 30 29
2 31 30
2 32 31
2 33 32
2 34 33
2 8 35
2 36 8
2 11 36
2 35 11
2 37 1
2 38 37
2 39 38
2 40 39
2 41 40
2 42 41
2 43 42
2 44 1
2 45 44
2 46 45
2 47 46
2 48 47
2 49 48
2 43 49
2 50 4
2 51 50
2 52 51
2 53 52
2 28 53
2 3 28
2 54 55
2 56 54
2 57 56
2 58 57
2 59 58
2 3 59
2 60 9
2 61 60
2 62 61
2 63 62
2 21 63
2 0 21
2 64 65
2 66 64
2 67 66
2 68 67
2 69 68
2 0 69
2 4 9
2 55 4
2 65 55
2 9 65
2 1 70
2 71 1
2 2 72
2 73 2
2 3 72
2 70 3
2 0 73
2 71 0
2 74 75
2 76 74
2 77 76
2 75 77
2 1 78
2 8 79
2 80 79
2 79 11
2 79 35
2 12 15
2 81 82
2 81 83
2 80 84
2 85 86
2 14 87
2 82 88
2 11 89
2 90 91
2 7 92
2 17 19
2 93 94
2 93 95
2 96 97
2 98 99
2 4 100
2 94 101
2 35 102
2 103 104
2 9 105
2 21 11
2 28 6
2 69 5
2 59 8
2 73 21
2 71 69
2 72 28
2 70 59
