ply
format ascii 1.0
element vertex 220
property float x
property float y
property float z
element edge 262
property list uchar int vertex_indices
end_header
2.3492745897047205 3.955716632797064 37.48120053616779
3.1524956112508917 3.9252289700684084 38.26956782693498
3.152495611250892 3.989546768117382 36.606401691594534
3.955716632797064 3.955716632797064 37.48120053616779
2.3492745897047205 2.3492745897047205 37.48120053616779
3.1524956112508917 2.379762252433376 38.26956782693498
3.152495611250892 2.3154444543844024 36.606401691594534
3.955716632797064 2.3492745897047205 37.48120053616779
2.315444454384402 3.1524956112508926 36.606401691594534
2.3797622524333764 3.152495611250892 38.26956782693498
3.9895467681173824 3.1524956112508926 36.606401691594534
3.925228970068408 3.152495611250892 38.26956782693498
4.054357901864011 4.054357901864011 34.9304786017161
3.9895467681173824 2.3154444543844024 36.606401691594534
2.315444454384402 3.989546768117381 36.606401691594534
2.250633320637773 2.250633320637773 34.930478601716096
2.2506333206377738 4.054357901864011 34.9304786017161
2.315444454384402 2.3154444543844024 36.606401691594534
3.9895467681173824 3.989546768117381 36.606401691594534
4.0543579018640115 2.250633320637773 34.930478601716096
2.2188380103919316 4.086153212109853 34.1082974190944
2.250633320637773 3.1524956112508917 34.930478601716096
2.152487713908301 2.1524877139083003 32.392573785375674
2.085588388560012 4.219402833941772 30.66265305158941
2.0510396340400243 3.1524956112508917 29.769271743789034
2.2188380103919316 2.2188380103919307 34.1082974190944
2.152487713908301 4.152503508593483 32.392573785375674
2.085588388560012 2.0855883885600113 30.66265305158941
4.086153212109853 4.086153212109853 34.1082974190944
4.0543579018640115 3.1524956112508917 34.930478601716096
4.152503508593483 2.1524877139083003 32.392573785375674
4.219402833941772 4.219402833941772 30.66265305158941
4.25395158846176 3.1524956112508917 29.769271743789034
4.086153212109853 2.2188380103919307 34.1082974190944
4.152503508593483 4.152503508593483 32.392573785375674
4.219402833941772 2.0855883885600113 30.66265305158941
2.1847188750235613 4.120272347478222 33.2260254472125
4.0543579018640115 4.054357901864011 34.930478601716096
4.186955508061196 4.186955508061195 31.501694424645127
2.0510396340400243 4.253951588461758 29.769271743789034
4.120272347478223 4.120272347478222 33.2260254472125
2.250633320637773 4.054357901864011 34.930478601716096
2.1180357144405884 4.186955508061195 31.501694424645127
4.25395158846176 4.253951588461758 29.769271743789034
2.1847188750235613 2.184718875023561 33.2260254472125
4.186955508061196 2.1180357144405884 31.501694424645127
2.0510396340400243 2.0510396340400248 29.769271743789034
4.120272347478223 2.184718875023561 33.2260254472125
2.1180357144405884 2.1180357144405884 31.501694424645127
4.25395158846176 2.0510396340400248 29.769271743789034
4.325279851360999 4.325279851360998 27.924825028490343
2.0510396340400243 4.253951588461759 29.769271743789034
1.9797113711407865 1.979711371140786 27.924825028490343
1.9797113711407857 4.325279851360998 27.924825028490343
4.25395158846176 4.253951588461759 29.769271743789034
4.325279851360998 1.979711371140786 27.924825028490343
4.357028762680691 1.9479624598210936 27.10384365564183
4.325279851360998 3.1524956112508917 27.924825028490343
4.4204176324772 4.4204176324772 25.46469827440871
4.4852585362592166 1.819732686242567 23.78800537405467
4.520521212776067 3.1524956112508917 22.87616306596392
4.357028762680691 4.35702876268069 27.10384365564183
4.4204176324772 1.884573590024584 25.46469827440871
4.4852585362592166 4.4852585362592166 23.78800537405467
1.9479624598210927 1.9479624598210936 27.10384365564183
1.979711371140786 3.1524956112508917 27.924825028490343
1.8845735900245835 4.4204176324772 25.46469827440871
1.819732686242567 1.819732686242567 23.78800537405467
1.7844700097257156 3.1524956112508917 22.87616306596392
1.9479624598210927 4.35702876268069 27.10384365564183
1.8845735900245835 1.884573590024584 25.46469827440871
1.819732686242567 4.4852585362592166 23.78800537405467
4.390544478839027 4.390544478839027 26.237175240255695
1.8532231590367907 4.451768063464993 24.65402103220084
4.520521212776067 4.520521212776067 22.87616306596392
1.9144467436627557 4.390544478839027 26.237175240255695
4.325279851360998 4.325279851360998 27.924825028490343
4.451768063464993 4.451768063464993 24.65402103220084
1.7844700097257156 4.520521212776067 22.87616306596392
4.390544478839027 1.9144467436627561 26.237175240255695
1.9797113711407857 1.979711371140786 27.924825028490343
1.8532231590367907 1.8532231590367911 24.65402103220084
4.520521212776067 1.7844700097257165 22.87616306596392
1.9144467436627557 1.9144467436627561 26.237175240255695
4.451768063464993 1.8532231590367911 24.65402103220084
1.7844700097257156 1.7844700097257165 22.87616306596392
4.596473461954959 1.708517760546824 20.91214668839627
1.7844700097257151 1.7844700097257165 22.87616306596392
1.7085177605468234 4.59647346195496 20.91214668839627
1.708517760546824 1.708517760546824 20.91214668839627
4.520521212776068 1.7844700097257165 22.87616306596392
4.59647346195496 4.59647346195496 20.91214668839627
4.520521212776068 4.520521212776067 22.87616306596392
4.629550611096047 1.6754406114057376 20.056818987917907
4.59647346195496 3.152495611250892 20.91214668839627
4.701124845013776 4.701124845013776 18.206011814384656
4.77613704283557 1.5288541796662143 16.26630381847859
4.85183486603423 4.85183486603423 14.30886653234611
4.929510240364404 1.37548098213738 12.300292606393736
5.0097225804295125 5.0097225804295125 10.226116380225076
5.051937215539798 3.152495611250892 9.134506380179333
4.629550611096047 4.629550611096047 20.056818987917907
4.701124845013776 1.603866377488008 18.206011814384656
4.77613704283557 4.77613704283557 16.26630381847859
4.85183486603423 1.453156356467554 14.30886653234611
4.929510240364404 4.929510240364404 12.300292606393736
5.0097225804295125 1.2952686420722723 10.226116380225076
1.6754406114057374 1.6754406114057376 20.056818987917907
1.708517760546824 3.152495611250892 20.91214668839627
1.6038663774880078 4.701124845013776 18.206011814384656
1.5288541796662143 1.5288541796662143 16.26630381847859
1.453156356467554 4.85183486603423 14.30886653234611
1.37548098213738 1.37548098213738 12.300292606393736
1.2952686420722723 5.0097225804295125 10.226116380225076
1.2530540069619862 3.152495611250892 9.134506380179333
1.6754406114057374 4.629550611096047 20.056818987917907
1.6038663774880078 1.603866377488008 18.206011814384656
1.5288541796662143 4.77613704283557 16.26630381847859
1.453156356467554 1.453156356467554 14.30886653234611
1.37548098213738 4.929510240364404 12.300292606393736
1.2952686420722723 1.2952686420722723 10.226116380225076
1.6408125412195487 4.664178681282236 19.161386690593165
4.739922212181872 4.739922212181872 17.202767468780465
1.4909483949024374 4.814042827599347 15.286114516839032
4.891386083671115 4.891386083671115 13.28612869335699
1.3356476531608257 4.969343569340959 11.27025977222806
5.051937215539798 5.051937215539798 9.134506380179333
4.664178681282236 4.664178681282236 19.161386690593165
1.708517760546824 4.59647346195496 20.91214668839627
1.5650690103199127 4.739922212181872 17.202767468780465
4.814042827599347 4.814042827599347 15.286114516839032
1.4136051388306696 4.891386083671115 13.28612869335699
4.969343569340959 4.969343569340959 11.27025977222806
1.253054006961986 5.051937215539798 9.134506380179333
1.6408125412195487 1.6408125412195487 19.161386690593165
4.59647346195496 1.708517760546824 20.91214668839627
4.739922212181872 1.5650690103199127 17.202767468780465
1.4909483949024374 1.4909483949024374 15.286114516839032
4.891386083671115 1.4136051388306696 13.28612869335699
1.3356476531608257 1.3356476531608257 11.27025977222806
5.051937215539798 1.253054006961986 9.134506380179333
4.664178681282236 1.6408125412195487 19.161386690593165
1.5650690103199127 1.5650690103199127 17.202767468780465
4.814042827599347 1.4909483949024374 15.286114516839032
1.4136051388306696 1.4136051388306696 13.28612869335699
4.969343569340959 1.3356476531608257 11.27025977222806
1.253054006961986 1.253054006961986 9.134506380179333
1.0995504525560138 5.2054407699457705 8.07471358038417
0.7703171000655313 0.7703171000655313 5.801677377593407
0.572435175078243 3.1524956112508926 4.435495075674168
1.0995504525560138 1.0995504525560138 8.07471358038417
0.7703171000655313 5.534674122436253 5.801677377593407
0.572435175078243 3.1524956112508917 4.435495075674168
0.9305487304194386 5.374442492082347 6.907921000457059
3.1524956112508926 5.732556047423542 4.435495075674168
5.374442492082346 5.374442492082347 6.907921000457059
3.1524956112508917 5.732556047423542 4.435495075674168
5.2054407699457705 5.2054407699457705 8.07471358038417
5.534674122436253 0.7703171000655313 5.801677377593407
5.732556047423541 3.1524956112508926 4.435495075674168
5.2054407699457705 1.0995504525560138 8.07471358038417
5.534674122436253 5.534674122436253 5.801677377593407
5.732556047423541 3.1524956112508917 4.435495075674168
0.9305487304194386 0.9305487304194382 6.907921000457059
3.1524956112508926 0.5724351750782419 4.435495075674168
5.374442492082346 0.9305487304194382 6.907921000457059
3.1524956112508917 0.5724351750782419 4.435495075674168
0.5724351750782422 3.1524956112508917 4.435495075674168
-0.07001517917757916 6.375006401679363 0.0
-0.07001517917757916 -0.07001517917757871 0.0
3.1524956112508917 5.732556047423541 4.435495075674168
6.375006401679363 6.375006401679363 0.0
-0.07001517917757871 6.375006401679363 0.0
6.375006401679363 -0.07001517917757871 0.0
-0.07001517917757871 -0.07001517917757871 0.0
0.5724351750782419 5.732556047423541 4.435495075674168
0.5724351750782419 0.5724351750782419 4.435495075674168
5.732556047423541 5.732556047423541 4.435495075674168
5.732556047423541 0.5724351750782419 4.435495075674168
1.979711371140786 4.325279851360998 27.924825028490343
1.979711371140786 1.979711371140786 27.924825028490343
2.3797622524333755 3.9252289700684084 38.26956782693498
2.3797622524333755 2.379762252433376 38.26956782693498
3.925228970068408 3.9252289700684084 38.26956782693498
3.925228970068408 2.379762252433376 38.26956782693498
2.3797622524333755 2.379762252433376 39.16294927486037
3.925228970068408 2.379762252433376 39.16294927486037
2.3797622524333755 3.9252289700684084 39.16294927486037
3.925228970068408 3.9252289700684084 39.16294927486037
7.322918711347771 3.36049531086267 39.162949274860374
7.322918711347771 2.9444959116391143 39.162949274860374
-1.017927488845988 3.36049531086267 39.162949274860374
-1.017927488845988 2.9444959116391143 39.162949274860374
-1.0179274888459893 2.9444959116391143 39.16294927486037
7.322918711347773 3.36049531086267 39.16294927486037
7.322918711347773 2.9444959116391143 39.16294927486037
-1.0179274888459893 3.36049531086267 39.16294927486037
7.689212102725833 3.2417227417187826 34.930478601716096
7.689212102725833 3.063268480783001 34.930478601716096
-1.3842208802240479 3.2417227417187826 34.930478601716096
-1.3842208802240479 3.063268480783001 34.930478601716096
4.253951588461759 4.253951588461759 29.769271743789034
8.122586240126983 3.2918299058077674 27.924825028490343
8.122586240126983 3.013161316694016 27.924825028490343
4.253951588461759 2.0510396340400248 29.769271743789034
4.325279851360997 4.325279851360998 27.924825028490343
4.325279851360997 1.979711371140786 27.924825028490343
-1.8175950176252005 3.2918299058077674 27.924825028490343
-1.8175950176252005 3.013161316694016 27.924825028490343
1.9797113711407865 4.325279851360998 27.924825028490343
8.406449395476852 3.3350989877780877 20.91214668839627
4.520521212776069 4.520521212776067 22.87616306596392
4.520521212776069 1.7844700097257165 22.87616306596392
8.406449395476852 2.9698922347236967 20.91214668839627
4.596473461954961 1.7085177605468242 20.91214668839627
4.596473461954961 4.59647346195496 20.91214668839627
-2.1014581729750663 3.3350989877780877 20.91214668839627
-2.1014581729750663 2.9698922347236967 20.91214668839627
1.7085177605468238 1.7085177605468242 20.91214668839627
1.7085177605468238 4.59647346195496 20.91214668839627
2 0 1
2 2 0
2 3 2
2 1 3
2 4 5
2 6 4
2 7 6
2 5 7
2 4 8
2 9 4
2 0 9
2 8 0
2 7 10
2 11 7
2 3 11
2 10 3
2 12 13
2 14 12
2 15 14
2 13 15
2 16 17
2 18 16
2 19 18
2 17 19
2 14 17
2 18 14
2 13 18
2 17 13
2 20 21
2 22 20
2 23 22
2 24 23
2 25 21
2 26 25
2 27 26
2 24 27
2 28 29
2 30 28
2 31 30
2 32 31
2 33 29
2 34 33
2 35 34
2 32 35
2 36 37
2 38 36
2 39 38
2 40 41
2 42 40
2 43 42
2 44 19
2 45 44
2 46 45
2 47 15
2 48 47
2 49 48
2 50 49
2 51 50
2 52 51
2 49 52
2 53 46
2 54 53
2 55 54
2 46 55
2 51 46
2 54 51
2 49 54
2 46 49
2 56 57
2 58 56
2 59 58
2 60 59
2 61 57
2 62 61
2 63 62
2 60 63
2 64 65
2 66 64
2 67 66
2 68 67
2 69 65
2 70 69
2 71 70
2 68 71
2 72 53
2 73 72
2 74 73
2 75 76
2 77 75
2 78 77
2 79 80
2 81 79
2 82 81
2 83 55
2 84 83
2 85 84
2 86 87
2 74 86
2 88 74
2 87 88
2 89 90
2 78 89
2 91 78
2 90 91
2 78 85
2 92 78
2 90 92
2 85 90
2 93 94
2 95 93
2 96 95
2 97 96
2 98 97
2 99 98
2 100 99
2 101 94
2 102 101
2 103 102
2 104 103
2 105 104
2 106 105
2 100 106
2 107 108
2 109 107
2 110 109
2 111 110
2 112 111
2 113 112
2 114 113
2 115 108
2 116 115
2 117 116
2 118 117
2 119 118
2 120 119
2 114 120
2 121 91
2 122 121
2 123 122
2 124 123
2 125 124
2 126 125
2 127 128
2 129 127
2 130 129
2 131 130
2 132 131
2 133 132
2 134 135
2 136 134
2 137 136
2 138 137
2 139 138
2 140 139
2 141 89
2 142 141
2 143 142
2 144 143
2 145 144
2 146 145
2 147 114
2 148 147
2 149 148
2 150 114
2 151 150
2 152 151
2 153 126
2 154 153
2 155 133
2 156 155
2 157 100
2 158 157
2 159 158
2 160 100
2 161 160
2 162 161
2 163 140
2 164 163
2 165 146
2 166 165
2 167 168
2 169 167
2 170 171
2 172 170
2 162 171
2 173 162
2 166 173
2 174 166
2 175 176
2 177 175
2 178 177
2 176 178
2 41 15
2 37 41
2 19 37
2 15 19
2 179 180
2 76 179
2 55 76
2 180 55
2 128 89
2 91 128
2 135 91
2 89 135
2 181 182
2 183 181
2 184 183
2 182 184
2 133 146
2 126 133
2 140 126
2 146 140
2 185 186
2 187 188
2 188 189
2 186 190
2 187 191
2 185 192
2 182 193
2 194 195
2 183 194
2 184 195
2 196 193
2 181 196
2 197 18
2 13 198
2 197 198
2 37 197
2 19 198
2 199 14
2 17 200
2 199 200
2 41 199
2 15 200
2 201 202
2 203 204
2 202 203
2 205 202
2 206 203
2 51 207
2 208 46
2 207 208
2 209 207
2 52 208
2 210 211
2 212 213
2 210 213
2 214 213
2 215 210
2 216 78
2 85 217
2 216 217
2 218 217
2 219 216
2 184 140
2 182 146
2 183 126
2 133 181
2 126 171
2 133 172
2 140 173
2 174 146
