ply
format ascii 1.0
element vertex 160
property float x
property float y
property float z
element edge 198
property list uchar int vertex_indices
end_header
4.3419588569871035 4.3419588569871035 34.52779792100209
2.4361115773810322 4.3419588569871035 32.37197145025672
6.108478016684731 4.300023998979743 32.37197145025672
7.825712619155871 4.166024122562096 34.52779792100209
9.762969355620676 4.127103076045978 33.25540745123642
2.4361115773810322 4.3419588569871035 34.52779792100209
4.3419588569871035 4.3419588569871035 32.37197145025672
0.669592417683405 4.300023998979743 32.37197145025672
-1.0476421847877349 4.166024122562096 34.52779792100209
-2.9848989212525403 4.127103076045978 33.25540745123642
4.3419588569871035 2.436111577381032 34.52779792100209
2.4361115773810322 2.436111577381032 32.37197145025672
6.108478016684731 2.478046435388393 32.37197145025672
7.825712619155871 2.6120463118060404 34.52779792100209
9.762969355620676 2.6509673583221574 33.25540745123642
2.4361115773810322 2.436111577381032 34.52779792100209
4.3419588569871035 2.436111577381032 32.37197145025672
0.669592417683405 2.478046435388393 32.37197145025672
-1.0476421847877349 2.6120463118060404 34.52779792100209
-2.9848989212525403 2.6509673583221574 33.25540745123642
2.427905135490332 2.427905135490332 31.50797636249375
2.4361115773810322 3.389035217184068 32.37197145025672
2.4098806436175337 4.3689308291830455 29.610311985540122
2.400038292147073 3.389035217184068 28.57408417380703
2.427905135490332 4.350165298877804 31.50797636249375
2.4098806436175337 2.40913960518509 29.610311985540122
4.350165298877804 2.427905135490332 31.50797636249375
4.3419588569871035 3.389035217184068 32.37197145025672
4.368189790750602 4.3689308291830455 29.610311985540122
4.378032142221063 3.389035217184068 28.57408417380703
4.350165298877804 4.350165298877804 31.50797636249375
4.368189790750602 2.40913960518509 29.610311985540122
2.4180749347640527 4.359995499604083 30.62764179037668
4.378032142221063 4.378032142221063 28.57408417380703
4.359995499604083 4.359995499604083 30.62764179037668
2.436111577381032 4.3419588569871035 32.37197145025672
2.400038292147073 4.378032142221063 28.57408417380703
2.4180749347640527 2.4180749347640527 30.62764179037668
4.378032142221063 2.400038292147073 28.57408417380703
4.359995499604083 2.4180749347640527 30.62764179037668
2.436111577381032 2.436111577381032 32.37197145025672
2.400038292147073 2.400038292147073 28.57408417380703
4.510978513721587 2.267091920646549 26.56917708422963
2.267091920646549 4.510978513721587 26.56917708422963
2.267091920646549 2.267091920646549 26.56917708422963
4.510978513721587 4.510978513721587 26.56917708422963
2.2017290695823926 2.2017290695823926 25.484126093534343
2.267091920646549 3.389035217184068 26.56917708422963
2.0647453815895727 4.713325052778563 23.210138898272437
1.9265074787560366 1.9265074787560366 20.915331205842676
1.7870617286061519 4.991008705761985 18.600472736773334
1.6497267132746591 1.6497267132746583 16.320653358999806
1.505951101409849 5.272119332958287 13.933917352967757
1.3614511797154218 1.3614511797154218 11.535157497219833
1.2181146170390527 5.559955817329085 9.15570989353137
1.1424043137665336 3.389035217184068 7.89888681690252
2.2017290695823926 4.576341364785743 25.484126093534343
2.0647453815895727 2.064745381589573 23.210138898272437
1.9265074787560366 4.851562955612099 20.915331205842676
1.7870617286061519 1.787061728606151 18.600472736773334
1.6497267132746591 5.1283437210934775 16.320653358999806
1.505951101409849 1.5059511014098488 13.933917352967757
1.3614511797154218 5.416619254652714 11.535157497219833
1.2181146170390527 1.2181146170390513 9.15570989353137
4.576341364785743 2.2017290695823926 25.484126093534343
4.510978513721587 3.389035217184068 26.56917708422963
4.713325052778563 4.713325052778563 23.210138898272437
4.851562955612099 1.9265074787560366 20.915331205842676
4.991008705761984 4.991008705761985 18.600472736773334
5.128343721093477 1.6497267132746583 16.320653358999806
5.272119332958287 5.272119332958287 13.933917352967757
5.416619254652714 1.3614511797154218 11.535157497219833
5.559955817329083 5.559955817329085 9.15570989353137
5.635666120601602 3.389035217184068 7.89888681690252
4.576341364785743 4.576341364785743 25.484126093534343
4.713325052778563 2.064745381589573 23.210138898272437
4.851562955612099 4.851562955612099 20.915331205842676
4.991008705761984 1.787061728606151 18.600472736773334
5.128343721093477 5.1283437210934775 16.320653358999806
5.272119332958287 1.5059511014098488 13.933917352967757
5.416619254652714 5.416619254652714 11.535157497219833
5.559955817329083 1.2181146170390513 9.15570989353137
2.1282791820459286 4.649791252322208 24.26482687478282
4.783602035383554 4.783602035383554 22.04351124422818
1.8515833953373164 4.92648703903082 19.671559711532804
5.061183112323763 5.061183112323763 17.435547888458885
1.5769454402060763 5.201124994162059 15.11245342338783
5.348903355686346 5.348903355686346 12.65927007895467
1.2888884794431013 5.4891819549250345 10.330585962530716
5.635666120601602 5.635666120601602 7.89888681690252
4.649791252322207 4.649791252322208 24.26482687478282
1.9944683989845817 4.783602035383554 22.04351124422818
4.926487039030819 4.92648703903082 19.671559711532804
1.716887322044372 5.061183112323763 17.435547888458885
5.201124994162059 5.201124994162059 15.11245342338783
1.4291670786817892 5.348903355686346 12.65927007895467
5.4891819549250345 5.4891819549250345 10.330585962530716
1.1424043137665332 5.635666120601602 7.89888681690252
2.1282791820459286 2.128279182045928 24.26482687478282
4.783602035383554 1.9944683989845817 22.04351124422818
1.8515833953373164 1.8515833953373158 19.671559711532804
5.061183112323763 1.716887322044372 17.435547888458885
1.5769454402060763 1.5769454402060763 15.11245342338783
5.348903355686346 1.4291670786817892 12.65927007895467
1.2888884794431013 1.288888479443101 10.330585962530716
5.635666120601602 1.1424043137665332 7.89888681690252
4.649791252322207 2.128279182045928 24.26482687478282
1.9944683989845817 1.9944683989845817 22.04351124422818
4.926487039030819 1.8515833953373158 19.671559711532804
1.716887322044372 1.716887322044372 17.435547888458885
5.201124994162059 1.5769454402060763 15.11245342338783
1.4291670786817892 1.4291670786817892 12.65927007895467
5.4891819549250345 1.288888479443101 10.330585962530716
1.1424043137665332 1.1424043137665332 7.89888681690252
5.951060741377025 5.951060741377025 5.718164648626394
1.1424043137665336 5.635666120601602 7.89888681690252
3.3890352171840683 6.127490486911684 4.498282533056949
0.8270096929911107 5.951060741377025 5.718164648626394
3.3890352171840674 6.127490486911684 4.498282533056949
0.9950502009342683 5.783020233433868 6.880041347534816
0.6505799474564524 3.3890352171840683 4.498282533056949
0.9950502009342683 0.9950502009342671 6.880041347534816
0.6505799474564524 3.3890352171840674 4.498282533056949
5.783020233433867 5.783020233433868 6.880041347534816
6.127490486911683 3.3890352171840683 4.498282533056949
5.783020233433867 0.9950502009342671 6.880041347534816
6.127490486911683 3.3890352171840674 4.498282533056949
5.951060741377025 0.8270096929911107 5.718164648626394
1.1424043137665336 1.1424043137665332 7.89888681690252
3.3890352171840683 0.6505799474564515 4.498282533056949
0.8270096929911107 0.8270096929911107 5.718164648626394
3.3890352171840674 0.6505799474564515 4.498282533056949
0.6505799474564515 3.3890352171840674 4.498282533056949
0.0 6.778070434368135 0.0
0.0 0.0 0.0
6.778070434368135 6.778070434368135 0.0
6.778070434368135 0.0 0.0
3.3890352171840674 6.127490486911683 4.498282533056949
0.6505799474564515 6.127490486911683 4.498282533056949
0.6505799474564515 0.6505799474564515 4.498282533056949
6.127490486911683 6.127490486911683 4.498282533056949
6.127490486911683 0.6505799474564515 4.498282533056949
12.198903526684644 3.945171492487874 34.52779792100209
12.198903526684644 2.832898941880262 34.52779792100209
8.07167097366181 4.253420361855323 32.37197145025672
4.3419588569871035 2.4361115773810322 32.37197145025672
8.07167097366181 2.524650072512813 32.37197145025672
-5.420833092316508 3.945171492487874 34.52779792100209
-5.420833092316508 2.832898941880262 34.52779792100209
-1.2936005392936734 4.253420361855323 32.37197145025672
2.436111577381032 2.4361115773810322 32.37197145025672
-1.2936005392936734 2.524650072512813 32.37197145025672
4.378032142221062 2.400038292147073 28.574084173807034
12.739661878672722 2.7944852090696557 26.569177084229636
12.739661878672722 3.98358522529848 26.569177084229636
4.378032142221062 4.378032142221063 28.574084173807034
4.510978513721588 4.510978513721587 26.569177084229633
4.510978513721588 2.267091920646549 26.569177084229633
-5.961591444304586 2.7944852090696557 26.56917708422963
-5.961591444304586 3.98358522529848 26.56917708422963
2 0 1
2 2 0
2 3 2
2 4 3
2 5 6
2 7 5
2 8 7
2 9 8
2 10 11
2 12 10
2 13 12
2 14 13
2 15 16
2 17 15
2 18 17
2 19 18
2 20 21
2 22 20
2 23 22
2 24 21
2 25 24
2 23 25
2 26 27
2 28 26
2 29 28
2 30 27
2 31 30
2 29 31
2 32 6
2 33 32
2 34 35
2 36 34
2 37 16
2 38 37
2 39 40
2 41 39
2 42 41
2 33 42
2 43 33
2 41 43
2 44 38
2 36 44
2 45 36
2 38 45
2 46 47
2 48 46
2 49 48
2 50 49
2 51 50
2 52 51
2 53 52
2 54 53
2 55 54
2 56 47
2 57 56
2 58 57
2 59 58
2 60 59
2 61 60
2 62 61
2 63 62
2 55 63
2 64 65
2 66 64
2 67 66
2 68 67
2 69 68
2 70 69
2 71 70
2 72 71
2 73 72
2 74 65
2 75 74
2 76 75
2 77 76
2 78 77
2 79 78
2 80 79
2 81 80
2 73 81
2 82 45
2 83 82
2 84 83
2 85 84
2 86 85
2 87 86
2 88 87
2 89 88
2 90 43
2 91 90
2 92 91
2 93 92
2 94 93
2 95 94
2 96 95
2 97 96
2 98 42
2 99 98
2 100 99
2 101 100
2 102 101
2 103 102
2 104 103
2 105 104
2 106 44
2 107 106
2 108 107
2 109 108
2 110 109
2 111 110
2 112 111
2 113 112
2 114 115
2 116 114
2 117 89
2 118 117
2 119 55
2 120 119
2 121 55
2 122 121
2 123 73
2 124 123
2 125 73
2 126 125
2 127 128
2 129 127
2 130 105
2 131 130
2 132 133
2 134 132
2 126 135
2 136 126
2 137 135
2 133 137
2 131 136
2 134 131
2 138 139
2 140 138
2 141 140
2 139 141
2 35 40
2 6 35
2 16 6
2 40 16
2 36 41
2 33 36
2 38 33
2 41 38
2 43 44
2 45 43
2 42 45
2 44 42
2 97 113
2 89 97
2 105 89
2 113 105
2 15 10
2 5 0
2 142 143
2 6 144
2 142 144
2 0 142
2 145 146
2 143 146
2 10 143
2 147 148
2 35 149
2 147 149
2 5 147
2 150 151
2 148 151
2 15 148
2 152 153
2 154 155
2 154 153
2 156 154
2 157 153
2 41 158
2 159 36
2 159 158
2 43 159
2 44 158
2 33 6
2 16 38
2 40 41
2 36 35
2 33 45
2 38 42
2 41 44
2 43 36
2 45 89
2 42 105
2 44 113
2 97 43
2 89 135
2 105 136
2 113 134
2 133 97
