ply
format ascii 1.0
element vertex 183
property float x
property float y
property float z
element edge 258
property list uchar int vertex_indices
end_header
8.090423414166969 2.158455587932082 27.709875609843497
3.551232632788266 2.364669462008382 28.432366019786233
10.506725713966098 2.0101546626599482 27.536034855382074
8.090423414166969 1.3943070746493396 27.709875609843497
3.551232632788266 1.1880932005730398 28.432366019786233
10.506725713966098 1.5426079999214737 27.536034855382074
-2.191240681012948 2.158455587932082 27.709875609843497
2.347950100365755 2.364669462008382 28.432366019786233
-4.6075429808120765 2.0101546626599482 27.536034855382074
-2.191240681012948 1.3943070746493396 27.709875609843497
2.347950100365755 1.1880932005730398 28.432366019786233
-4.6075429808120765 1.5426079999214737 27.536034855382074
5.173997663191939 1.7763813312907115 8.044107940411584
2.9495913665770104 3.273976069586877 8.044107940411584
2.9495913665770104 0.2787865929945451 8.044107940411584
0.7251850699620825 1.7763813312907115 8.044107940411584
3.5512326327882664 1.1880932005730398 28.432366019786233
3.667651212978668 2.42990391199262 26.969694583265422
2.231531520175354 1.1228587505888017 26.969694583265422
3.667651212978668 1.1228587505888017 26.969694583265422
3.5512326327882664 2.364669462008382 28.432366019786233
2.231531520175354 2.42990391199262 26.969694583265422
3.754901262334144 1.7763813312907109 25.873493660538415
2.949591366577011 2.4787939514647848 25.873493660538415
2.1442814708198776 1.7763813312907109 25.873493660538415
2.949591366577011 1.073968711116637 25.873493660538415
3.848124336473087 1.0217317231947107 24.702248249842913
3.94422291508321 1.7763813312907109 23.494875287611364
3.848124336473087 2.531030939386711 24.702248249842913
2.0510583966809346 1.0217317231947107 24.702248249842913
1.9549598180708119 1.7763813312907109 23.494875287611364
2.0510583966809346 2.531030939386711 24.702248249842913
2.949591366577011 2.5848791989140616 23.494875287611364
2.949591366577011 0.9678834636673601 23.494875287611364
2.1442814708198776 2.4787939514647848 25.873493660538415
2.1442814708198776 1.073968711116637 25.873493660538415
3.754901262334144 2.4787939514647848 25.873493660538415
3.754901262334144 1.073968711116637 25.873493660538415
1.8358439388285808 0.9011375984107373 21.998315254679106
1.8358439388285805 2.651625064170684 21.998315254679106
4.063338794325441 2.651625064170684 21.998315254679106
4.063338794325441 0.9011375984107373 21.998315254679106
1.8358439388285905 0.9011375984107373 21.998315254679113
1.6481096596520572 0.7959418261788631 19.63964048508283
1.7479065804090776 1.7763813312907106 20.893479049384872
1.5501565542030997 1.7763813312907109 18.408967432513645
1.6481096596520572 2.756820836402558 19.63964048508283
1.5501565542030997 1.7763813312907104 18.408967432513645
1.8358439388285905 2.651625064170684 21.998315254679113
4.254290335299862 2.758623609666912 19.599219128561366
1.8358439388285808 2.651625064170684 21.998315254679106
2.9495913665770113 2.811708268870467 18.408967432513638
1.6448923978541596 2.758623609666912 19.599219128561366
2.9495913665770104 2.811708268870467 18.408967432513638
4.251073073501962 0.7959418261788631 19.639640485082822
4.151276152744948 1.7763813312907106 20.893479049384865
4.349026178950913 1.7763813312907109 18.408967432513638
4.251073073501962 2.756820836402558 19.639640485082822
4.349026178950913 1.7763813312907104 18.408967432513638
1.7479065804090763 2.7009002331358207 20.893479049384865
1.7479065804090763 0.8518624294456008 20.893479049384865
4.151276152744948 2.7009002331358207 20.893479049384865
4.151276152744948 0.8518624294456008 20.893479049384865
4.254290335299862 0.794139052914509 19.599219128561366
2.9495913665770113 0.7410543937109542 18.408967432513638
1.6448923978541596 0.794139052914509 19.599219128561366
2.9495913665770104 0.7410543937109542 18.408967432513638
4.458596987215855 0.6796570514671146 17.032330719855604
4.458596987215855 2.8731056111143065 17.032330719855604
1.5501565542031082 1.7763813312907109 18.408967432513638
1.4405857459381657 0.6796570514671146 17.032330719855604
1.4405857459381657 2.8731056111143065 17.032330719855604
2.9495913665770104 2.8117082688704675 18.408967432513638
1.4405857459381657 2.8731056111143074 17.032330719855604
5.49422778958063 1.776381331290711 4.0207685540684315
5.816083918023651 -0.08100257131137312 -0.02299975999999937
5.333331955311908 0.18950458239903023 6.042247777188609
5.036447803013042 0.3558618284037367 9.77227067227154
4.881323870954057 1.7763813312907115 11.721232291390983
4.745038173256489 0.5191514586860215 13.433512211851472
4.593659211185669 1.7763813312907115 15.335422401350694
4.458596987215855 0.6796570514671156 17.032330719855604
5.816083918023651 3.6337652338927953 -0.02299975999999937
5.333331955311908 3.363258080182392 6.042247777188609
5.173997663191939 1.7763813312907106 8.044107940411584
5.036447803013042 3.1969008341776854 9.77227067227154
4.881323870954057 1.7763813312907106 11.721232291390983
4.745038173256489 3.0336112038954006 13.433512211851472
4.593659211185669 1.7763813312907106 15.335422401350694
0.4049549435733906 1.776381331290711 4.0207685540684315
0.08309881513037007 -0.08100257131137312 -0.02299975999999937
0.565850777842113 0.18950458239903023 6.042247777188609
0.8627349301409786 0.3558618284037367 9.77227067227154
1.0178588621999631 1.7763813312907115 11.721232291390983
1.1541445598975315 0.5191514586860215 13.433512211851472
1.3055235219683519 1.7763813312907115 15.335422401350694
1.4405857459381657 0.6796570514671156 17.032330719855604
0.08309881513037007 3.6337652338927953 -0.02299975999999937
0.565850777842113 3.363258080182392 6.042247777188609
0.7251850699620825 1.7763813312907106 8.044107940411584
0.8627349301409786 3.1969008341776854 9.77227067227154
1.0178588621999631 1.7763813312907106 11.721232291390983
1.1541445598975315 3.0336112038954006 13.433512211851472
1.3055235219683519 1.7763813312907106 15.335422401350694
3.660914118177766 3.363258080182392 6.042247777188609
5.173997663191939 3.273976069586877 8.044107940411584
2.238268614976255 3.363258080182392 6.042247777188609
0.7251850699620825 3.273976069586877 8.044107940411584
2.9495913665770104 2.948926527421154 15.335422401350694
4.458596987215855 2.8731056111143074 17.032330719855604
2.9495913665770104 3.109978073474798 11.721232291390983
3.660914118177766 0.1895045823990304 6.042247777188609
5.333331955311908 0.1895045823990304 6.042247777188609
5.173997663191939 0.2787865929945451 8.044107940411584
2.238268614976255 0.1895045823990304 6.042247777188609
0.565850777842113 0.1895045823990304 6.042247777188609
0.7251850699620825 0.2787865929945451 8.044107940411584
2.9495913665770104 0.603836135160268 15.335422401350694
4.745038173256489 0.5191514586860216 13.433512211851472
2.9495913665770104 0.4427845891066239 11.721232291390983
1.1541445598975315 0.5191514586860216 13.433512211851472
4.3792081277746 3.453415091512621 4.0207685540684315
4.3792081277746 0.09934757106880088 4.0207685540684315
5.494227789580631 3.453415091512621 4.0207685540684315
5.494227789580631 0.09934757106880088 4.0207685540684315
0.4049549435733906 3.453415091512621 4.0207685540684315
0.4049549435733906 0.09934757106880088 4.0207685540684315
1.5199746053794219 3.453415091512621 4.0207685540684315
1.5199746053794219 0.09934757106880088 4.0207685540684315
0.7251850699620825 3.273976069586876 8.044107940411584
5.173997663191938 3.273976069586876 8.044107940411584
5.173997663191938 0.2787865929945451 8.044107940411584
1.3055235219683519 2.948926527421153 15.335422401350694
1.3055235219683519 0.603836135160268 15.335422401350694
4.593659211185669 2.948926527421153 15.335422401350694
4.593659211185669 0.603836135160268 15.335422401350694
1.0178588621999631 3.1099780734747973 11.721232291390983
1.0178588621999631 0.4427845891066239 11.721232291390983
4.881323870954057 3.1099780734747973 11.721232291390983
4.881323870954057 0.4427845891066239 11.721232291390983
1.9549598180708119 2.5848791989140616 23.494875287611364
1.9549598180708119 0.9678834636673601 23.494875287611364
3.94422291508321 2.5848791989140616 23.494875287611364
3.94422291508321 0.9678834636673601 23.494875287611364
1.8358439388285805 0.9011375984107373 21.998315254679106
1.5501565542031082 2.8117082688704675 18.408967432513638
1.5501565542031082 0.7410543937109542 18.408967432513638
4.349026178950913 2.8117082688704675 18.408967432513638
4.349026178950913 0.7410543937109542 18.408967432513638
5.456103618825953 2.320137370523709 26.969694583265422
0.44307911432806757 2.320137370523709 26.969694583265422
5.456103618825953 1.2326252920577128 26.969694583265422
8.090423414166969 2.158455587932082 26.969694583265422
8.090423414166969 1.3943070746493396 26.969694583265422
3.667651212978667 2.42990391199262 26.969694583265422
3.667651212978667 1.1228587505888017 26.969694583265422
0.44307911432806757 1.2326252920577128 26.969694583265422
-2.191240681012948 2.158455587932082 26.969694583265422
-2.191240681012948 1.3943070746493396 26.969694583265422
10.262284234539727 1.9912680387357908 21.998315254679113
10.262284234539727 1.5614946238456304 21.998315254679113
4.063338794325431 2.651625064170684 21.998315254679113
4.063338794325431 0.9011375984107374 21.998315254679113
-4.363101501385705 1.9912680387357908 21.998315254679113
-4.363101501385705 1.5614946238456304 21.998315254679113
1.8358439388285903 2.651625064170684 21.998315254679113
1.8358439388285903 0.9011375984107374 21.998315254679113
8.736148219919002 2.0062587405663566 17.032330719855604
4.349026178950912 0.7410543937109542 18.40896743251364
8.736148219919002 1.5465039220150647 17.032330719855604
4.458596987215855 0.6796570514671147 17.032330719855604
-2.8369654867649814 2.0062587405663566 17.032330719855604
1.5501565542031086 0.7410543937109542 18.40896743251364
-2.8369654867649814 1.5465039220150647 17.032330719855604
1.4405857459381657 0.6796570514671147 17.032330719855604
2.9495913665770104 1.7763813312907106 29.681928256427913
2.949591366577011 1.7763813312907106 29.681928256427913
2.9495913665770104 3.273976069586876 8.044107940411584
5.816083918023651 -0.08100257131137423 -0.02299975999999937
0.08309881513037007 -0.08100257131137423 -0.02299975999999937
4.349026178950913 0.7410543937109542 18.40896743251364
5.816083918023651 3.6337652338927957 -0.02299975999999937
0.08309881513037007 3.6337652338927957 -0.02299975999999937
2 0 1
2 2 0
2 3 4
2 5 3
2 6 7
2 8 6
2 9 10
2 11 9
2 12 13
2 14 12
2 15 14
2 13 15
2 16 17
2 18 16
2 7 18
2 17 7
2 19 20
2 10 19
2 21 10
2 20 21
2 22 19
2 17 22
2 23 17
2 21 23
2 24 21
2 18 24
2 25 19
2 18 25
2 26 22
2 27 26
2 28 27
2 22 28
2 29 30
2 24 29
2 31 24
2 30 31
2 28 23
2 32 28
2 31 23
2 32 31
2 26 25
2 33 26
2 29 25
2 33 29
2 34 35
2 36 34
2 37 36
2 35 37
2 30 38
2 39 30
2 32 39
2 40 32
2 27 40
2 41 27
2 33 41
2 42 33
2 43 44
2 45 43
2 46 44
2 47 46
2 44 48
2 42 44
2 49 50
2 51 49
2 52 40
2 53 52
2 54 55
2 56 54
2 57 55
2 58 57
2 55 40
2 41 55
2 59 60
2 61 59
2 62 61
2 60 62
2 63 38
2 64 63
2 65 41
2 66 65
2 56 67
2 68 56
2 69 70
2 71 69
2 72 68
2 73 72
2 66 67
2 70 66
2 74 75
2 76 74
2 12 76
2 77 12
2 78 77
2 79 78
2 80 79
2 81 80
2 74 82
2 83 74
2 84 83
2 85 84
2 86 85
2 87 86
2 88 87
2 68 88
2 89 90
2 91 89
2 15 91
2 92 15
2 93 92
2 94 93
2 95 94
2 96 95
2 89 97
2 98 89
2 99 98
2 100 99
2 101 100
2 102 101
2 103 102
2 71 103
2 104 83
2 105 104
2 106 98
2 107 106
2 108 109
2 87 108
2 110 87
2 85 110
2 13 85
2 108 73
2 102 108
2 110 102
2 100 110
2 13 100
2 111 112
2 113 111
2 114 115
2 116 114
2 117 67
2 118 117
2 119 118
2 77 119
2 14 77
2 117 70
2 120 117
2 119 120
2 92 119
2 14 92
2 121 122
2 123 121
2 124 123
2 122 124
2 125 126
2 127 125
2 128 127
2 126 128
2 129 116
2 130 129
2 131 130
2 116 131
2 132 133
2 134 132
2 135 134
2 133 135
2 136 137
2 138 136
2 139 138
2 137 139
2 7 10
2 20 7
2 16 20
2 10 16
2 21 18
2 17 21
2 19 17
2 18 19
2 140 141
2 142 140
2 143 142
2 141 143
2 39 144
2 40 39
2 41 40
2 144 41
2 145 146
2 147 145
2 148 147
2 146 148
2 71 70
2 68 71
2 67 68
2 70 67
2 1 149
2 7 150
2 4 151
2 2 5
2 152 2
2 153 5
2 154 152
2 155 153
2 10 156
2 8 11
2 157 8
2 158 11
2 21 157
2 18 158
2 159 142
2 143 160
2 159 160
2 161 159
2 162 160
2 163 140
2 141 164
2 163 164
2 165 163
2 166 164
2 167 147
2 168 169
2 167 169
2 68 167
2 170 169
2 171 145
2 172 173
2 171 173
2 71 171
2 174 173
2 20 175
2 175 16
2 175 10
2 7 176
2 177 82
2 97 177
2 14 178
2 179 14
2 19 16
2 143 19
2 41 143
2 180 41
2 67 180
2 178 67
2 17 20
2 142 17
2 40 142
2 147 40
2 68 147
2 181 68
2 18 10
2 141 18
2 38 141
2 172 38
2 70 172
2 179 70
2 21 7
2 140 21
2 39 140
2 145 39
2 71 145
2 182 71
