ply
format ascii 1.0
element vertex 233
property float x
property float y
property float z
element edge 212
property list uchar int vertex_indices
end_header
3.721035564546337 3.8240822069216716 37.95116605250075
6.039658503471484 3.6771014885751074 38.649044386001016
3.721035564546337 2.5958854058408 37.95116605250075
6.039658503471484 2.742866124187364 38.649044386001016
8.39730001162362 3.5640596064723677 37.95116605250076
3.6820169953193487 3.790143370677847 39.346922719501265
3.6820169953193482 2.6298242420846245 39.34692271950127
8.39730001162362 2.855908006290104 37.95116605250076
3.721035564546336 3.8240822069216707 37.95116605250076
3.721035564546336 2.595885405840801 37.95116605250076
2.4791817866502197 3.8240822069216716 37.95116605250075
0.16055884772507234 3.6771014885751074 38.649044386001016
2.4791817866502197 2.5958854058408 37.95116605250075
0.16055884772507234 2.742866124187364 38.649044386001016
-2.1970826604270637 3.5640596064723677 37.95116605250076
2.518200355877208 3.790143370677847 39.346922719501265
2.5182003558772084 2.6298242420846245 39.34692271950127
-2.1970826604270637 2.855908006290104 37.95116605250076
2.4791817866502206 3.8240822069216707 37.95116605250076
2.4791817866502206 2.595885405840801 37.95116605250076
3.897955378438569 3.9779692589313393 31.622461165142294
6.639042756247421 3.803419647340368 32.40637929318367
3.897955378438569 2.4419983538311323 31.622461165142294
6.639042756247421 2.6165479654221038 32.40637929318367
9.423959211818094 3.6669931120780754 31.622461165142294
3.8541263006767474 3.9398461826026603 33.19029742122505
3.854126300676747 2.480121430159811 33.19029742122505
9.423959211818094 2.752974500684396 31.622461165142294
2.3022619727579876 3.9779692589313393 31.622461165142294
-0.4388254050508642 3.803419647340368 32.40637929318367
2.3022619727579876 2.4419983538311323 31.622461165142294
-0.4388254050508642 2.6165479654221038 32.40637929318367
-3.223741860621538 3.6669931120780754 31.622461165142294
2.346091050519809 3.9398461826026603 33.19029742122505
2.3460910505198096 2.480121430159811 33.19029742122505
-3.223741860621538 2.752974500684396 31.622461165142294
4.058849589176676 4.117917042230452 25.867017750160016
6.319589800245363 3.8706083608428603 26.62242452563668
4.058849589176676 2.3020505705320193 25.867017750160016
6.319589800245363 2.5493592519196113 26.62242452563668
4.016614588964477 2.3387870984047083 27.37783130111335
8.622565011526248 2.759931405434514 25.867017750160016
4.016614588964477 4.081180514357763 27.37783130111335
8.622565011526248 3.6600362073279578 25.867017750160016
2.1413677620198803 4.117917042230452 25.867017750160016
-0.11937244904880728 3.8706083608428603 26.62242452563668
2.1413677620198803 2.3020505705320193 25.867017750160016
-0.11937244904880728 2.5493592519196113 26.62242452563668
2.183602762232079 2.3387870984047083 27.37783130111335
-2.4223476603296934 2.759931405434514 25.867017750160016
2.183602762232079 4.081180514357763 27.37783130111335
-2.4223476603296934 3.6600362073279578 25.867017750160016
2.14136776201988 4.117917042230452 25.867017750160016
2.14136776201988 2.3020505705320193 25.867017750160016
3.1001086755982783 3.209983806381236 43.889684557152755
2.624965126670716 2.7226895660664185 43.16606943830891
3.5752522245258405 2.7226895660664185 43.16606943830891
3.5752522245258405 3.697278046696053 43.16606943830891
2.624965126670716 3.697278046696053 43.16606943830891
0.9098070038086536 5.371423436746138 6.43941179362347
0.6012793763505009 4.2985319092382035 4.255721808169658
0.9098070038086536 1.048544176016334 6.43941179362347
0.6012793763505009 2.121435703524268 4.255721808169658
5.290410347387903 5.371423436746138 6.43941179362347
5.598937974846056 4.2985319092382035 4.255721808169658
5.290410347387903 1.048544176016334 6.43941179362347
5.598937974846056 2.121435703524268 4.255721808169658
4.151396663644953 5.726998680239671 4.255721808169658
0.909807003808654 5.371423436746138 6.43941179362347
2.0488206875516037 5.726998680239671 4.255721808169658
4.151396663644953 0.6929689325228008 4.255721808169658
0.909807003808654 1.048544176016334 6.43941179362347
2.0488206875516037 0.6929689325228008 4.255721808169658
2.47918178665022 2.5958854058408005 37.95116605250076
2.4791817866502197 3.824082206921671 37.95116605250075
2.518200355877208 2.6298242420846245 39.346922719501265
2.556180789729462 3.757107517479789 40.70554362270416
2.556180789729462 2.6628600952826824 40.70554362270416
2.5182003558772084 3.790143370677847 39.34692271950127
3.6440365614670944 3.757107517479789 40.70554362270416
3.6440365614670944 2.6628600952826824 40.70554362270416
3.6820169953193482 3.790143370677847 39.34692271950127
3.6153673031871705 3.732170640467875 41.73108887397612
2.584850048009386 3.732170640467875 41.73108887397612
3.6153673031871705 2.6877969722945965 41.73108887397612
2.584850048009386 2.6877969722945965 41.73108887397612
2.3837406596685886 2.51286952792093 34.537084195329115
2.3460910505198096 3.9398461826026607 33.19029742122505
2.3837406596685886 3.9070980848415418 34.537084195329115
3.816476691527968 2.51286952792093 34.537084195329115
3.854126300676747 3.9398461826026607 33.19029742122505
3.816476691527968 3.9070980848415418 34.537084195329115
2.452691668149336 3.847123641082183 37.003572118644534
3.7210355645463364 3.824082206921671 37.95116605250076
3.7475256830472206 3.847123641082183 37.003572118644534
2.47918178665022 3.824082206921671 37.95116605250076
2.452691668149336 2.5728439716802884 37.003572118644534
3.7210355645463364 2.5958854058408005 37.95116605250076
3.7475256830472206 2.5728439716802884 37.003572118644534
3.8979553784385685 2.4419983538311323 31.62246116514229
3.854126300676747 3.9398461826026603 33.19029742122505
3.9723380807921185 2.377299355262929 28.96167285905362
4.016614588964478 4.081180514357763 27.377831301113353
3.9723380807921185 4.0426682574995425 28.96167285905362
4.016614588964478 2.3387870984047083 27.377831301113353
2.227879270404438 2.377299355262929 28.96167285905362
2.183602762232079 4.081180514357763 27.377831301113353
2.227879270404438 4.0426682574995425 28.96167285905362
2.183602762232079 2.3387870984047083 27.377831301113353
3.9342689382363374 4.009555244369123 30.32346701455205
2.302261972757987 3.9779692589313393 31.62246116514229
2.2659484129602183 4.009555244369123 30.32346701455205
3.8979553784385685 3.9779692589313393 31.62246116514229
3.9342689382363374 2.4104123683933487 30.32346701455205
2.302261972757987 2.4419983538311323 31.62246116514229
2.2659484129602183 2.4104123683933487 30.32346701455205
5.092428748930772 1.2287215134622267 8.054776575610402
4.894447150473641 3.209983806381236 9.670141357597334
4.7953854201921 1.515114727635161 11.163392572459484
4.6963236899105585 3.209983806381236 12.656643787321634
4.6054605576837595 1.7187557878735882 14.026309774360527
4.5145974254569605 3.209983806381236 15.39597576139942
4.437267100157557 1.899096021181898 16.561648941858053
4.359936774858154 3.2099838063812363 17.727322122316686
4.278921024652496 2.0688777036566126 18.948549200359256
4.225248748487096 3.209983806381236 19.7576022156924
4.1993214033704085 2.1537909146127623 20.709535661028482
4.17339405825372 3.209983806381236 21.661469106364564
4.14918554516837 2.206706334897713 22.550294906464266
4.12497703208302 3.209983806381236 23.439120706563973
4.102063555389474 2.256440796084458 24.28039869763277
4.079150078695929 3.209983806381236 25.12167668870157
1.1077886022657846 1.2287215134622267 8.054776575610402
1.3057702007229153 3.209983806381236 9.670141357597334
1.4048319310044566 1.515114727635161 11.163392572459484
1.5038936612859979 3.209983806381236 12.656643787321634
1.5947567935127969 1.7187557878735882 14.026309774360527
1.6856199257395958 3.209983806381236 15.39597576139942
1.7629502510389994 1.899096021181898 16.561648941858053
1.8402805763384027 3.2099838063812363 17.727322122316686
1.921296326544061 2.0688777036566126 18.948549200359256
1.9749686027094606 3.209983806381236 19.7576022156924
2.000895947826148 2.1537909146127623 20.709535661028482
2.026823292942836 3.209983806381236 21.661469106364564
2.0510318060281865 2.206706334897713 22.550294906464266
2.075240319113537 3.209983806381236 23.439120706563973
2.0981537958070824 2.256440796084458 24.28039869763277
2.1210672725006274 3.209983806381236 25.12167668870157
1.921296326544061 4.351089909105859 18.948549200359256
3.1001086755982787 4.43795654178365 17.727322122316686
1.1077886022657846 5.191246099300245 8.054776575610402
3.1001086755982783 5.371423436746138 6.43941179362347
3.1001086755982783 4.139343003078128 25.12167668870157
4.102063555389474 4.163526816678013 24.28039869763277
3.1001086755982783 4.187710630277898 23.439120706563973
4.14918554516837 4.213261277864758 22.550294906464266
3.1001086755982783 4.238811925451618 21.661469106364564
4.1993214033704085 4.266176698149709 20.709535661028482
3.1001086755982783 4.2935414708478 19.7576022156924
4.437267100157557 4.5208715915805735 16.561648941858053
3.1001086755982783 4.603786641377498 15.39597576139942
3.1001086755982783 4.798637008400269 12.656643787321634
1.5947567935127969 4.701211824888883 14.026309774360527
4.795385420192099 4.90485288512731 11.163392572459484
3.1001086755982787 1.982011070978822 17.727322122316686
3.1001086755982783 1.048544176016334 6.43941179362347
3.1001086755982783 2.280624609684343 25.12167668870157
3.1001086755982783 2.232256982484573 23.439120706563973
3.1001086755982783 2.1811556873108535 21.661469106364564
3.1001086755982783 2.1264261419146715 19.7576022156924
3.1001086755982783 1.816180971384974 15.39597576139942
3.1001086755982783 1.6213306043622024 12.656643787321634
4.795385420192099 1.515114727635161 11.163392572459484
0.2869983063245206 0.33076289956371774 2.031310234763552
0.2869983063245206 1.012588287300443 2.031310234763552
5.913219044872036 0.33076289956371774 2.031310234763552
5.222289136098113 0.33076289956371774 2.031310234763552
5.598937974846056 0.6929689325228008 4.255721808169658
0.6012793763505013 0.6929689325228008 4.255721808169658
0.6012793763505013 2.121435703524268 4.255721808169658
0.2869983063245206 6.089204713198754 2.031310234763552
0.2869983063245206 5.407379325462029 2.031310234763552
5.913219044872036 6.089204713198754 2.031310234763552
5.222289136098113 6.089204713198754 2.031310234763552
5.598937974846056 5.726998680239671 4.255721808169658
0.6012793763505013 5.726998680239671 4.255721808169658
0.6012793763505013 4.2985319092382035 4.255721808169658
0.9098070038086536 3.209983806381236 6.43941179362347
0.0 0.0 0.0
6.200217351196557 6.419967612762472 0.0
5.290410347387903 3.209983806381236 6.43941179362347
6.200217351196557 0.0 0.0
2.346091050519809 2.480121430159811 33.19029742122505
2.1210672725006274 4.139343003078128 25.12167668870157
2.1210672725006274 2.280624609684343 25.12167668870157
2.075240319113537 4.187710630277898 23.439120706563973
2.075240319113537 2.232256982484573 23.439120706563973
2.026823292942836 4.238811925451618 21.661469106364564
2.026823292942836 2.1811556873108535 21.661469106364564
1.9749686027094606 4.2935414708478 19.7576022156924
1.9749686027094606 2.1264261419146715 19.7576022156924
1.8402805763384027 4.437956541783651 17.727322122316686
1.8402805763384027 1.982011070978822 17.727322122316686
1.6856199257395958 4.603786641377498 15.39597576139942
1.6856199257395958 1.816180971384974 15.39597576139942
1.5038936612859979 4.798637008400269 12.656643787321634
1.5038936612859979 1.6213306043622024 12.656643787321634
1.3057702007229153 5.011068761854352 9.670141357597334
1.3057702007229153 1.4088988509081195 9.670141357597334
4.359936774858154 4.437956541783651 17.727322122316686
4.225248748487096 4.2935414708478 19.7576022156924
4.5145974254569605 4.603786641377498 15.39597576139942
4.6963236899105585 4.798637008400269 12.656643787321634
4.894447150473641 5.011068761854352 9.670141357597334
4.359936774858154 1.982011070978822 17.727322122316686
4.225248748487096 2.1264261419146715 19.7576022156924
4.5145974254569605 1.816180971384974 15.39597576139942
4.6963236899105585 1.6213306043622024 12.656643787321634
4.894447150473641 1.4088988509081195 9.670141357597334
4.079150078695929 4.139343003078128 25.12167668870157
4.124977032083019 4.187710630277898 23.439120706563973
4.17339405825372 4.238811925451618 21.661469106364564
4.079150078695929 2.280624609684343 25.12167668870157
4.124977032083019 2.232256982484573 23.439120706563973
4.17339405825372 2.1811556873108535 21.661469106364564
3.6820169953193482 3.790143370677847 39.346922719501265
3.7210355645463364 3.824082206921671 37.95116605250075
3.854126300676748 3.9398461826026603 33.19029742122505
3.8979553784385694 3.9779692589313393 31.622461165142294
4.016614588964478 4.081180514357763 27.377831301113346
3.6820169953193482 2.6298242420846245 39.346922719501265
3.7210355645463364 2.5958854058408 37.95116605250075
0.0 6.419967612762472 0.0
2 0 1
2 2 3
2 4 5
2 6 7
2 4 7
2 8 4
2 9 7
2 10 11
2 12 13
2 14 15
2 16 17
2 14 17
2 18 14
2 19 17
2 20 21
2 22 23
2 24 25
2 26 27
2 24 27
2 20 24
2 22 27
2 28 29
2 30 31
2 32 33
2 34 35
2 32 35
2 28 32
2 30 35
2 36 37
2 38 39
2 40 41
2 42 43
2 43 41
2 36 43
2 38 41
2 44 45
2 46 47
2 48 49
2 50 51
2 51 49
2 52 51
2 53 49
2 54 55
2 54 56
2 57 54
2 58 54
2 59 60
2 61 62
2 63 64
2 65 66
2 63 67
2 68 69
2 65 70
2 71 72
2 73 6
2 74 75
2 76 16
2 77 78
2 79 6
2 80 81
2 82 58
2 83 57
2 84 55
2 85 56
2 86 87
2 88 34
2 89 90
2 91 26
2 92 93
2 94 95
2 96 97
2 98 73
2 30 33
2 99 100
2 101 102
2 103 104
2 105 106
2 107 108
2 109 110
2 111 112
2 113 114
2 115 99
2 36 40
2 44 48
2 116 117
2 118 119
2 120 121
2 122 123
2 124 125
2 126 127
2 128 129
2 130 131
2 131 38
2 132 133
2 134 135
2 136 137
2 138 139
2 140 141
2 142 143
2 144 145
2 146 147
2 147 46
2 148 149
2 150 151
2 152 36
2 153 154
2 155 156
2 157 158
2 159 160
2 161 162
2 163 161
2 140 164
2 132 165
2 166 38
2 130 167
2 128 168
2 126 169
2 122 170
2 171 136
2 172 171
2 173 174
2 175 176
2 177 70
2 178 179
2 180 181
2 182 183
2 184 67
2 185 186
2 187 188
2 151 189
2 190 191
2 165 191
2 58 55
2 15 75
2 74 12
2 33 192
2 110 114
2 50 48
2 44 46
2 193 194
2 195 196
2 197 198
2 199 200
2 201 202
2 203 204
2 205 206
2 207 208
2 68 71
2 209 210
2 211 209
2 212 211
2 213 212
2 214 215
2 216 214
2 217 216
2 218 217
2 201 199
2 203 201
2 205 203
2 207 205
2 202 200
2 204 202
2 206 204
2 208 206
2 219 36
2 220 219
2 221 220
2 210 221
2 222 38
2 223 222
2 224 223
2 215 224
2 193 44
2 195 193
2 197 195
2 199 197
2 194 46
2 196 194
2 198 196
2 200 198
2 225 57
2 226 225
2 227 226
2 228 227
2 229 228
2 36 229
2 230 56
2 231 230
2 26 231
2 99 26
2 40 99
2 38 40
2 15 58
2 74 15
2 33 74
2 110 33
2 50 110
2 44 50
2 16 55
2 73 16
2 192 73
2 30 192
2 108 30
2 46 108
2 63 213
2 65 218
2 63 189
2 65 191
2 68 207
2 71 208
2 68 232
2 71 188
