ply
format ascii 1.0
element vertex 331
property float x
property float y
property float z
element edge 446
property list uchar int vertex_indices
end_header
4.136534966985714 7.036388451603264 41.02657090611356
4.136534966985714 4.104025507526242 41.02657090611356
7.068897911062734 7.036388451603264 41.02657090611356
7.068897911062734 4.104025507526242 41.02657090611356
3.6896757732002774 7.483247645388701 29.69799833359656
3.6896757732002774 3.657166313740801 29.69799833359656
7.515757104848174 7.483247645388701 29.69799833359656
7.515757104848174 3.657166313740801 29.69799833359656
9.725827545403455 5.570206979564752 9.479758378378671
5.602716439024224 9.693318085943982 9.479758378378671
5.602716439024224 1.4470958731855221 9.479758378378671
1.4796053326449936 5.570206979564752 9.479758378378671
7.5952758472201864 5.570206979564752 27.602404226305588
5.602716439024224 7.562766387760714 27.602404226305588
5.602716439024224 3.5776475713687894 27.602404226305588
3.6101570308282613 5.570206979564752 27.602404226305588
21.337683353883833 6.298261321404324 27.602404226305588
22.43159576879978 4.958792274528201 27.602404226305588
19.328318945002536 4.6572613460097685 27.602404226305588
17.715997079724502 6.631510109159105 27.602404226305588
15.887517748198489 4.340656664946853 27.602404226305588
13.859284367838377 6.986384810793178 27.602404226305588
11.70231031555705 3.955555582784842 27.602404226305588
9.348745481008727 7.401421206099309 27.602404226305588
7.595275847220188 3.5776475713687894 27.602404226305588
21.337683353883833 4.84215263772518 27.602404226305588
22.43159576879978 6.181621684601303 27.602404226305588
19.328318945002536 6.483152613119735 27.602404226305588
17.715997079724502 4.508903849970398 27.602404226305588
15.887517748198489 6.79975729418265 27.602404226305588
13.859284367838377 4.154029148336326 27.602404226305588
11.70231031555705 7.184858376344661 27.602404226305588
9.348745481008727 3.738992753030194 27.602404226305588
7.595275847220188 7.562766387760714 27.602404226305588
-10.132250475835383 6.298261321404324 27.602404226305588
-11.226162890751333 4.958792274528201 27.602404226305588
-8.122886066954088 4.6572613460097685 27.602404226305588
-6.510564201676052 6.631510109159105 27.602404226305588
-4.682084870150041 4.340656664946853 27.602404226305588
-2.653851489789928 6.986384810793178 27.602404226305588
-0.4968774375086018 3.955555582784842 27.602404226305588
1.8566873970397217 7.401421206099309 27.602404226305588
3.61015703082826 3.5776475713687894 27.602404226305588
-10.132250475835383 4.84215263772518 27.602404226305588
-11.226162890751333 6.181621684601303 27.602404226305588
-8.122886066954088 6.483152613119735 27.602404226305588
-6.510564201676052 4.508903849970398 27.602404226305588
-4.682084870150041 6.79975729418265 27.602404226305588
-2.653851489789928 4.154029148336326 27.602404226305588
-0.4968774375086018 7.184858376344661 27.602404226305588
1.8566873970397217 3.738992753030194 27.602404226305588
3.61015703082826 7.562766387760714 27.602404226305588
17.507719162587982 6.3698257748668965 38.89850558935802
18.764105381296858 4.861734563265756 38.89850558935802
16.03834795330064 4.663990497067622 38.89850558935802
14.84657231025896 6.562882572190475 38.89850558935802
13.195218308630437 4.457731491445526 38.89850558935802
11.554419287886224 6.8017166366248265 38.89850558935802
9.1793558047249 4.166394862346188 38.89850558935802
7.153497420843749 7.120987961384277 38.89850558935802
17.507719162587982 4.770588184262607 38.89850558935802
18.764105381296858 6.2786793958637475 38.89850558935802
16.03834795330064 6.476423462061882 38.89850558935802
14.84657231025896 4.577531386939029 38.89850558935802
13.195218308630437 6.682682467683978 38.89850558935802
11.554419287886224 4.338697322504677 38.89850558935802
9.1793558047249 6.974019096783316 38.89850558935802
7.153497420843749 4.019425997745227 38.89850558935802
-6.302286284539533 6.3698257748668965 38.89850558935802
-7.55867250324841 4.861734563265756 38.89850558935802
-4.832915075252192 4.663990497067622 38.89850558935802
-3.641139432210511 6.562882572190475 38.89850558935802
-1.9897854305819882 4.457731491445526 38.89850558935802
-0.3489864098377766 6.8017166366248265 38.89850558935802
2.02607707332355 4.166394862346188 38.89850558935802
4.051935457204699 7.120987961384277 38.89850558935802
-6.302286284539533 4.770588184262607 38.89850558935802
-7.55867250324841 6.2786793958637475 38.89850558935802
-4.832915075252192 6.476423462061882 38.89850558935802
-3.641139432210511 4.577531386939029 38.89850558935802
-1.9897854305819882 6.682682467683978 38.89850558935802
-0.3489864098377766 4.338697322504677 38.89850558935802
2.02607707332355 6.974019096783316 38.89850558935802
4.051935457204699 4.019425997745227 38.89850558935802
7.153497420843749 5.570206979564752 38.89850558935802
5.602716439024224 7.120987961384277 38.89850558935802
5.602716439024224 4.019425997745227 38.89850558935802
4.051935457204699 5.570206979564752 38.89850558935802
-9.391576983524963 5.977874572182553 42.834741785055634
-11.401652692731112 5.333457847924548 43.423288327304405
-7.567092818320649 5.007401934080622 42.30053611215453
-5.804872494623371 6.282855130087315 41.78456117974656
-3.975261791725158 4.701985462280295 41.24885446585499
-2.210665992813972 6.588473590581797 40.73218399858883
-0.16397155691524468 4.377908185842819 40.13291555921063
1.9254536287328392 6.940171388279785 39.52113563337573
-9.391576983524963 5.162539386946951 42.834741785055634
-11.401652692731112 5.806956111204956 43.423288327304405
-7.567092818320649 6.133012025048881 42.30053611215453
-5.804872494623371 4.857558829042189 41.78456117974656
-3.975261791725158 6.438428496849209 41.24885446585499
-2.210665992813972 4.551940368547706 40.73218399858883
-0.16397155691524468 6.7625057732866845 40.13291555921063
1.9254536287328392 4.200242570849719 39.52113563337573
4.212381679369491 6.960541739219499 42.934463261892546
4.212381679369491 4.1798722199100045 42.934463261892546
20.59700986157341 5.977874572182553 42.834741785055634
22.60708557077956 5.333457847924548 43.423288327304405
18.772525696369097 5.007401934080622 42.30053611215453
17.01030537267182 6.282855130087315 41.78456117974656
15.180694669773606 4.701985462280295 41.24885446585499
13.41609887086242 6.588473590581797 40.73218399858883
11.369404434963693 4.377908185842819 40.13291555921063
9.279979249315609 6.940171388279785 39.52113563337573
20.59700986157341 5.162539386946951 42.834741785055634
22.60708557077956 5.806956111204956 43.423288327304405
18.772525696369097 6.133012025048881 42.30053611215453
17.01030537267182 4.857558829042189 41.78456117974656
15.180694669773606 6.438428496849209 41.24885446585499
13.41609887086242 4.551940368547706 40.73218399858883
11.369404434963693 6.7625057732866845 40.13291555921063
9.279979249315609 4.200242570849719 39.52113563337573
6.993051198678957 6.960541739219499 42.934463261892546
6.993051198678957 4.1798722199100045 42.934463261892546
3.918757864217822 7.254165554371155 35.548478888991
5.602716439024224 7.18407581781274 37.31155692356333
5.602716439024224 7.328975340085295 33.66666999028391
7.286675013830626 7.254165554371155 35.548478888991
4.411131627866078 6.7617917907229 45.19044480518943
4.411131627866078 4.378622168406604 45.19044480518943
6.79430125018237 6.7617917907229 45.19044480518943
6.79430125018237 4.378622168406604 45.19044480518943
3.918757864217822 3.8862484047583488 35.548478888991
5.602716439024224 3.9563381413167638 37.31155692356333
5.602716439024224 3.8114386190442087 33.66666999028391
7.286675013830626 3.8862484047583488 35.548478888991
7.792284000320513 5.570206979564752 25.926636869505096
7.5952758472201864 3.5776475713687894 27.602404226305588
7.5952758472201864 7.562766387760714 27.602404226305588
5.602716439024224 7.759774540861039 25.926636869505096
3.6101570308282613 7.562766387760714 27.602404226305588
3.4131488777279353 5.570206979564752 25.926636869505096
3.6101570308282613 3.5776475713687894 27.602404226305588
3.988847600776236 7.18407581781274 37.31155692356333
3.988847600776236 3.9563381413167638 37.31155692356333
7.2165852772722126 7.18407581781274 37.31155692356333
7.2165852772722126 3.9563381413167638 37.31155692356333
3.843948078503682 7.328975340085296 33.66666999028391
3.843948078503682 3.8114386190442087 33.66666999028391
7.361484799544766 7.328975340085296 33.66666999028391
7.361484799544766 3.8114386190442087 33.66666999028391
2.585555109836662 8.587368308752316 18.887057039438517
5.602716439024224 8.273078827765294 21.560428900122933
5.602716439024224 8.901446161332064 16.215485307180774
8.619877768211786 8.587368308752316 18.887057039438517
3.1745714948611923 7.998351923727785 23.89727826689241
8.030861383187256 7.998351923727785 23.89727826689241
9.31131587948773 9.278806420028255 13.00562828692417
1.8941169985607194 9.278806420028255 13.00562828692417
2.585555109836662 2.5530456503771877 18.887057039438517
5.602716439024224 2.8673351313642095 21.560428900122933
5.602716439024224 2.2389677977974403 16.215485307180774
8.619877768211786 2.5530456503771877 18.887057039438517
3.1745714948611923 3.1420620354017186 23.89727826689241
5.602716439024224 3.3806394182684647 25.926636869505096
8.030861383187256 3.1420620354017186 23.89727826689241
9.31131587948773 1.8616075391012477 13.00562828692417
1.8941169985607194 1.8616075391012477 13.00562828692417
3.4131488777279353 7.75977454086104 25.926636869505096
3.4131488777279353 3.3806394182684647 25.926636869505096
7.792284000320513 7.75977454086104 25.926636869505096
7.792284000320513 3.3806394182684647 25.926636869505096
2.8998445908236796 8.273078827765294 21.560428900122933
2.8998445908236796 2.8673351313642095 21.560428900122933
8.305588287224769 8.273078827765294 21.560428900122933
8.305588287224769 2.8673351313642095 21.560428900122933
1.4796053326449938 1.4470958731855221 9.479758378378671
0.03250945945947237 0.0 0.0
9.725827545403455 1.4470958731855221 9.479758378378671
11.172923418588976 0.0 0.0
1.4796053326449938 9.693318085943982 9.479758378378671
0.03250945945947237 11.140413959129505 0.0
3.7630912415363196 7.409832177052656 31.632750044196747
4.212381679369491 6.960541739219484 42.934463261892546
9.725827545403455 9.693318085943982 9.479758378378671
11.172923418588976 11.140413959129505 0.0
7.442341636512128 7.409832177052656 31.632750044196747
6.993051198678955 6.960541739219484 42.934463261892546
2.271477257256914 8.901446161332064 16.215485307180774
2.271477257256914 2.2389677977974403 16.215485307180774
8.933955620791535 8.901446161332064 16.215485307180774
8.933955620791535 2.2389677977974403 16.215485307180774
5.23015132074866 5.942772097840315 54.04704231516793
5.23015132074866 5.197641861289188 54.04704231516793
5.975281557299787 5.942772097840315 54.04704231516793
5.975281557299787 5.197641861289188 54.04704231516793
4.691562125837378 6.481361292751597 48.37357029722789
4.691562125837378 4.659052666377907 48.37357029722789
6.5138707522110675 6.481361292751597 48.37357029722789
6.5138707522110675 4.659052666377907 48.37357029722789
3.7630912415363182 3.730581782076847 31.632750044196747
4.212381679369491 4.17987221991002 42.934463261892546
3.7630912415363196 3.730581782076847 31.632750044196747
7.442341636512128 3.730581782076847 31.632750044196747
6.993051198678955 4.17987221991002 42.934463261892546
1.4796053326449938 5.570206979564752 9.479758378378671
7.153497420843749 5.570206979564751 38.89850558935802
-6.58537794800473 6.278794679332721 40.551806438974374
-6.58537794800473 6.216488082186791 42.01309176876369
-8.92195595856888 6.086180172028318 41.09366853342432
-6.58537794800473 6.349288475375227 38.89850558935802
4.119105613565698 7.053817805023279 40.58814280407582
-6.58537794800473 4.861619279796782 40.551806438974374
-6.58537794800473 4.923925876942713 42.01309176876369
-8.92195595856888 5.054233787101185 41.09366853342432
-6.58537794800473 4.791125483754277 38.89850558935802
4.119105613565698 4.086596154106225 40.58814280407582
17.79081082605318 6.278794679332721 40.551806438974374
17.79081082605318 6.216488082186791 42.01309176876369
20.127388836617328 6.086180172028318 41.09366853342432
17.79081082605318 6.349288475375227 38.89850558935802
7.08632726448275 7.053817805023279 40.58814280407582
17.79081082605318 4.861619279796782 40.551806438974374
17.79081082605318 4.923925876942713 42.01309176876369
20.127388836617328 5.054233787101185 41.09366853342432
17.79081082605318 4.791125483754277 38.89850558935802
7.08632726448275 4.086596154106225 40.58814280407582
14.3262871211654 4.2579604490711125 29.07354765451465
7.539452310184531 3.6334711084045104 29.07354765451465
11.034343455249159 7.246321222545951 27.602404226305588
7.442341636512128 7.409832177052657 31.632750044196747
11.022745238486525 7.120273944964078 30.67004272359055
11.034343455249159 3.894092736583553 27.602404226305588
11.022745238486525 4.020140014165426 30.67004272359055
22.43159576879978 6.197605174354352 27.602404226305588
22.43159576879978 4.942808784775152 27.602404226305588
0.17108942279928963 7.246321222545951 27.602404226305588
3.76309124153632 7.409832177052657 31.632750044196747
0.18268763956192213 7.120273944964078 30.67004272359055
0.17108942279928963 3.894092736583553 27.602404226305588
3.76309124153632 3.730581782076847 31.632750044196747
0.18268763956192213 4.020140014165426 30.67004272359055
-11.226162890751333 6.197605174354352 27.602404226305588
-11.226162890751333 4.942808784775152 27.602404226305588
14.3262871211654 6.882453510058391 29.07354765451465
7.539452310184531 7.506942850724993 29.07354765451465
14.323606695993698 6.853323144367732 29.782499350632094
14.331849262983738 6.942901840010676 27.602404226305588
14.323606695993698 6.8533231443677325 29.782499350632094
14.331849262983738 4.197512119118827 27.602404226305588
14.323606695993698 4.287090814761771 29.782499350632094
-3.120854243116952 6.882453510058391 29.07354765451465
3.665980567863917 7.506942850724993 29.07354765451465
-3.11817381794525 6.853323144367732 29.782499350632094
-3.126416384935289 6.942901840010676 27.602404226305588
-3.11817381794525 6.8533231443677325 29.782499350632094
-3.126416384935289 4.197512119118827 27.602404226305588
-3.120854243116952 4.2579604490711125 29.07354765451465
3.665980567863917 3.6334711084045104 29.07354765451465
-3.11817381794525 4.287090814761771 29.782499350632094
6.056343244174992 6.02383378471552 53.19314250329136
5.602716439024223 5.942772097840314 54.04704231516793
4.9920994663651586 6.180823952223815 51.53941582094164
6.398962949767765 6.366453490308292 49.58400342133179
5.602716439024223 6.481361292751595 48.37357029722789
5.149089633873454 6.02383378471552 53.19314250329136
6.213333411683288 6.180823952223815 51.53941582094164
4.8064699282806815 6.366453490308292 49.58400342133179
5.149089633873454 5.116580174413984 53.19314250329136
5.602716439024223 5.197641861289189 54.04704231516793
6.213333411683288 4.959590006905689 51.53941582094164
4.8064699282806815 4.773960468821212 49.58400342133179
5.602716439024223 4.659052666377908 48.37357029722789
6.056343244174992 5.116580174413984 53.19314250329136
4.9920994663651586 4.959590006905689 51.53941582094164
6.398962949767765 4.773960468821212 49.58400342133179
6.056343244174992 5.116580174413983 53.19314250329136
5.975281557299787 5.570206979564752 54.04704231516793
6.213333411683287 6.180823952223816 51.53941582094164
6.398962949767764 4.77396046882121 49.58400342133179
6.5138707522110675 5.570206979564752 48.37357029722789
6.056343244174992 6.023833784715521 53.19314250329136
6.213333411683287 4.959590006905687 51.53941582094164
6.398962949767764 6.366453490308293 49.58400342133179
5.149089633873452 5.116580174413983 53.19314250329136
5.230151320748658 5.570206979564752 54.04704231516793
4.992099466365158 6.180823952223816 51.53941582094164
4.806469928280681 4.77396046882121 49.58400342133179
4.691562125837377 5.570206979564752 48.37357029722789
5.149089633873452 6.023833784715521 53.19314250329136
4.992099466365158 4.959590006905687 51.53941582094164
4.806469928280681 6.366453490308293 49.58400342133179
5.602716439024224 4.378622168406604 45.19044480518943
5.602716439024224 6.761791790722899 45.19044480518943
5.602716439024221 4.378622168406604 45.19044480518943
6.645267395264395 4.527656023324578 46.88210625498907
4.56016548278405 4.527656023324578 46.88210625498907
5.602716439024221 6.761791790722899 45.19044480518943
6.645267395264395 6.612757935804925 46.88210625498907
4.56016548278405 6.612757935804925 46.88210625498907
5.602716439024222 6.481361292751597 48.37357029722789
5.602716439024222 4.659052666377907 48.37357029722789
4.56016548278405 6.6127579358049235 46.88210625498907
4.411131627866075 5.570206979564752 45.19044480518943
6.645267395264395 6.6127579358049235 46.88210625498907
6.79430125018237 5.570206979564752 45.19044480518943
4.411131627866078 5.570206979564752 45.19044480518943
4.212381679369493 6.960541739219484 42.934463261892546
4.212381679369493 4.17987221991002 42.934463261892546
3.843948078503682 5.570206979564752 33.66666999028391
7.361484799544766 5.570206979564752 33.66666999028391
3.7630912415363182 7.409832177052657 31.632750044196747
3.9888476007762357 5.570206979564752 37.31155692356333
7.2165852772722126 5.570206979564752 37.31155692356333
3.988847600776236 5.570206979564752 37.31155692356333
4.051935457204665 7.12098796138426 38.89850558935802
6.993051198678924 6.960541739219499 42.934463261892546
7.153497420843749 4.019425997745244 38.89850558935802
7.442341636512129 7.409832177052656 31.632750044196747
3.610157030828262 7.562766387760714 27.602404226305588
0.03250945945947237 11.140413959129503 0.0
11.172923418588976 11.140413959129503 0.0
3.1745714948611905 7.998351923727784 23.897278266892414
2.8998445908236796 5.570206979564752 21.560428900122933
2.2714772572569135 5.570206979564752 16.215485307180774
1.894116998560719 9.278806420028255 13.00562828692417
1.894116998560719 1.8616075391012477 13.00562828692417
8.030861383187258 7.998351923727784 23.897278266892414
8.305588287224769 5.570206979564752 21.560428900122933
8.933955620791535 5.570206979564752 16.215485307180774
5.602716439024223 5.570206979564752 54.918080250042
2 0 1
2 2 0
2 3 2
2 1 3
2 4 5
2 6 4
2 7 6
2 5 7
2 8 9
2 10 8
2 11 10
2 9 11
2 12 13
2 14 12
2 15 14
2 13 15
2 16 17
2 18 16
2 19 18
2 20 19
2 21 20
2 22 21
2 23 22
2 24 23
2 25 26
2 27 25
2 28 27
2 29 28
2 30 29
2 31 30
2 32 31
2 33 32
2 34 35
2 36 34
2 37 36
2 38 37
2 39 38
2 40 39
2 41 40
2 42 41
2 43 44
2 45 43
2 46 45
2 47 46
2 48 47
2 49 48
2 50 49
2 51 50
2 52 53
2 54 52
2 55 54
2 56 55
2 57 56
2 58 57
2 59 58
2 60 61
2 62 60
2 63 62
2 64 63
2 65 64
2 66 65
2 67 66
2 68 69
2 70 68
2 71 70
2 72 71
2 73 72
2 74 73
2 75 74
2 76 77
2 78 76
2 79 78
2 80 79
2 81 80
2 82 81
2 83 82
2 84 85
2 86 84
2 87 86
2 85 87
2 88 89
2 90 88
2 91 90
2 92 91
2 93 92
2 94 93
2 95 94
2 83 95
2 96 97
2 98 96
2 99 98
2 100 99
2 101 100
2 102 101
2 103 102
2 75 103
2 77 104
2 75 77
2 69 105
2 83 69
2 106 107
2 108 106
2 109 108
2 110 109
2 111 110
2 112 111
2 113 112
2 67 113
2 114 115
2 116 114
2 117 116
2 118 117
2 119 118
2 120 119
2 121 120
2 59 121
2 61 122
2 59 61
2 53 123
2 67 53
2 124 125
2 126 124
2 127 125
2 126 127
2 128 129
2 130 128
2 131 130
2 129 131
2 75 83
2 59 75
2 67 59
2 83 67
2 132 133
2 134 132
2 135 133
2 134 135
2 136 137
2 138 136
2 139 138
2 140 139
2 141 140
2 142 141
2 143 144
2 145 143
2 146 145
2 144 146
2 147 148
2 149 147
2 150 149
2 148 150
2 151 152
2 153 151
2 154 152
2 153 154
2 155 139
2 152 155
2 156 139
2 152 156
2 157 153
2 9 157
2 158 153
2 9 158
2 159 160
2 161 159
2 162 160
2 161 162
2 163 164
2 160 163
2 165 164
2 160 165
2 166 161
2 10 166
2 167 161
2 10 167
2 168 169
2 170 168
2 171 170
2 169 171
2 172 173
2 174 172
2 175 174
2 173 175
2 176 142
2 177 176
2 178 179
2 137 178
2 180 181
2 140 180
2 182 140
2 183 182
2 184 185
2 138 184
2 186 138
2 187 186
2 188 189
2 190 188
2 191 190
2 189 191
2 192 193
2 194 192
2 195 194
2 193 195
2 196 197
2 198 196
2 199 198
2 197 199
2 200 201
2 42 200
2 180 176
2 184 180
2 178 184
2 176 178
2 140 142
2 138 140
2 137 138
2 142 137
2 182 202
2 186 182
2 203 186
2 202 203
2 183 201
2 187 183
2 204 187
2 201 204
2 203 204
2 137 203
2 97 89
2 8 205
2 9 10
2 15 12
2 25 16
2 29 20
2 30 21
2 23 32
2 43 34
2 47 38
2 48 39
2 41 50
2 87 206
2 77 69
2 93 207
2 208 209
2 210 208
2 93 211
2 97 210
2 75 97
2 101 212
2 213 214
2 215 213
2 101 216
2 89 215
2 83 89
2 61 53
2 115 107
2 111 217
2 218 219
2 220 218
2 111 221
2 115 220
2 59 115
2 119 222
2 223 224
2 225 223
2 119 226
2 107 225
2 67 107
2 227 228
2 229 230
2 231 229
2 232 203
2 233 232
2 234 230
2 33 234
2 235 203
2 24 235
2 236 237
2 238 236
2 239 240
2 241 239
2 242 237
2 51 242
2 243 240
2 42 243
2 244 245
2 19 246
2 231 247
2 248 247
2 249 233
2 250 249
2 250 28
2 246 250
2 231 233
2 234 235
2 251 252
2 37 253
2 238 254
2 255 254
2 256 241
2 257 258
2 259 256
2 259 46
2 253 259
2 238 241
2 242 243
2 260 261
2 262 260
2 263 262
2 264 263
2 265 261
2 266 265
2 267 266
2 264 267
2 268 269
2 270 268
2 271 270
2 272 271
2 273 269
2 274 273
2 275 274
2 272 275
2 276 277
2 278 276
2 279 278
2 280 279
2 281 277
2 282 281
2 283 282
2 280 283
2 284 285
2 286 284
2 287 286
2 288 287
2 289 285
2 290 289
2 291 290
2 288 291
2 105 292
2 292 204
2 104 293
2 293 187
2 294 295
2 296 294
2 297 298
2 299 297
2 300 299
2 298 300
2 301 296
2 295 301
2 302 303
2 288 302
2 296 288
2 303 296
2 304 305
2 280 304
2 295 280
2 305 295
2 306 307
2 308 306
2 305 187
2 204 305
2 309 237
2 240 309
2 310 230
2 203 310
2 126 230
2 311 126
2 124 312
2 309 124
2 132 309
2 312 132
2 127 313
2 310 127
2 135 310
2 313 135
2 314 83
2 75 314
2 125 315
2 59 125
2 313 59
2 67 313
2 133 67
2 83 133
2 316 317
2 315 316
2 105 315
2 317 105
2 183 83
2 59 183
2 204 59
2 83 204
2 134 203
2 200 134
2 318 24
2 319 318
2 240 319
2 24 240
2 182 42
2 138 182
2 203 138
2 42 203
2 164 137
2 164 142
2 11 320
2 177 11
2 8 321
2 179 8
2 9 321
2 320 9
2 322 323
2 141 322
2 163 141
2 323 163
2 151 324
2 323 151
2 159 323
2 324 159
2 325 11
2 324 325
2 326 324
2 11 326
2 327 328
2 136 327
2 165 136
2 328 165
2 154 329
2 328 154
2 162 328
2 329 162
2 157 8
2 329 157
2 166 329
2 8 166
2 10 179
2 177 10
2 330 195
2 194 330
2 330 193
2 192 330
2 193 197
2 195 199
2 194 198
2 196 192
2 196 183
2 198 187
2 204 199
2 201 197
