ply
format ascii 1.0
element vertex 634
property float x
property float y
property float z
element edge 809
property list uchar int vertex_indices
end_header
31.977530136941652 7.3541375060134495 57.209138150955255
18.979417741064115 7.558673016304689 52.06840938422898
20.834145176569535 7.638834149781168 50.05366561553501
31.977530136941652 5.7267350018871035 57.209138150955255
18.979417741064115 5.522199491595864 52.06840938422898
20.834145176569535 5.442038358119385 50.05366561553501
-5.663478846486565 7.3541375060134495 57.209138150955255
7.334633549390971 7.558673016304689 52.06840938422898
5.479906113885553 7.638834149781168 50.05366561553501
-5.663478846486565 5.7267350018871035 57.209138150955255
7.334633549390971 5.522199491595864 52.06840938422898
5.479906113885553 5.442038358119385 50.05366561553501
8.942550559816068 7.63883414978117 50.05366561553501
7.334633549390971 7.558673016304692 52.06840938422898
10.710586771911043 7.558673016304691 52.06840938422898
12.47862298400602 7.63883414978117 50.05366561553501
13.157025645227545 7.558673016304691 52.06840938422898
13.835428306449067 7.63883414978117 50.05366561553501
15.603464518544047 7.55867301630469 52.06840938422898
17.371500730639017 7.638834149781169 50.053665615535
18.979417741064115 7.55867301630469 52.06840938422897
16.587711289282456 5.522199491595865 52.06840938422898
18.979417741064115 7.55867301630469 52.06840938422898
14.326001936683307 7.55867301630469 52.06840938422898
12.00161582805886 5.522199491595864 52.06840938422898
9.609107590461987 7.55867301630469 52.06840938422898
8.942550559816066 5.442038358119385 50.05366561553501
10.710586771911041 5.522199491595864 52.06840938422898
12.478622984006018 5.442038358119385 50.05366561553501
13.157025645227543 5.522199491595864 52.06840938422898
13.835428306449066 5.442038358119385 50.05366561553501
15.603464518544046 5.522199491595864 52.06840938422898
17.371500730639017 5.442038358119385 50.053665615535
18.979417741064115 5.522199491595864 52.06840938422897
9.009736276189757 8.089740525586361 38.720731916631436
7.738024567192524 8.009579392109885 40.735475685325405
10.72696685000614 8.009579392109883 40.735475685325405
12.576292083346859 8.089740525586361 38.720731916631436
13.157025645227545 8.009579392109883 40.735475685325405
13.737759207108228 8.089740525586361 38.720731916631436
15.587084440448951 8.009579392109881 40.735475685325405
17.304315014265327 8.089740525586361 38.72073191663143
18.576026723262565 8.009579392109881 40.7354756853254
16.445825263310407 5.071293115790672 40.735475685325405
18.57602672326256 8.009579392109883 40.735475685325405
14.213828783911522 8.009579392109883 40.735475685325405
11.998762421341636 5.071293115790672 40.735475685325405
9.898532226408399 8.009579392109883 40.735475685325405
7.738024567192526 5.071293115790672 40.735475685325405
9.009736276189756 4.991131982314194 38.720731916631436
7.738024567192524 5.071293115790672 40.735475685325405
10.726966850006137 5.071293115790672 40.735475685325405
12.576292083346857 4.991131982314194 38.720731916631436
13.157025645227543 5.071293115790672 40.735475685325405
13.737759207108226 4.991131982314194 38.720731916631436
15.58708444044895 5.071293115790672 40.735475685325405
17.304315014265327 4.991131982314194 38.72073191663143
18.576026723262565 5.071293115790672 40.7354756853254
8.948339510767338 8.53778400376739 27.45975335232408
8.141415584994078 8.46048576791507 29.402541986421838
10.716375722862313 8.46048576791507 29.402541986421838
12.657986898498692 8.53778400376739 27.45975335232408
13.157025645227543 8.46048576791507 29.402541986421838
13.656064391956399 8.53778400376739 27.45975335232408
15.597675567592773 8.46048576791507 29.40254198642184
17.36571177968775 8.53778400376739 27.459753352324086
18.17263570546101 8.46048576791507 29.40254198642185
8.948339510767338 4.543088504133163 27.45975335232408
8.141415584994078 4.620386739985482 29.402541986421838
10.716375722862313 4.620386739985482 29.402541986421838
12.657986898498692 4.543088504133163 27.45975335232408
13.157025645227543 4.620386739985482 29.402541986421838
13.656064391956399 4.543088504133163 27.45975335232408
15.597675567592773 4.620386739985482 29.40254198642184
17.36571177968775 4.543088504133163 27.459753352324086
18.17263570546101 4.620386739985482 29.40254198642185
15.59767556759277 8.460485767915074 29.402541986421838
18.17263570546101 4.620386739985482 29.402541986421838
10.716375722862313 8.460485767915074 29.402541986421838
19.870924479456686 1.3049998658134518 6.921256135527115
25.056300610429414 6.540436253950277 6.921256135527115
14.685548348483959 6.540436253950277 6.921256135527115
19.870924479456686 11.775872642087103 6.921256135527115
6.4431268109984 1.3049998658134518 6.921256135527115
1.2577506800256728 6.540436253950277 6.921256135527115
11.628502941971128 6.540436253950277 6.921256135527115
6.4431268109984 11.775872642087103 6.921256135527115
18.907703782343837 7.63883414978117 50.05366561553501
20.762431217849258 7.55867301630469 52.06840938422898
20.834145176569535 7.63883414978117 50.05366561553501
20.762431217849258 5.522199491595863 52.06840938422898
18.907703782343837 5.442038358119385 50.05366561553501
18.611011876335937 5.110399163975082 41.7183543383687
18.57602672326256 6.540436253950277 40.735475685325405
18.674546266382276 7.899455249097983 43.50329995743468
18.74314819105511 5.258099792281058 45.43061372899931
18.80950661446034 7.748597945033705 47.294898206412284
18.87372489208572 5.404057100272668 49.099057075770716
18.907703782343837 6.540436253950277 50.05366561553501
18.611011876335937 7.970473343925473 41.7183543383687
18.674546266382276 5.181417258802572 43.50329995743468
18.74314819105511 7.822772715619497 45.43061372899931
18.80950661446034 5.33227456286685 47.294898206412284
18.87372489208572 7.6768154076278865 49.099057075770716
21.130837082577433 5.110399163975082 41.7183543383687
21.165822235650808 6.540436253950277 40.735475685325405
21.067302692531094 7.899455249097983 43.50329995743468
20.99870076785826 5.258099792281058 45.43061372899931
20.93234234445303 7.748597945033705 47.294898206412284
20.86812406682765 5.404057100272668 49.099057075770716
20.834145176569535 6.540436253950277 50.05366561553501
21.130837082577433 7.970473343925473 41.7183543383687
21.067302692531094 5.181417258802572 43.50329995743468
20.99870076785826 7.822772715619497 45.43061372899931
20.93234234445303 5.33227456286685 47.294898206412284
20.86812406682765 7.6768154076278865 49.099057075770716
18.83726104048674 7.717574329980696 48.0746356227844
20.961628336762548 7.781333529296614 46.47213271460939
18.703466944175894 7.867128009684425 44.31580224305486
21.097692634316548 7.933424816854076 42.64951992721717
20.904587918426632 7.717574329980696 48.0746356227844
18.78022062215082 7.781333529296614 46.47213271460939
21.03838201473748 7.867128009684425 44.31580224305486
18.64415632459682 7.933424816854076 42.64951992721717
21.165822235650808 8.009579392109883 40.735475685325405
18.83726104048674 5.363298177919859 48.0746356227844
20.961628336762548 5.299538978603941 46.47213271460939
18.703466944175894 5.21374449821613 44.31580224305486
21.097692634316548 5.147447691046478 42.64951992721717
18.57602672326256 5.071293115790672 40.735475685325405
20.904587918426632 5.363298177919859 48.0746356227844
18.78022062215082 5.299538978603941 46.47213271460939
21.03838201473748 5.21374449821613 44.31580224305486
18.64415632459682 5.147447691046478 42.64951992721717
21.165822235650808 5.071293115790672 40.735475685325405
18.504312764542284 8.089740525586361 38.720731916631436
21.237536194371085 4.991131982314194 38.720731916631436
21.237536194371085 8.089740525586361 38.720731916631436
18.504312764542284 4.991131982314194 38.720731916631436
18.20911776587686 4.6611660159685435 30.427475000908665
18.17263570546101 6.540436253950278 29.402541986421838
18.276793359656956 8.344059401701413 32.32876427979154
18.34301250153806 4.810832189314242 34.18913575912383
18.408084350614274 8.197303667696545 36.01727500541864
18.472210367883136 4.955248249921919 37.81884189712429
18.504312764542284 6.540436253950277 38.720731916631436
18.20911776587686 8.419706491932011 30.427475000908665
18.17263570546101 6.5404362539502765 29.402541986421838
18.276793359656956 4.736813106199142 32.32876427979154
18.34301250153806 8.270040318586313 34.18913575912383
18.408084350614274 4.88356884020401 36.01727500541864
18.472210367883136 8.125624257978636 37.81884189712429
21.532731193036508 4.6611660159685435 30.427475000908665
21.56921325345236 6.540436253950278 29.402541986421838
21.465055599256413 8.344059401701413 32.32876427979154
21.39883645737531 4.810832189314242 34.18913575912383
21.33376460829909 8.197303667696545 36.01727500541864
21.269638591030237 4.955248249921919 37.81884189712429
21.237536194371085 6.540436253950277 38.720731916631436
21.532731193036508 8.419706491932011 30.427475000908665
21.56921325345236 6.5404362539502765 29.402541986421838
21.465055599256413 4.736813106199142 32.32876427979154
21.39883645737531 8.270040318586313 34.18913575912383
21.33376460829909 4.88356884020401 36.01727500541864
21.269638591030237 8.125624257978636 37.81884189712429
18.438563487634152 8.16323439841484 36.873560901243884
21.365569074968246 8.232854376976988 35.123755080124184
18.308230494813202 8.308919291849055 33.211964333057196
21.49778356092183 8.380642384293512 31.409299533958066
18.17263570546101 8.460485767915074 29.402541986421838
21.303285471279217 8.16323439841484 36.873560901243884
18.376279883945124 8.232854376976988 35.123755080124184
21.433618464100167 8.308919291849055 33.211964333057196
18.24406539799154 8.380642384293512 31.409299533958066
21.56921325345236 8.460485767915074 29.402541986421838
18.438563487634152 4.917638109485715 36.873560901243884
21.365569074968246 4.848018130923568 35.123755080124184
18.308230494813202 4.7719532160515 33.211964333057196
21.49778356092183 4.700230123607042 31.409299533958066
21.303285471279217 4.917638109485715 36.873560901243884
18.376279883945124 4.848018130923568 35.123755080124184
21.433618464100167 4.7719532160515 33.211964333057196
18.24406539799154 4.700230123607042 31.409299533958066
21.56921325345236 4.620386739985482 29.402541986421838
21.6383659993612 8.53778400376739 27.45975335232408
18.17263570546101 8.460485767915072 29.402541986421838
18.103482959552174 4.543088504133163 27.45975335232408
18.103482959552174 8.53778400376739 27.45975335232408
21.56921325345236 8.460485767915072 29.402541986421838
21.638365999361202 4.543088504133163 27.45975335232408
21.677306492271754 8.581311290582196 26.36575273038902
21.762642898527687 4.404173050574311 23.9682976767988
21.6383659993612 6.5404362539502765 27.45975335232408
21.677306492271754 4.499561217318356 26.36575273038902
21.762642898527687 8.676699457326242 23.9682976767988
18.023847433855842 8.626799784219743 25.22245977619925
21.638365999361202 8.53778400376739 27.45975335232408
19.87092447945669 8.67669945732624 23.9682976767988
21.71800152505753 8.626799784219743 25.22245977619925
19.870924479456686 8.67669945732624 23.9682976767988
18.06454246664162 8.581311290582196 26.36575273038902
17.979206060385685 4.404173050574311 23.9682976767988
18.103482959552174 6.5404362539502765 27.45975335232408
18.06454246664162 4.499561217318356 26.36575273038902
17.979206060385685 8.676699457326242 23.9682976767988
18.023847433855842 4.4540727236808095 25.22245977619925
19.87092447945669 4.404173050574313 23.9682976767988
21.71800152505753 4.4540727236808095 25.22245977619925
19.870924479456686 4.404173050574313 23.9682976767988
21.6383659993612 4.543088504133163 27.45975335232408
7.406347508111249 7.63883414978117 50.05366561553501
5.55162007260583 7.55867301630469 52.06840938422898
5.479906113885553 7.63883414978117 50.05366561553501
5.55162007260583 5.522199491595863 52.06840938422898
7.334633549390971 7.55867301630469 52.06840938422898
7.406347508111249 5.442038358119385 50.05366561553501
7.703039414119149 5.110399163975082 41.7183543383687
7.738024567192525 6.540436253950277 40.735475685325405
7.63950502407281 7.899455249097983 43.50329995743468
7.570903099399977 5.258099792281058 45.43061372899931
7.5045446759947465 7.748597945033705 47.294898206412284
7.4403263983693675 5.404057100272668 49.099057075770716
7.406347508111249 6.540436253950277 50.05366561553501
7.703039414119149 7.970473343925473 41.7183543383687
7.63950502407281 5.181417258802572 43.50329995743468
7.570903099399977 7.822772715619497 45.43061372899931
7.5045446759947465 5.33227456286685 47.294898206412284
7.4403263983693675 7.6768154076278865 49.099057075770716
5.183214207877653 5.110399163975082 41.7183543383687
5.148229054804277 6.540436253950277 40.735475685325405
5.246748597923992 7.899455249097983 43.50329995743468
5.315350522596826 5.258099792281058 45.43061372899931
5.381708946002056 7.748597945033705 47.294898206412284
5.445927223627435 5.404057100272668 49.099057075770716
5.479906113885553 6.540436253950277 50.05366561553501
5.183214207877653 7.970473343925473 41.7183543383687
5.246748597923992 5.181417258802572 43.50329995743468
5.315350522596826 7.822772715619497 45.43061372899931
5.381708946002056 5.33227456286685 47.294898206412284
5.445927223627435 7.6768154076278865 49.099057075770716
7.476790249968347 7.717574329980696 48.0746356227844
5.352422953692539 7.781333529296614 46.47213271460939
7.610584346279194 7.867128009684425 44.31580224305486
5.216358656138538 7.933424816854076 42.64951992721717
7.738024567192525 8.009579392109883 40.735475685325405
5.409463372028456 7.717574329980696 48.0746356227844
7.5338306683042635 7.781333529296614 46.47213271460939
5.2756692757176085 7.867128009684425 44.31580224305486
7.669894965858265 7.933424816854076 42.64951992721717
5.148229054804277 8.009579392109883 40.735475685325405
7.476790249968347 5.363298177919859 48.0746356227844
5.352422953692539 5.299538978603941 46.47213271460939
7.610584346279194 5.21374449821613 44.31580224305486
5.216358656138538 5.147447691046478 42.64951992721717
7.738024567192525 5.071293115790672 40.735475685325405
5.409463372028456 5.363298177919859 48.0746356227844
7.5338306683042635 5.299538978603941 46.47213271460939
5.2756692757176085 5.21374449821613 44.31580224305486
7.669894965858265 5.147447691046478 42.64951992721717
5.148229054804277 5.071293115790672 40.735475685325405
7.809738525912801 8.089740525586361 38.720731916631436
5.076515096084002 4.991131982314194 38.720731916631436
5.076515096084002 8.089740525586361 38.720731916631436
7.738024567192524 8.009579392109883 40.735475685325405
7.8097385259128025 4.991131982314194 38.720731916631436
8.104933524578225 4.6611660159685435 30.427475000908665
8.141415584994078 6.540436253950278 29.402541986421838
8.03725793079813 8.344059401701413 32.32876427979154
7.971038788917029 4.810832189314242 34.18913575912383
7.905966939840811 8.197303667696545 36.01727500541864
7.8418409225719525 4.955248249921919 37.81884189712429
7.8097385259128025 6.540436253950277 38.720731916631436
8.104933524578225 8.419706491932011 30.427475000908665
8.141415584994078 6.5404362539502765 29.402541986421838
8.03725793079813 4.736813106199142 32.32876427979154
7.971038788917029 8.270040318586313 34.18913575912383
7.905966939840811 4.88356884020401 36.01727500541864
7.8418409225719525 8.125624257978636 37.81884189712429
4.781320097418579 4.6611660159685435 30.427475000908665
4.744838037002726 6.540436253950278 29.402541986421838
4.848995691198674 8.344059401701413 32.32876427979154
4.915214833079776 4.810832189314242 34.18913575912383
4.9802866821559935 8.197303667696545 36.01727500541864
5.044412699424852 4.955248249921919 37.81884189712429
5.076515096084002 6.540436253950277 38.720731916631436
4.781320097418579 8.419706491932011 30.427475000908665
4.744838037002726 6.5404362539502765 29.402541986421838
4.848995691198674 4.736813106199142 32.32876427979154
4.915214833079776 8.270040318586313 34.18913575912383
4.9802866821559935 4.88356884020401 36.01727500541864
5.044412699424852 8.125624257978636 37.81884189712429
7.875487802820934 8.16323439841484 36.873560901243884
4.94848221548684 8.232854376976988 35.123755080124184
8.005820795641885 8.308919291849055 33.211964333057196
4.816267729533257 8.380642384293512 31.409299533958066
8.141415584994078 8.460485767915074 29.402541986421838
5.01076581917587 8.16323439841484 36.873560901243884
7.8097385259128025 8.089740525586361 38.720731916631436
7.937771406509964 8.232854376976988 35.123755080124184
4.88043282635492 8.308919291849055 33.211964333057196
8.069985892463547 8.380642384293512 31.409299533958066
4.744838037002726 8.460485767915074 29.402541986421838
7.875487802820934 4.917638109485715 36.873560901243884
4.94848221548684 4.848018130923568 35.123755080124184
8.005820795641885 4.7719532160515 33.211964333057196
4.816267729533257 4.700230123607042 31.409299533958066
5.01076581917587 4.917638109485715 36.873560901243884
7.937771406509964 4.848018130923568 35.123755080124184
4.88043282635492 4.7719532160515 33.211964333057196
8.069985892463547 4.700230123607042 31.409299533958066
4.744838037002726 4.620386739985482 29.402541986421838
4.675685291093888 8.53778400376739 27.45975335232408
8.141415584994078 8.460485767915072 29.402541986421838
8.210568330902914 4.543088504133163 27.45975335232408
8.210568330902914 8.53778400376739 27.45975335232408
4.744838037002726 8.460485767915072 29.402541986421838
4.675685291093885 4.543088504133163 27.45975335232408
4.636744798183335 8.581311290582196 26.36575273038902
4.551408391927399 4.404173050574311 23.9682976767988
4.675685291093888 6.5404362539502765 27.45975335232408
4.636744798183335 4.499561217318356 26.36575273038902
4.551408391927399 8.676699457326242 23.9682976767988
8.290203856599243 8.626799784219743 25.22245977619925
4.675685291093885 8.53778400376739 27.45975335232408
6.443126810998398 8.67669945732624 23.9682976767988
4.596049765397556 8.626799784219743 25.22245977619925
6.443126810998401 8.67669945732624 23.9682976767988
8.249508823813468 8.581311290582196 26.36575273038902
8.334845230069403 4.404173050574311 23.9682976767988
8.210568330902914 6.5404362539502765 27.45975335232408
8.249508823813468 4.499561217318356 26.36575273038902
8.334845230069403 8.676699457326242 23.9682976767988
8.290203856599243 4.4540727236808095 25.22245977619925
6.443126810998398 4.404173050574313 23.9682976767988
4.596049765397556 4.4540727236808095 25.22245977619925
6.443126810998401 4.404173050574313 23.9682976767988
4.675685291093888 4.543088504133163 27.45975335232408
15.811289729051039 4.291039654034414 12.747775390976738
16.059515861391677 2.597837083642485 14.032523704181639
15.811289729051039 2.3642682551855607 12.74777539097674
15.261186458155672 3.6900981749331905 9.900596317979442
14.970016500211557 1.5726706880020842 8.39358289921782
15.261186458155672 1.846647586878838 9.900596317979442
14.970016500211557 5.131859595258917 8.39358289921782
14.685548348483959 1.3049998658134516 6.921256135527115
13.83801240691994 2.5435502990201826 2.534649612525525
14.132845704232558 0.7849333124431155 4.06062344061233
13.838012406919939 0.5075093877577803 2.5346496125255227
15.811289729051039 8.789832853866141 12.747775390976738
16.059515861391677 10.48303542425807 14.032523704181639
15.811289729051039 10.716604252714994 12.74777539097674
15.261186458155672 9.390774332967364 9.900596317979442
14.970016500211557 11.50820181989847 8.39358289921782
15.261186458155672 11.234224921021717 9.900596317979442
14.970016500211557 7.949012912641638 8.39358289921782
14.685548348483959 11.775872642087103 6.921256135527115
13.83801240691994 10.537322208880372 2.534649612525525
14.132845704232558 12.29593919545744 4.06062344061233
13.838012406919939 12.573363120142774 2.5346496125255227
23.930559229862332 4.291039654034414 12.747775390976738
23.682333097521695 2.597837083642485 14.032523704181639
23.930559229862336 2.3642682551855607 12.74777539097674
24.480662500757703 3.6900981749331905 9.900596317979442
24.771832458701816 1.5726706880020842 8.39358289921782
24.480662500757703 1.846647586878838 9.900596317979442
24.771832458701816 5.131859595258917 8.39358289921782
25.056300610429414 1.3049998658134516 6.921256135527115
25.903836551993432 2.5435502990201826 2.534649612525525
25.609003254680815 0.7849333124431155 4.06062344061233
25.903836551993432 0.5075093877577803 2.5346496125255227
23.930559229862332 8.789832853866141 12.747775390976738
23.682333097521695 10.48303542425807 14.032523704181639
23.930559229862336 10.716604252714994 12.74777539097674
24.480662500757703 9.390774332967364 9.900596317979442
24.771832458701816 11.50820181989847 8.39358289921782
24.480662500757703 11.234224921021717 9.900596317979442
24.771832458701816 7.949012912641638 8.39358289921782
25.056300610429414 11.775872642087103 6.921256135527115
21.24667584575317 11.50820181989847 8.39358289921782
18.495173113160202 11.50820181989847 8.39358289921782
17.08701031871957 11.234224921021717 9.900596317979442
14.970016500211559 11.508201819898472 8.393582899217817
22.654838640193802 11.234224921021717 9.900596317979442
24.771832458701816 11.508201819898472 8.393582899217817
25.903836551993432 10.537322208880372 2.534649612525525
25.609003254680815 12.29593919545744 4.06062344061233
25.903836551993432 12.573363120142774 2.5346496125255227
17.673947533557296 2.3642682551855607 12.74777539097674
22.067901425356077 2.3642682551855607 12.74777539097674
23.88726388063657 12.573363120142774 2.5346496125255227
22.490095299689717 12.29593919545744 4.06062344061233
15.854585078276802 12.573363120142774 2.5346496125255227
17.251753659223656 12.29593919545744 4.06062344061233
17.673947533557296 10.716604252714994 12.74777539097674
22.067901425356077 10.716604252714994 12.74777539097674
23.88726388063657 0.507509387757781 2.5346496125255227
25.903836551993432 0.507509387757781 2.5346496125255227
25.609003254680815 0.7849333124431154 4.06062344061233
22.490095299689717 0.7849333124431154 4.06062344061233
15.854585078276802 0.507509387757781 2.5346496125255227
13.838012406919939 0.507509387757781 2.5346496125255227
14.132845704232558 0.7849333124431154 4.06062344061233
17.251753659223656 0.7849333124431154 4.06062344061233
21.24667584575317 1.5726706880020846 8.39358289921782
24.771832458701816 1.5726706880020846 8.39358289921782
25.056300610429414 1.3049998658134518 6.921256135527115
18.495173113160202 1.5726706880020846 8.39358289921782
14.970016500211557 1.5726706880020846 8.39358289921782
14.685548348483959 1.3049998658134518 6.921256135527115
17.08701031871957 1.8466475868788375 9.900596317979442
15.261186458155672 1.8466475868788375 9.900596317979442
14.970016500211559 1.5726706880020827 8.393582899217817
22.654838640193802 1.8466475868788375 9.900596317979442
24.480662500757703 1.8466475868788375 9.900596317979442
24.771832458701816 1.5726706880020827 8.393582899217817
13.298654936653262 0.0 -0.25691223314132694
15.574029870340656 2.141018161747402 11.519785411053526
16.059515861391677 6.5404362539502765 14.032523704181639
16.514929784628443 3.0263596389043688 16.389617472558726
17.026020263478888 6.540436253950277 19.034877358802774
17.51106498379138 3.9636748573274954 21.545331759289727
17.979206060385685 6.540436253950277 23.9682976767988
13.298654936653262 13.080872507900555 -0.25691223314132694
15.574029870340656 10.939854346153153 11.519785411053526
16.059515861391677 6.540436253950278 14.032523704181639
16.514929784628443 10.054512868996186 16.389617472558726
17.51106498379138 9.11719765057306 21.545331759289727
26.44319402226011 0.0 -0.25691223314132694
24.167819088572717 2.141018161747402 11.519785411053526
23.682333097521695 6.5404362539502765 14.032523704181639
23.22691917428493 3.0263596389043688 16.389617472558726
22.715828695434485 6.540436253950277 19.034877358802774
22.230783975121994 3.9636748573274954 21.545331759289727
21.762642898527687 6.540436253950277 23.9682976767988
26.44319402226011 13.080872507900555 -0.25691223314132694
24.167819088572717 10.939854346153153 11.519785411053526
23.682333097521695 6.540436253950278 14.032523704181639
23.22691917428493 10.054512868996186 16.389617472558726
22.230783975121994 9.11719765057306 21.545331759289727
19.870924479456686 8.676699457326242 23.9682976767988
19.870924479456683 9.573601357968123 19.034877358802774
19.870924479456686 10.483035424258068 14.032523704181639
19.87092447945669 9.573601357968123 19.034877358802774
13.298654936653264 13.080872507900555 -0.25691223314132694
19.870924479456683 3.507271149932432 19.034877358802774
16.514929784628443 3.0263596389043683 16.389617472558726
19.870924479456686 2.597837083642487 14.032523704181639
15.574029870340656 2.1410181617474024 11.519785411053526
19.87092447945669 3.507271149932432 19.034877358802774
23.22691917428493 3.0263596389043683 16.389617472558726
24.167819088572717 2.1410181617474024 11.519785411053526
13.298654936653264 0.0 -0.25691223314132694
23.682333097521695 2.597837083642487 14.032523704181639
16.059515861391677 2.597837083642487 14.032523704181639
22.715828695434485 9.573601357968123 19.034877358802774
22.715828695434485 3.507271149932432 19.034877358802774
17.02602026347889 9.573601357968123 19.034877358802774
17.02602026347889 3.507271149932432 19.034877358802774
21.762642898527687 4.404173050574313 23.9682976767988
17.979206060385685 4.404173050574313 23.9682976767988
10.502761561404048 4.291039654034414 12.747775390976738
10.25453542906341 2.597837083642485 14.032523704181639
10.502761561404048 2.3642682551855607 12.74777539097674
11.052864832299415 3.6900981749331905 9.900596317979442
11.34403479024353 1.5726706880020842 8.39358289921782
11.052864832299415 1.846647586878838 9.900596317979442
11.34403479024353 5.131859595258917 8.39358289921782
11.628502941971128 1.3049998658134516 6.921256135527115
12.476038883535146 2.5435502990201826 2.534649612525525
12.181205586222529 0.7849333124431155 4.06062344061233
12.476038883535148 0.5075093877577803 2.5346496125255227
10.502761561404048 8.789832853866141 12.747775390976738
10.25453542906341 10.48303542425807 14.032523704181639
10.502761561404048 10.716604252714994 12.74777539097674
11.052864832299415 9.390774332967364 9.900596317979442
11.34403479024353 11.50820181989847 8.39358289921782
11.052864832299415 11.234224921021717 9.900596317979442
11.34403479024353 7.949012912641638 8.39358289921782
11.628502941971128 11.775872642087103 6.921256135527115
12.476038883535146 10.537322208880372 2.534649612525525
12.181205586222529 12.29593919545744 4.06062344061233
12.476038883535148 12.573363120142774 2.5346496125255227
2.3834920605927525 4.291039654034414 12.747775390976738
2.6317181929333904 2.597837083642485 14.032523704181639
2.383492060592752 2.3642682551855607 12.74777539097674
1.8333887896973855 3.6900981749331905 9.900596317979442
1.5422188317532717 1.5726706880020842 8.39358289921782
1.833388789697386 1.846647586878838 9.900596317979442
1.5422188317532717 5.131859595258917 8.39358289921782
1.2577506800256728 1.3049998658134516 6.921256135527115
0.4102147384616545 2.5435502990201826 2.534649612525525
0.7050480357742721 0.7849333124431155 4.06062344061233
0.4102147384616528 0.5075093877577803 2.5346496125255227
2.3834920605927525 8.789832853866141 12.747775390976738
2.6317181929333904 10.48303542425807 14.032523704181639
2.383492060592752 10.716604252714994 12.74777539097674
1.8333887896973855 9.390774332967364 9.900596317979442
1.5422188317532717 11.50820181989847 8.39358289921782
1.833388789697386 11.234224921021717 9.900596317979442
1.5422188317532717 7.949012912641638 8.39358289921782
1.2577506800256728 11.775872642087103 6.921256135527115
5.067375444701916 11.50820181989847 8.39358289921782
7.818878177294884 11.50820181989847 8.39358289921782
9.227040971735518 11.234224921021717 9.900596317979442
11.344034790243528 11.508201819898472 8.393582899217817
3.659212650261283 11.234224921021717 9.900596317979442
1.5422188317532726 11.508201819898472 8.393582899217817
0.4102147384616545 10.537322208880372 2.534649612525525
0.7050480357742721 12.29593919545744 4.06062344061233
0.4102147384616528 12.573363120142774 2.5346496125255227
8.640103756897789 2.3642682551855607 12.74777539097674
4.246149865099012 2.3642682551855607 12.74777539097674
2.426787409818517 12.573363120142774 2.5346496125255227
3.82395599076537 12.29593919545744 4.06062344061233
10.459466212178285 12.573363120142774 2.5346496125255227
9.06229763123143 12.29593919545744 4.06062344061233
8.640103756897789 10.716604252714994 12.74777539097674
4.246149865099012 10.716604252714994 12.74777539097674
2.426787409818517 0.507509387757781 2.5346496125255227
0.4102147384616528 0.507509387757781 2.5346496125255227
0.7050480357742721 0.7849333124431154 4.06062344061233
3.82395599076537 0.7849333124431154 4.06062344061233
10.459466212178285 0.507509387757781 2.5346496125255227
12.476038883535148 0.507509387757781 2.5346496125255227
12.181205586222529 0.7849333124431154 4.06062344061233
9.06229763123143 0.7849333124431154 4.06062344061233
5.067375444701916 1.5726706880020846 8.39358289921782
1.5422188317532717 1.5726706880020846 8.39358289921782
1.2577506800256728 1.3049998658134518 6.921256135527115
7.818878177294884 1.5726706880020846 8.39358289921782
11.34403479024353 1.5726706880020846 8.39358289921782
11.628502941971128 1.3049998658134518 6.921256135527115
9.227040971735518 1.8466475868788375 9.900596317979442
11.052864832299415 1.8466475868788375 9.900596317979442
11.344034790243528 1.5726706880020827 8.393582899217817
3.659212650261283 1.8466475868788375 9.900596317979442
1.833388789697386 1.8466475868788375 9.900596317979442
1.5422188317532726 1.5726706880020827 8.393582899217817
13.015396353801824 0.0 -0.25691223314132694
10.74002142011443 2.141018161747402 11.519785411053526
10.25453542906341 6.5404362539502765 14.032523704181639
9.799121505826642 3.0263596389043688 16.389617472558726
9.2880310269762 6.540436253950277 19.034877358802774
8.802986306663708 3.9636748573274954 21.545331759289727
8.334845230069401 6.540436253950277 23.9682976767988
13.015396353801824 13.080872507900555 -0.25691223314132694
10.74002142011443 10.939854346153153 11.519785411053526
10.25453542906341 6.540436253950278 14.032523704181639
9.799121505826642 10.054512868996186 16.389617472558726
8.802986306663708 9.11719765057306 21.545331759289727
-0.12914273180502311 0.0 -0.25691223314132694
2.14623220188237 2.141018161747402 11.519785411053526
2.6317181929333904 6.5404362539502765 14.032523704181639
3.0871321161701584 3.0263596389043688 16.389617472558726
3.5982225950206024 6.540436253950277 19.034877358802774
4.083267315333092 3.9636748573274954 21.545331759289727
4.551408391927399 6.540436253950277 23.9682976767988
-0.12914273180502311 13.080872507900555 -0.25691223314132694
2.14623220188237 10.939854346153153 11.519785411053526
2.6317181929333904 6.540436253950278 14.032523704181639
3.0871321161701584 10.054512868996186 16.389617472558726
4.083267315333092 9.11719765057306 21.545331759289727
6.443126810998401 8.676699457326242 23.9682976767988
6.443126810998402 9.573601357968123 19.034877358802774
6.4431268109984 10.483035424258068 14.032523704181639
6.4431268109983995 8.676699457326242 23.9682976767988
6.443126810998399 9.573601357968123 19.034877358802774
13.015396353801822 13.080872507900555 -0.25691223314132694
6.443126810998402 3.507271149932432 19.034877358802774
9.799121505826642 3.0263596389043683 16.389617472558726
6.4431268109984 2.597837083642487 14.032523704181639
10.74002142011443 2.1410181617474024 11.519785411053526
6.4431268109983995 4.404173050574313 23.9682976767988
6.443126810998399 3.507271149932432 19.034877358802774
3.0871321161701584 3.0263596389043683 16.389617472558726
2.14623220188237 2.1410181617474024 11.519785411053526
13.015396353801822 0.0 -0.25691223314132694
2.6317181929333904 2.597837083642487 14.032523704181639
10.25453542906341 2.597837083642487 14.032523704181639
3.5982225950206024 9.573601357968123 19.034877358802774
3.5982225950206024 3.507271149932432 19.034877358802774
9.288031026976196 9.573601357968123 19.034877358802774
9.288031026976196 3.507271149932432 19.034877358802774
4.551408391927399 4.404173050574313 23.9682976767988
8.3348452300694 8.676699457326242 23.9682976767988
8.3348452300694 4.404173050574313 23.9682976767988
28.457453656672353 6.175399678805493 50.05366561553501
28.457453656672353 6.9054728290950615 50.05366561553501
-2.143402366217265 6.175399678805493 50.05366561553501
-2.143402366217265 6.9054728290950615 50.05366561553501
31.955397171677998 6.898259061905152 38.720731916631436
31.955397171677998 6.182613445995403 38.720731916631436
-5.64134588122291 6.898259061905152 38.720731916631436
-5.64134588122291 6.182613445995403 38.720731916631436
29.7887674801843 6.145048238681017 27.45975335232408
29.7887674801843 6.935824269219536 27.45975335232408
21.638365999361202 8.537784003767388 27.45975335232408
21.638365999361202 4.543088504133164 27.45975335232408
-3.4747161897292136 6.145048238681017 27.45975335232408
-3.4747161897292136 6.935824269219536 27.45975335232408
4.675685291093885 8.537784003767388 27.45975335232408
4.675685291093885 4.543088504133164 27.45975335232408
16.587711289282453 7.55867301630469 52.06840938422898
14.326001936683305 5.522199491595864 52.06840938422898
12.00161582805886 7.55867301630469 52.06840938422898
9.609107590461985 5.522199491595864 52.06840938422898
14.213828783911524 5.071293115790672 40.735475685325405
9.898532226408399 5.071293115790672 40.735475685325405
11.998762421341635 8.009579392109883 40.735475685325405
16.445825263310407 8.009579392109883 40.735475685325405
13.157025645227545 8.460485767915074 29.402541986421838
18.172635705461012 8.460485767915072 29.402541986421838
22.46361254494305 9.15815444801869 6.921256135527115
17.278236413970323 9.15815444801869 6.921256135527115
17.278236413970323 3.9227180598818645 6.921256135527115
22.46361254494305 3.9227180598818645 6.921256135527115
3.8504387455120366 9.15815444801869 6.921256135527115
9.035814876484764 9.15815444801869 6.921256135527115
9.035814876484764 3.9227180598818645 6.921256135527115
3.8504387455120366 3.9227180598818645 6.921256135527115
18.103482959552174 8.537784003767392 27.45975335232408
8.141415584994077 8.460485767915072 29.402541986421838
8.210568330902914 8.537784003767392 27.45975335232408
8.334845230069403 4.404173050574313 23.9682976767988
4.744838037002727 4.620386739985482 29.402541986421838
4.675685291093889 4.543088504133163 27.45975335232408
14.132845704232558 3.9339515873713538 4.06062344061233
14.132845704232558 9.146920920529201 4.06062344061233
25.609003254680815 3.9339515873713538 4.06062344061233
25.609003254680815 9.146920920529201 4.06062344061233
12.181205586222529 3.9339515873713538 4.06062344061233
12.181205586222529 9.146920920529201 4.06062344061233
0.7050480357742721 3.9339515873713538 4.06062344061233
0.7050480357742721 9.146920920529201 4.06062344061233
2 0 1
2 2 0
2 3 4
2 5 3
2 6 7
2 8 6
2 9 10
2 11 9
2 12 13
2 14 12
2 15 14
2 16 15
2 17 16
2 18 17
2 19 18
2 20 19
2 21 22
2 23 21
2 24 23
2 25 24
2 10 25
2 26 10
2 27 26
2 28 27
2 29 28
2 30 29
2 31 30
2 32 31
2 33 32
2 34 35
2 36 34
2 37 36
2 38 37
2 39 38
2 40 39
2 41 40
2 42 41
2 43 44
2 45 43
2 46 45
2 47 46
2 48 47
2 49 50
2 51 49
2 52 51
2 53 52
2 54 53
2 55 54
2 56 55
2 57 56
2 58 59
2 60 58
2 61 60
2 62 61
2 63 62
2 64 63
2 65 64
2 66 65
2 67 68
2 69 67
2 70 69
2 71 70
2 72 71
2 73 72
2 74 73
2 75 74
2 76 77
2 71 76
2 78 71
2 68 78
2 79 80
2 81 79
2 82 81
2 80 82
2 83 84
2 85 83
2 86 85
2 84 86
2 87 4
2 88 87
2 5 88
2 4 5
2 89 90
2 22 89
2 91 22
2 90 91
2 88 90
2 22 88
2 4 22
2 90 4
2 92 93
2 94 92
2 95 94
2 96 95
2 97 96
2 98 97
2 99 93
2 100 99
2 101 100
2 102 101
2 103 102
2 98 103
2 104 105
2 106 104
2 107 106
2 108 107
2 109 108
2 110 109
2 111 105
2 112 111
2 113 112
2 114 113
2 115 114
2 110 115
2 116 89
2 117 116
2 118 117
2 119 118
2 44 119
2 120 87
2 121 120
2 122 121
2 123 122
2 124 123
2 125 5
2 126 125
2 127 126
2 128 127
2 129 128
2 130 91
2 131 130
2 132 131
2 133 132
2 134 133
2 135 129
2 124 135
2 136 124
2 129 136
2 137 44
2 134 137
2 138 134
2 44 138
2 124 134
2 44 124
2 129 44
2 134 129
2 139 140
2 141 139
2 142 141
2 143 142
2 144 143
2 145 144
2 146 147
2 148 146
2 149 148
2 150 149
2 151 150
2 145 151
2 152 153
2 154 152
2 155 154
2 156 155
2 157 156
2 158 157
2 159 160
2 161 159
2 162 161
2 163 162
2 164 163
2 158 164
2 165 137
2 166 165
2 167 166
2 168 167
2 169 168
2 170 135
2 171 170
2 172 171
2 173 172
2 174 173
2 175 136
2 176 175
2 177 176
2 178 177
2 77 178
2 179 138
2 180 179
2 181 180
2 182 181
2 183 182
2 184 183
2 185 184
2 186 185
2 183 186
2 187 77
2 188 187
2 189 188
2 77 189
2 190 191
2 192 190
2 193 194
2 192 193
2 195 196
2 197 195
2 198 187
2 199 198
2 200 201
2 202 200
2 203 204
2 202 203
2 205 189
2 206 205
2 207 186
2 208 207
2 89 5
2 87 89
2 91 87
2 5 91
2 137 136
2 135 137
2 138 135
2 136 138
2 188 183
2 185 188
2 77 185
2 183 77
2 184 209
2 187 184
2 186 187
2 209 186
2 210 10
2 211 210
2 11 211
2 10 11
2 212 213
2 214 212
2 215 214
2 213 215
2 211 213
2 214 211
2 10 214
2 213 10
2 216 217
2 218 216
2 219 218
2 220 219
2 221 220
2 222 221
2 223 217
2 224 223
2 225 224
2 226 225
2 227 226
2 222 227
2 228 229
2 230 228
2 231 230
2 232 231
2 233 232
2 234 233
2 235 229
2 236 235
2 237 236
2 238 237
2 239 238
2 234 239
2 240 212
2 241 240
2 242 241
2 243 242
2 244 243
2 245 210
2 246 245
2 247 246
2 248 247
2 249 248
2 250 11
2 251 250
2 252 251
2 253 252
2 254 253
2 255 215
2 256 255
2 257 256
2 258 257
2 259 258
2 260 50
2 249 260
2 261 249
2 50 261
2 262 263
2 259 262
2 264 259
2 263 264
2 249 259
2 263 249
2 50 263
2 259 50
2 265 266
2 267 265
2 268 267
2 269 268
2 270 269
2 271 270
2 272 273
2 274 272
2 275 274
2 276 275
2 277 276
2 271 277
2 278 279
2 280 278
2 281 280
2 282 281
2 283 282
2 284 283
2 285 286
2 287 285
2 288 287
2 289 288
2 290 289
2 284 290
2 291 262
2 292 291
2 293 292
2 294 293
2 295 294
2 296 297
2 298 296
2 299 298
2 300 299
2 301 300
2 302 261
2 303 302
2 304 303
2 305 304
2 68 305
2 306 264
2 307 306
2 308 307
2 309 308
2 310 309
2 311 310
2 312 311
2 313 312
2 310 313
2 314 68
2 315 314
2 316 315
2 68 316
2 317 318
2 319 317
2 320 321
2 319 320
2 322 323
2 324 322
2 325 314
2 326 325
2 327 328
2 329 327
2 330 331
2 329 330
2 332 316
2 333 332
2 334 313
2 335 334
2 212 11
2 210 212
2 215 210
2 11 215
2 262 261
2 297 262
2 264 297
2 261 264
2 315 310
2 312 315
2 68 312
2 310 68
2 311 336
2 314 311
2 313 314
2 336 313
2 337 338
2 339 337
2 340 341
2 342 340
2 343 344
2 341 343
2 345 346
2 347 345
2 348 349
2 350 348
2 351 352
2 353 351
2 354 355
2 352 354
2 356 357
2 358 356
2 359 360
2 361 359
2 362 363
2 364 362
2 365 366
2 363 365
2 367 368
2 369 367
2 370 371
2 372 370
2 373 374
2 375 373
2 376 377
2 374 376
2 378 374
2 377 378
2 379 352
2 355 379
2 380 353
2 381 380
2 382 375
2 383 382
2 384 385
2 386 384
2 387 339
2 338 387
2 388 361
2 360 388
2 389 386
2 385 389
2 390 385
2 377 390
2 391 358
2 357 391
2 392 357
2 355 392
2 393 350
2 349 393
2 394 372
2 371 394
2 395 396
2 397 395
2 398 397
2 366 398
2 399 400
2 401 399
2 402 401
2 344 402
2 403 404
2 405 403
2 406 407
2 408 406
2 409 410
2 411 409
2 412 413
2 414 412
2 81 415
2 416 81
2 417 416
2 418 417
2 419 418
2 420 419
2 421 420
2 81 422
2 423 81
2 424 423
2 425 424
2 419 425
2 426 419
2 421 426
2 80 427
2 428 80
2 429 428
2 430 429
2 431 430
2 432 431
2 433 432
2 80 434
2 435 80
2 436 435
2 437 436
2 431 437
2 438 431
2 433 438
2 426 439
2 440 426
2 425 440
2 441 425
2 423 441
2 82 423
2 438 439
2 442 438
2 437 442
2 441 437
2 435 441
2 82 435
2 82 443
2 434 82
2 420 208
2 444 420
2 445 444
2 446 445
2 447 446
2 79 447
2 432 208
2 448 432
2 449 448
2 446 449
2 450 446
2 79 450
2 79 451
2 427 79
2 377 405
2 355 377
2 408 355
2 405 408
2 371 452
2 349 371
2 453 349
2 452 453
2 454 455
2 456 454
2 457 456
2 455 457
2 194 458
2 204 194
2 459 204
2 458 459
2 460 461
2 462 460
2 463 464
2 465 463
2 466 467
2 464 466
2 468 469
2 470 468
2 471 472
2 473 471
2 474 475
2 476 474
2 477 478
2 475 477
2 479 480
2 481 479
2 482 483
2 484 482
2 485 486
2 487 485
2 488 489
2 486 488
2 490 491
2 492 490
2 493 494
2 495 493
2 496 497
2 498 496
2 499 500
2 497 499
2 501 497
2 500 501
2 502 475
2 478 502
2 503 476
2 504 503
2 505 498
2 506 505
2 507 508
2 509 507
2 510 462
2 461 510
2 511 484
2 483 511
2 512 509
2 508 512
2 513 508
2 500 513
2 514 481
2 480 514
2 515 480
2 478 515
2 516 473
2 472 516
2 517 495
2 494 517
2 518 519
2 520 518
2 521 520
2 489 521
2 522 523
2 524 522
2 525 524
2 467 525
2 526 527
2 528 526
2 529 530
2 531 529
2 532 533
2 534 532
2 535 536
2 537 535
2 85 538
2 539 85
2 540 539
2 541 540
2 542 541
2 543 542
2 544 543
2 85 545
2 546 85
2 547 546
2 548 547
2 542 548
2 549 542
2 544 549
2 84 550
2 551 84
2 552 551
2 553 552
2 554 553
2 555 554
2 556 555
2 84 557
2 558 84
2 559 558
2 560 559
2 554 560
2 561 554
2 556 561
2 549 562
2 563 549
2 548 563
2 564 548
2 546 564
2 86 546
2 561 565
2 566 561
2 560 566
2 564 560
2 558 564
2 86 558
2 86 567
2 557 86
2 543 335
2 568 543
2 569 568
2 570 569
2 571 570
2 83 571
2 555 572
2 573 555
2 574 573
2 570 574
2 575 570
2 83 575
2 83 576
2 550 83
2 500 528
2 478 500
2 531 478
2 528 531
2 494 577
2 472 494
2 578 472
2 577 578
2 579 580
2 581 579
2 582 581
2 580 582
2 321 583
2 584 321
2 585 584
2 583 585
2 90 586
2 587 88
2 5 586
2 587 586
2 89 587
2 3 0
2 9 6
2 213 588
2 589 211
2 11 588
2 589 588
2 212 589
2 590 124
2 134 591
2 590 591
2 137 590
2 136 591
2 592 249
2 259 593
2 592 593
2 262 592
2 261 593
2 183 594
2 188 595
2 595 594
2 596 595
2 597 594
2 310 598
2 315 599
2 599 598
2 600 599
2 601 598
2 21 602
2 23 603
2 24 604
2 25 605
2 87 210
2 215 91
2 4 10
2 214 22
2 45 606
2 47 607
2 46 608
2 43 609
2 138 264
2 297 135
2 129 50
2 244 44
2 73 76
2 71 610
2 69 78
2 611 295
2 68 77
2 187 314
2 313 186
2 612 613
2 614 615
2 344 614
2 615 366
2 355 613
2 377 612
2 616 617
2 618 619
2 467 618
2 619 489
2 478 617
2 500 616
2 22 87
2 89 88
2 90 5
2 91 4
2 44 87
2 135 44
2 611 135
2 620 611
2 204 620
2 124 89
2 137 124
2 188 137
2 184 188
2 194 184
2 129 91
2 138 129
2 77 138
2 186 77
2 459 186
2 134 5
2 136 134
2 183 136
2 209 183
2 458 209
2 214 210
2 212 211
2 213 11
2 215 10
2 263 210
2 260 263
2 621 260
2 622 621
2 331 622
2 249 212
2 262 249
2 315 262
2 311 315
2 321 311
2 48 215
2 264 48
2 68 264
2 313 68
2 623 313
2 259 11
2 261 259
2 624 261
2 625 624
2 583 625
2 626 344
2 346 626
2 627 355
2 357 627
2 628 366
2 368 628
2 629 377
2 385 629
2 443 204
2 434 194
2 451 459
2 427 458
2 630 467
2 469 630
2 631 478
2 480 631
2 632 489
2 491 632
2 633 500
2 508 633
2 567 584
2 557 321
2 576 585
2 550 583
