ply
format ascii 1.0
element vertex 442
property float x
property float y
property float z
element edge 408
property list uchar int vertex_indices
end_header
-3.9771453625070228 6.222020598864905 57.022950929256396
-7.096849643549721 6.142708270324062 55.83377182118092
-3.9771453625070228 6.265109658150941 55.83377182118092
-1.357392882421852 6.308889104967253 57.462239429708355
-3.9771453625070228 4.585454861635193 57.022950929256396
-7.096849643549721 4.664767190176035 55.83377182118092
-3.9771453625070228 4.542365802349156 55.83377182118092
-1.357392882421852 4.498586355532844 57.462239429708355
3.6648405973902856 3.6648405973902944 42.03711987209397
3.705091809686026 4.566142980851729 42.65814351649337
3.61971664267206 4.464745203356987 41.3409161750987
3.4631449955609472 3.463144995560957 38.92522011645199
3.524683116714092 4.4169301498259905 39.87467296739295
3.4015417985413556 4.415886611981116 37.9747632298697
3.2001476653678873 3.200147665367898 34.86751474192047
3.2641447142562594 4.414786160747635 35.854905636869304
3.1300673180759393 4.320780458789805 33.786266496370395
2.8968793680208558 2.8968793680208655 30.188480931323447
2.815652375010636 4.1346980339965205 28.93525449798784
2.974807716568556 4.186233990353486 31.39081358807787
2.5490840555289758 8.25839140497112 24.822453421845637
2.4510352248642207 6.892693498952386 23.309687999995603
2.639398274593521 6.775236773739611 26.21588388680808
2.1976836511900455 8.609791809310048 19.400804052812433
2.1103359376018336 7.181243842385971 18.05314289359161
2.269761836816313 6.870512420041394 20.512876335019474
1.8745469618807746 8.932928498619319 14.415226899021405
1.7827594569367111 7.3693741054801905 12.999065556801728
1.9515461892550832 7.052682020475254 15.603224429346609
3.6648405973902856 7.142634863109806 42.03711987209397
3.705091809686026 6.241332479648372 42.65814351649337
3.61971664267206 6.3427302571431134 41.3409161750987
3.4631449955609472 7.344330464939143 38.92522011645199
3.524683116714092 6.39054531067411 39.87467296739295
3.4015417985413556 6.3915888485189845 37.9747632298697
3.2001476653678873 7.6073277951322025 34.86751474192047
3.2641447142562594 6.392689299752465 35.854905636869304
3.1300673180759393 6.486695001710295 33.786266496370395
2.8968793680208558 7.910596092479235 30.188480931323447
2.815652375010636 6.67277742650358 28.93525449798784
2.974807716568556 6.6212414701466145 31.39081358807787
2.5490840555289758 2.549084055528981 24.822453421845637
2.4510352248642207 3.914781961547715 23.309687999995603
2.639398274593521 4.03223868676049 26.21588388680808
2.1976836511900455 2.197683651190053 19.400804052812433
2.1103359376018336 3.6262316181141294 18.05314289359161
2.269761836816313 3.936963040458706 20.512876335019474
1.8745469618807746 1.8745469618807817 14.415226899021405
1.7827594569367111 3.43810135501991 12.999065556801728
1.9515461892550832 3.754793440024846 15.603224429346609
7.1426348631098096 3.6648405973902944 42.03711987209397
7.102383650814069 4.566142980851729 42.65814351649337
7.187758817828035 4.464745203356987 41.3409161750987
7.344330464939148 3.463144995560957 38.92522011645199
7.282792343786003 4.4169301498259905 39.87467296739295
7.4059336619587395 4.415886611981116 37.9747632298697
7.607327795132208 3.200147665367898 34.86751474192047
7.543330746243836 4.414786160747635 35.854905636869304
7.677408142424156 4.320780458789805 33.786266496370395
7.910596092479239 2.8968793680208655 30.188480931323447
7.991823085489459 4.1346980339965205 28.93525449798784
7.832667743931539 4.186233990353486 31.39081358807787
8.25839140497112 8.25839140497112 24.822453421845637
8.356440235635874 6.892693498952386 23.309687999995603
8.168077185906574 6.775236773739611 26.21588388680808
8.60979180931005 8.609791809310048 19.400804052812433
8.697139522898262 7.181243842385971 18.05314289359161
8.537713623683782 6.870512420041394 20.512876335019474
8.93292849861932 8.932928498619319 14.415226899021405
9.024716003563384 7.3693741054801905 12.999065556801728
8.855929271245012 7.052682020475254 15.603224429346609
7.1426348631098096 7.142634863109806 42.03711987209397
7.102383650814069 6.241332479648372 42.65814351649337
7.187758817828035 6.3427302571431134 41.3409161750987
7.344330464939148 7.344330464939143 38.92522011645199
7.282792343786003 6.39054531067411 39.87467296739295
7.4059336619587395 6.3915888485189845 37.9747632298697
7.607327795132208 7.6073277951322025 34.86751474192047
7.543330746243836 6.392689299752465 35.854905636869304
7.677408142424156 6.486695001710295 33.786266496370395
7.910596092479239 7.910596092479235 30.188480931323447
7.991823085489459 6.67277742650358 28.93525449798784
7.832667743931539 6.6212414701466145 31.39081358807787
8.25839140497112 2.549084055528981 24.822453421845637
8.356440235635874 3.914781961547715 23.309687999995603
8.168077185906574 4.03223868676049 26.21588388680808
8.60979180931005 2.197683651190053 19.400804052812433
8.697139522898262 3.6262316181141294 18.05314289359161
8.537713623683782 3.936963040458706 20.512876335019474
8.93292849861932 1.8745469618807817 14.415226899021405
9.024716003563384 3.43810135501991 12.999065556801728
8.855929271245012 3.754793440024846 15.603224429346609
8.531303163365829 2.2761722971342664 20.611781366740857
6.8656942822154035 2.3615745060195064 21.929425928897118
7.020360157169346 2.181735067787935 19.154738237089383
2.2761722971342606 2.2761722971342664 20.611781366740857
3.9417811782846863 2.3615745060195064 21.929425928897118
3.7871153033307436 2.181735067787935 19.154738237089383
7.285083976924703 1.8003006047454502 13.269702561697294
9.007174855754641 1.8003006047454502 13.269702561697294
8.90526518804778 1.9022102724523045 14.842035657501992
7.019947119815807 1.9897578794525952 16.192780911043837
3.5223914835753827 1.8003006047454502 13.269702561697294
1.800300604745444 1.8003006047454502 13.269702561697294
1.9022102724523058 1.9022102724523045 14.842035657501992
3.7875283406842795 1.9897578794525952 16.192780911043837
1.4655633259297822 7.842346888562924 10.117969730607651
1.4655633259297822 9.341912134570316 10.117969730607651
1.23858676033438 9.568888700165719 8.550966804415719
1.23858676033438 6.62777708357377 8.550966804415719
1.009840543007238 9.797634917492859 6.971746540126769
1.4655633259297822 2.9651285719371785 10.117969730607651
1.4655633259297822 1.4655633259297858 10.117969730607651
1.23858676033438 1.238586760334384 8.550966804415719
1.23858676033438 4.179698376926332 8.550966804415719
1.009840543007238 1.0098405430072432 6.971746540126769
7.84234688856292 9.341912134570313 10.117969730607651
9.341912134570313 9.341912134570313 10.117969730607651
9.568888700165715 9.568888700165715 8.550966804415719
6.627777083573767 9.568888700165715 8.550966804415719
9.797634917492855 9.797634917492857 6.971746540126769
2.965128571937175 9.341912134570313 10.117969730607651
1.4655633259297822 9.341912134570313 10.117969730607651
1.2385867603343805 9.568888700165715 8.550966804415719
4.1796983769263285 9.568888700165715 8.550966804415719
1.0098405430072397 9.797634917492857 6.971746540126769
9.341912134570313 7.842346888562924 10.117969730607651
9.341912134570313 9.341912134570316 10.117969730607651
9.568888700165715 9.568888700165719 8.550966804415719
9.568888700165715 6.62777708357377 8.550966804415719
9.797634917492857 9.797634917492859 6.971746540126769
9.341912134570313 2.9651285719371785 10.117969730607651
9.341912134570313 1.4655633259297858 10.117969730607651
9.568888700165715 1.238586760334384 8.550966804415719
9.568888700165715 4.179698376926332 8.550966804415719
9.797634917492857 1.0098405430072432 6.971746540126769
7.84234688856292 1.4655633259297836 10.117969730607651
9.341912134570313 1.4655633259297836 10.117969730607651
9.568888700165715 1.2385867603343819 8.550966804415719
6.627777083573767 1.238586760334382 8.550966804415719
9.797634917492855 1.00984054300724 6.971746540126769
2.965128571937175 1.4655633259297836 10.117969730607651
1.4655633259297822 1.4655633259297836 10.117969730607651
1.2385867603343805 1.2385867603343819 8.550966804415719
4.1796983769263285 1.238586760334382 8.550966804415719
1.0098405430072397 1.00984054300724 6.971746540126769
8.531303163365829 8.53130316336583 20.611781366740857
6.8656942822154035 8.44590095448059 21.929425928897118
7.020360157169346 8.625740392712162 19.154738237089383
2.2761722971342606 8.53130316336583 20.611781366740857
3.9417811782846863 8.44590095448059 21.929425928897118
3.7871153033307436 8.625740392712162 19.154738237089383
7.285083976924703 9.007174855754647 13.269702561697294
9.007174855754641 9.007174855754647 13.269702561697294
8.90526518804778 8.905265188047792 14.842035657501992
7.019947119815807 8.817717581047502 16.192780911043837
10.308081931958565 8.135180640184853 3.4477176905603426
10.05026903271631 10.05026903271631 5.2276087839993925
10.308081931958565 10.308081931958565 3.4477176905603426
10.05026903271631 6.755603140917689 5.2276087839993925
10.308081931958565 2.672294820315245 3.4477176905603426
10.05026903271631 0.7572064277837866 5.2276087839993925
10.308081931958565 0.4993935285415319 3.4477176905603426
10.05026903271631 4.051872319582408 5.2276087839993925
0.4993935285415301 8.135180640184853 3.4477176905603426
0.7572064277837846 10.05026903271631 5.2276087839993925
0.4993935285415301 10.308081931958565 3.4477176905603426
0.7572064277837846 6.755603140917689 5.2276087839993925
8.135180640184853 10.308081931958563 3.4477176905603426
10.308081931958565 10.308081931958563 3.4477176905603426
10.05026903271631 10.050269032716308 5.2276087839993925
6.755603140917686 10.050269032716308 5.2276087839993925
9.797634917492855 9.797634917492855 6.971746540126769
2.672294820315243 10.308081931958563 3.4477176905603426
0.4993935285415301 10.308081931958563 3.4477176905603426
0.7572064277837846 10.050269032716308 5.2276087839993925
4.051872319582409 10.050269032716308 5.2276087839993925
1.0098405430072397 9.797634917492855 6.971746540126769
8.135180640184853 0.4993935285415319 3.4477176905603426
6.755603140917686 0.7572064277837866 5.2276087839993925
9.797634917492854 5.403737730250048 6.971746540126769
5.403737730250048 9.797634917492857 6.971746540126769
5.4037377302500476 1.0098405430072404 6.971746540126771
1.0098405430072397 5.403737730250048 6.971746540126769
0.4993935285415301 2.672294820315245 3.4477176905603426
0.7572064277837846 0.7572064277837866 5.2276087839993925
0.4993935285415301 0.4993935285415319 3.4477176905603426
0.7572064277837846 4.051872319582408 5.2276087839993925
3.5223914835753827 9.007174855754647 13.269702561697294
1.800300604745444 9.007174855754647 13.269702561697294
1.9022102724523058 8.905265188047792 14.842035657501992
3.7875283406842795 8.817717581047502 16.192780911043837
2.672294820315243 0.4993935285415319 3.4477176905603426
4.051872319582409 0.7572064277837866 5.2276087839993925
6.586752472016597 4.220722988483504 55.83377182118092
6.49683568883086 6.496835688830862 58.412673329115336
6.676990891352402 6.676990891352403 53.24564547308811
6.778275433733533 4.029200026766567 50.34070548499271
6.872977902651461 6.8729779026514635 47.6245458177469
6.980655259857874 3.8268202006422256 44.536253632111126
6.586752472016597 6.586752472016593 55.83377182118092
6.49683568883086 4.310639771669235 58.412673329115336
6.676990891352402 4.1304845691476935 53.24564547308811
6.778275433733533 6.77827543373353 50.34070548499271
6.872977902651461 3.9344975578486334 47.6245458177469
6.980655259857874 6.980655259857871 44.536253632111126
3.9344975578486325 6.8729779026514635 47.6245458177469
3.9344975578486325 3.934497557848634 47.6245458177469
6.872977902651461 3.934497557848634 47.6245458177469
4.220722988483496 6.586752472016593 55.83377182118092
4.220722988483496 4.220722988483504 55.83377182118092
6.586752472016592 6.586752472016593 55.83377182118092
6.586752472016592 4.220722988483504 55.83377182118092
14.784620823007117 6.265109658150941 57.022950929256396
17.904325104049814 6.142708270324062 55.83377182118092
14.784620823007117 6.265109658150941 55.83377182118092
12.71336540993317 6.290701462747238 57.37026568184427
14.784620823007117 4.542365802349156 57.022950929256396
17.904325104049814 4.664767190176035 55.83377182118092
14.784620823007117 4.542365802349156 55.83377182118092
12.71336540993317 4.516773997752859 57.37026568184427
9.595846764012705 6.719438043900037 47.04830063554119
11.560510765242583 6.686436890229174 44.536253632111126
9.051590356423194 6.847614567416393 44.536253632111126
16.159330080624162 6.391000250449231 44.536253632111126
14.169363960809399 6.4615419717247775 46.08039972492901
16.447940086341816 6.333055337119202 45.59818093971341
9.595846764012705 4.08803741660006 47.04830063554119
11.560510765242583 4.1210385702709225 44.536253632111126
9.051590356423194 3.959860893083704 44.536253632111126
16.159330080624162 4.416475210050866 44.536253632111126
14.169363960809399 4.345933488775319 46.08039972492901
16.447940086341816 4.474420123380895 45.59818093971341
1.2116286964873886 6.719438043900037 47.04830063554119
-0.75303530474249 6.686436890229174 44.536253632111126
1.755885104076899 6.847614567416393 44.536253632111126
-5.351854620124069 6.391000250449231 44.536253632111126
-3.361888500309305 6.4615419717247775 46.08039972492901
-5.640464625841725 6.333055337119202 45.59818093971341
1.2116286964873886 4.08803741660006 47.04830063554119
-0.75303530474249 4.1210385702709225 44.536253632111126
1.755885104076899 3.959860893083704 44.536253632111126
-5.351854620124069 4.416475210050866 44.536253632111126
-3.361888500309305 4.345933488775319 46.08039972492901
-5.640464625841725 4.474420123380895 45.59818093971341
4.3106397716692335 4.310639771669235 58.412673329115336
4.130484569147692 4.1304845691476935 53.24564547308811
4.02920002676656 6.77827543373353 50.34070548499271
3.9344975578486325 3.9344975578486334 47.6245458177469
3.826820200642219 6.980655259857871 44.536253632111126
4.3106397716692335 6.496835688830862 58.412673329115336
4.130484569147692 6.676990891352403 53.24564547308811
4.02920002676656 4.029200026766567 50.34070548499271
3.826820200642219 3.8268202006422256 44.536253632111126
6.4968356888308545 6.496835688830862 58.412673329115336
6.676990891352396 6.676990891352403 53.24564547308811
6.8729779026514555 6.8729779026514635 47.6245458177469
7.194117008886156 7.194117008886163 41.24281758980162
3.3847426738467625 7.422732786653327 37.71557467266797
7.715062666451587 7.715062666451596 33.20530636111198
2.789079111537067 8.018396348963023 28.52526374281036
8.358685795513534 8.35868579551354 23.275041943407345
2.0821363712996455 8.725339089200444 17.618060409446933
9.105800292197202 9.105800292197209 11.748040865646091
6.778275433733528 6.77827543373353 50.34070548499271
6.980655259857869 6.980655259857871 44.536253632111126
3.6133584516139323 7.194117008886163 41.24281758980162
7.4227327866533255 7.422732786653327 37.71557467266797
3.0924127940485007 7.715062666451596 33.20530636111198
8.018396348963021 8.018396348963023 28.52526374281036
2.4487896649865535 8.35868579551354 23.275041943407345
8.725339089200443 8.725339089200444 17.618060409446933
1.7016751683028861 9.105800292197209 11.748040865646091
3.744572943051601 7.06290251744849 43.2672858485943
3.826820200642219 5.403737730250048 44.536253632111126
3.577058212009046 3.577058212009052 40.682752294715215
3.3340794248564993 7.4733960356435905 36.93390689844338
3.047682589551446 3.047682589551453 32.51517771585794
2.725451190741369 8.082024269758723 27.54356801231209
2.347851717760806 2.347851717760811 21.717701225722422
2.031994155053644 8.775481305446446 16.84443149008502
1.7016751683028808 1.701675168302888 11.748040865646091
3.744572943051601 3.7445729430516073 43.2672858485943
3.577058212009046 7.230417248491045 40.682752294715215
3.3340794248564993 3.3340794248565064 36.93390689844338
3.047682589551446 7.759792870948644 32.51517771585794
2.725451190741369 2.7254511907413748 27.54356801231209
2.347851717760806 8.459623742739286 21.717701225722422
2.031994155053644 2.031994155053651 16.84443149008502
1.7016751683028808 9.105800292197209 11.748040865646091
7.062902517448487 7.06290251744849 43.2672858485943
6.980655259857869 5.403737730250048 44.536253632111126
7.230417248491042 3.577058212009052 40.682752294715215
7.473396035643589 7.4733960356435905 36.93390689844338
7.759792870948642 3.047682589551453 32.51517771585794
8.082024269758719 8.082024269758723 27.54356801231209
8.459623742739282 2.347851717760811 21.717701225722422
8.775481305446444 8.775481305446446 16.84443149008502
9.105800292197207 1.701675168302888 11.748040865646091
7.062902517448487 3.7445729430516073 43.2672858485943
7.230417248491042 7.230417248491045 40.682752294715215
7.473396035643589 3.3340794248565064 36.93390689844338
7.759792870948642 7.759792870948644 32.51517771585794
8.082024269758719 2.7254511907413748 27.54356801231209
8.459623742739282 8.459623742739286 21.717701225722422
8.775481305446444 2.031994155053651 16.84443149008502
9.105800292197207 9.105800292197209 11.748040865646091
6.4968356888308545 4.310639771669235 58.412673329115336
6.676990891352396 4.1304845691476935 53.24564547308811
6.8729779026514555 3.934497557848634 47.6245458177469
7.194117008886156 3.613358451613934 41.24281758980162
3.3847426738467625 3.3847426738467696 37.71557467266797
7.715062666451587 3.0924127940485016 33.20530636111198
2.789079111537067 2.789079111537073 28.52526374281036
8.358685795513534 2.4487896649865553 23.275041943407345
2.0821363712996455 2.082136371299653 17.618060409446933
9.105800292197202 1.7016751683028877 11.748040865646091
6.778275433733528 4.029200026766567 50.34070548499271
6.980655259857869 3.8268202006422256 44.536253632111126
3.6133584516139323 3.613358451613934 41.24281758980162
7.4227327866533255 3.3847426738467696 37.71557467266797
3.0924127940485007 3.0924127940485016 33.20530636111198
8.018396348963021 2.789079111537073 28.52526374281036
2.4487896649865535 2.4487896649865553 23.275041943407345
8.725339089200443 2.082136371299653 17.618060409446933
1.7016751683028861 1.7016751683028877 11.748040865646091
3.8268202006422243 6.980655259857872 44.536253632111126
3.8268202006422243 3.8268202006422256 44.536253632111126
6.980655259857869 6.980655259857872 44.536253632111126
9.797634917492854 9.797634917492857 6.971746540126769
9.797634917492854 1.00984054300724 6.971746540126769
-1.3573928824218529 4.498586355532844 57.46223942970836
9.39974613580282 4.4068975272374855 57.92590399235907
9.39974613580282 6.400577933262611 57.92590399235907
1.4077293246972729 6.400577933262611 57.92590399235907
1.4077293246972729 4.4068975272374855 57.92590399235907
7.910596092479231 2.896879368020863 30.188480931323454
4.177261369242664 4.177261369242668 54.58724996590118
6.630214091257431 4.177261369242668 54.58724996590118
4.081779489950377 4.08177948995038 51.84873604488308
6.725695970549718 4.08177948995038 51.84873604488308
3.9834256661019953 3.983425666101999 49.02785193796637
6.824049794398098 3.983425666101999 49.02785193796637
3.7268552753290263 3.726855275329033 42.99392537193364
7.080620185171062 3.726855275329033 42.99392537193364
3.5059106359664334 3.5059106359664396 39.58503810316401
7.301564824533655 3.5059106359664396 39.58503810316401
3.2484449907287445 3.2484449907287516 35.61267940404228
7.559030469771344 3.2484449907287516 35.61267940404228
2.9500853387164447 2.9500853387164527 31.00937958109369
7.857390121783643 2.9500853387164527 31.00937958109369
2.629329817778115 2.629329817778123 26.06054074586025
8.178145642721974 2.629329817778123 26.06054074586025
8.905265188047789 1.9022102724523045 14.842035657501992
4.177261369242665 4.177261369242668 54.58724996590118
4.177261369242665 6.63021409125743 54.58724996590118
4.081779489950378 4.08177948995038 51.84873604488308
4.081779489950378 6.725695970549716 51.84873604488308
3.983425666101997 3.983425666102 49.027851937966375
3.983425666101997 6.824049794398097 49.027851937966375
7.1426348631098096 3.6648405973902913 42.03711987209397
7.344330464939148 3.4631449955609535 38.92522011645199
7.607327795132208 3.200147665367895 34.86751474192047
7.910596092479239 2.896879368020862 30.188480931323447
8.25839140497112 8.258391404971118 24.822453421845637
8.60979180931005 8.609791809310044 19.400804052812433
6.6302140912574306 4.177261369242668 54.58724996590118
6.6302140912574306 6.63021409125743 54.58724996590118
6.725695970549717 4.08177948995038 51.84873604488308
6.725695970549717 6.725695970549716 51.84873604488308
6.824049794398098 3.983425666102 49.027851937966375
6.824049794398098 6.824049794398097 49.027851937966375
3.6648405973902856 3.6648405973902913 42.03711987209397
3.4631449955609472 3.4631449955609535 38.92522011645199
3.2001476653678873 3.200147665367895 34.86751474192047
2.8968793680208558 2.896879368020862 30.188480931323447
2.5490840555289753 2.549084055528981 24.822453421845637
2.5490840555289753 8.258391404971118 24.822453421845637
2.1976836511900464 2.197683651190053 19.400804052812433
2.1976836511900464 8.609791809310044 19.400804052812433
4.177261369242664 6.630214091257429 54.58724996590118
6.630214091257431 6.630214091257429 54.58724996590118
4.081779489950377 6.725695970549717 51.84873604488308
6.725695970549718 6.725695970549717 51.84873604488308
3.9834256661019953 6.824049794398098 49.02785193796637
6.824049794398098 6.824049794398098 49.02785193796637
3.7268552753290263 7.080620185171064 42.99392537193364
7.080620185171062 7.080620185171064 42.99392537193364
3.5059106359664334 7.301564824533657 39.58503810316401
7.301564824533655 7.301564824533657 39.58503810316401
3.2484449907287445 7.559030469771345 35.61267940404228
7.559030469771344 7.559030469771345 35.61267940404228
2.9500853387164447 7.857390121783644 31.00937958109369
7.857390121783643 7.857390121783644 31.00937958109369
2.629329817778115 8.178145642721974 26.06054074586025
8.178145642721974 8.178145642721974 26.06054074586025
8.905265188047789 8.905265188047792 14.842035657501992
5.403737730250047 5.40373773025005 59.96940552464794
5.403737730250046 5.40373773025005 59.96940552464794
21.876440696372686 5.98686258197997 55.83377182118092
21.876440696372686 4.8206128785201265 55.83377182118092
11.98294060850536 6.3750333930978655 55.83377182118092
9.206819265057748 6.483954327456502 55.83377182118092
6.586752472016596 6.586752472016592 55.83377182118092
11.98294060850536 4.432442067402231 55.83377182118092
9.206819265057748 4.323521133043595 55.83377182118092
6.586752472016596 4.220722988483505 55.83377182118092
-11.068965235872593 5.98686258197997 55.83377182118092
-11.068965235872593 4.8206128785201265 55.83377182118092
-1.175465148005265 6.3750333930978655 55.83377182118092
1.6006561954423457 6.483954327456502 55.83377182118092
4.220722988483497 6.586752472016592 55.83377182118092
-1.175465148005265 4.432442067402231 55.83377182118092
1.6006561954423457 4.323521133043595 55.83377182118092
4.220722988483497 4.220722988483505 55.83377182118092
21.465750018967334 6.0501060407980916 44.536253632111126
21.465750018967334 4.757369419702005 44.536253632111126
11.560510765242583 6.686436890229174 46.6325155856524
13.868717541356421 6.538153427216932 44.536253632111126
18.63310425874958 6.232080431982929 44.536253632111126
6.9806552598578735 6.980655259857871 44.536253632111126
11.560510765242583 4.1210385702709225 46.6325155856524
13.868717541356421 4.2693220332831645 44.536253632111126
18.63310425874958 4.575395028517168 44.536253632111126
6.9806552598578735 3.8268202006422256 44.536253632111126
-10.658274558467243 6.0501060407980916 44.536253632111126
-10.658274558467243 4.757369419702005 44.536253632111126
-0.75303530474249 6.686436890229174 46.6325155856524
-3.061242080856328 6.538153427216932 44.536253632111126
-7.825628798249486 6.232080431982929 44.536253632111126
3.82682020064222 6.980655259857871 44.536253632111126
-0.75303530474249 4.1210385702709225 46.6325155856524
-3.061242080856328 4.2693220332831645 44.536253632111126
-7.825628798249486 4.575395028517168 44.536253632111126
3.82682020064222 3.8268202006422256 44.536253632111126
9.105800292197207 1.7016751683028877 11.748040865646091
1.7016751683028877 9.105800292197209 11.748040865646091
0.0 10.807475460500097 0.0
0.0 0.0 0.0
10.807475460500095 10.807475460500097 0.0
10.807475460500095 0.0 0.0
1.7016751683028877 1.7016751683028877 11.748040865646091
2 0 1
2 2 0
2 3 2
2 4 5
2 6 4
2 7 6
2 8 9
2 10 8
2 11 12
2 13 11
2 14 15
2 16 14
2 17 18
2 19 17
2 20 21
2 22 20
2 23 24
2 25 23
2 26 27
2 28 26
2 29 30
2 31 29
2 32 33
2 34 32
2 35 36
2 37 35
2 38 39
2 40 38
2 41 42
2 43 41
2 44 45
2 46 44
2 47 48
2 49 47
2 50 51
2 52 50
2 53 54
2 55 53
2 56 57
2 58 56
2 59 60
2 61 59
2 62 63
2 64 62
2 65 66
2 67 65
2 68 69
2 70 68
2 71 72
2 73 71
2 74 75
2 76 74
2 77 78
2 79 77
2 80 81
2 82 80
2 83 84
2 85 83
2 86 87
2 88 86
2 89 90
2 91 89
2 92 93
2 94 92
2 95 96
2 97 95
2 98 99
2 100 98
2 101 100
2 102 103
2 104 102
2 105 104
2 106 107
2 108 106
2 109 108
2 110 109
2 111 112
2 113 111
2 114 113
2 115 114
2 116 117
2 118 116
2 119 118
2 120 119
2 121 122
2 123 121
2 124 123
2 125 124
2 126 127
2 128 126
2 129 128
2 130 129
2 131 132
2 133 131
2 134 133
2 135 134
2 136 137
2 138 136
2 139 138
2 140 139
2 141 142
2 143 141
2 144 143
2 145 144
2 146 147
2 148 146
2 149 150
2 151 149
2 152 153
2 154 152
2 155 154
2 156 157
2 158 156
2 159 120
2 157 159
2 160 161
2 162 160
2 163 140
2 161 163
2 164 165
2 166 164
2 167 125
2 165 167
2 168 169
2 170 168
2 171 170
2 172 171
2 173 174
2 175 173
2 176 175
2 177 176
2 178 162
2 161 178
2 179 161
2 140 179
2 180 181
2 182 180
2 183 182
2 181 183
2 184 185
2 186 184
2 187 145
2 185 187
2 188 189
2 190 188
2 191 190
2 192 186
2 185 192
2 193 185
2 145 193
2 194 195
2 196 194
2 197 196
2 198 197
2 199 198
2 200 201
2 202 200
2 203 202
2 204 203
2 205 204
2 206 207
2 198 206
2 208 198
2 207 208
2 209 210
2 211 209
2 212 211
2 210 212
2 213 214
2 215 213
2 216 215
2 217 218
2 219 217
2 220 219
2 221 222
2 223 221
2 198 223
2 224 225
2 226 224
2 227 228
2 229 227
2 208 229
2 230 231
2 232 230
2 233 234
2 235 233
2 206 235
2 236 237
2 238 236
2 239 240
2 241 239
2 207 241
2 242 243
2 244 242
2 209 245
2 246 209
2 247 246
2 248 247
2 249 248
2 210 250
2 251 210
2 252 251
2 206 252
2 253 206
2 209 254
2 255 209
2 247 255
2 256 247
2 249 256
2 257 249
2 258 257
2 259 258
2 260 259
2 261 260
2 262 261
2 263 262
2 211 250
2 251 211
2 264 251
2 206 264
2 265 206
2 266 265
2 267 266
2 268 267
2 269 268
2 270 269
2 271 270
2 272 271
2 273 274
2 275 273
2 276 275
2 277 276
2 278 277
2 279 278
2 280 279
2 281 280
2 282 274
2 283 282
2 284 283
2 285 284
2 286 285
2 287 286
2 288 287
2 289 288
2 290 291
2 292 290
2 293 292
2 294 293
2 295 294
2 296 295
2 297 296
2 298 297
2 299 291
2 300 299
2 301 300
2 302 301
2 303 302
2 304 303
2 305 304
2 306 305
2 210 307
2 308 210
2 252 308
2 309 252
2 253 309
2 310 253
2 311 310
2 312 311
2 313 312
2 314 313
2 315 314
2 316 315
2 212 245
2 246 212
2 317 246
2 207 317
2 318 207
2 319 318
2 320 319
2 321 320
2 322 321
2 323 322
2 324 323
2 325 324
2 250 245
2 195 250
2 201 195
2 245 201
2 326 327
2 328 326
2 318 328
2 327 318
2 125 145
2 329 125
2 330 329
2 145 330
2 3 331
2 332 333
2 334 335
2 336 38
2 80 17
2 337 338
2 339 340
2 341 342
2 343 344
2 345 346
2 347 348
2 349 350
2 351 352
2 95 92
2 104 353
2 354 355
2 356 357
2 358 359
2 360 71
2 361 74
2 362 77
2 363 80
2 83 364
2 86 365
2 89 68
2 366 367
2 368 369
2 370 371
2 372 29
2 373 32
2 374 35
2 375 38
2 376 377
2 378 379
2 47 26
2 181 182
2 183 180
2 380 381
2 382 383
2 384 385
2 201 318
2 195 328
2 386 387
2 388 389
2 390 391
2 392 393
2 394 395
2 149 146
2 190 396
2 397 201
2 254 397
2 250 398
2 398 245
2 399 400
2 333 401
2 195 402
2 195 399
2 403 399
2 332 404
2 201 405
2 201 400
2 406 400
2 407 408
2 334 409
2 250 410
2 250 407
2 411 407
2 335 412
2 245 413
2 245 408
2 414 408
2 415 416
2 417 418
2 222 417
2 226 419
2 415 198
2 420 415
2 421 422
2 228 421
2 232 423
2 416 208
2 424 416
2 425 426
2 427 428
2 234 427
2 238 429
2 425 206
2 430 425
2 431 432
2 240 431
2 244 433
2 426 207
2 434 426
2 250 326
2 327 245
2 318 435
2 328 306
2 326 436
2 327 325
2 325 437
2 438 272
2 436 439
2 306 437
2 435 439
2 440 306
2 441 440
2 435 438
2 439 306
2 437 436
2 438 437
2 440 435
2 438 441
