ply
format ascii 1.0
element vertex 510
property float x
property float y
property float z
element edge 678
property list uchar int vertex_indices
end_header
13.168408218571443 4.0715163961708924 6.761789597917083
17.78207223062472 7.29262615222091 6.761789597917083
17.78207223062472 0.850406640120875 6.761789597917083
22.395736242677998 4.0715163961708924 6.761789597917083
10.536870496773474 4.0715163961708924 6.761789597917083
5.923206484720197 7.29262615222091 6.761789597917083
5.923206484720197 0.850406640120875 6.761789597917083
1.3095424726669194 4.0715163961708924 6.761789597917083
15.475240224598082 5.682071274195901 6.761789597917083
15.475240224598082 2.4609615181458837 6.761789597917083
20.08890423665136 5.682071274195901 6.761789597917083
20.08890423665136 2.4609615181458837 6.761789597917083
13.168408218571443 0.8504066401208759 6.761789597917083
22.395736242677998 0.8504066401208759 6.761789597917083
13.168408218571443 7.292626152220909 6.761789597917083
22.395736242677998 7.292626152220909 6.761789597917083
8.230038490746836 5.682071274195901 6.761789597917083
8.230038490746836 2.4609615181458837 6.761789597917083
3.616374478693558 5.682071274195901 6.761789597917083
3.616374478693558 2.4609615181458837 6.761789597917083
10.536870496773474 0.8504066401208759 6.761789597917083
1.3095424726669194 0.8504066401208759 6.761789597917083
10.536870496773474 7.292626152220909 6.761789597917083
1.3095424726669194 7.292626152220909 6.761789597917083
7.556969259604003 5.563156097165827 32.51276237131593
16.148309455740915 5.563156097165827 32.51276237131593
4.289443709836391 5.563156097165827 32.51276237131593
19.415835005508526 5.563156097165827 32.51276237131593
7.556969259604003 2.5798766951759564 32.51276237131593
16.148309455740915 2.5798766951759564 32.51276237131593
4.289443709836391 2.5798766951759564 32.51276237131593
19.415835005508526 2.5798766951759564 32.51276237131593
16.21548804182361 5.511126835902437 34.51412664213824
7.489790673521308 5.511126835902437 34.51412664213824
4.3566222959190855 5.511126835902437 34.51412664213824
19.348656419425833 5.511126835902437 34.51412664213824
7.489790673521308 2.631905956439346 34.51412664213824
16.21548804182361 2.631905956439346 34.51412664213824
4.3566222959190855 2.631905956439346 34.51412664213824
19.348656419425833 2.631905956439346 34.51412664213824
7.1779240129243735 5.269588677543977 43.80516457811169
16.527354702420546 5.269588677543977 43.80516457811169
7.177924012924371 5.269588677543977 43.80516457811169
4.668488956516023 5.269588677543977 43.80516457811169
19.036789758828895 5.269588677543977 43.80516457811169
16.527354702420546 2.8734441147978065 43.80516457811169
7.177924012924371 2.8734441147978065 43.80516457811169
4.668488956516023 2.8734441147978065 43.80516457811169
19.036789758828895 2.8734441147978065 43.80516457811169
7.110278379056579 5.217197691620237 45.82044299634871
16.595000336288336 5.217197691620237 45.82044299634871
4.736134590383814 5.217197691620237 45.82044299634871
18.969144124961105 5.217197691620237 45.82044299634871
16.595000336288336 2.9258351007215464 45.82044299634871
7.110278379056579 2.9258351007215464 45.82044299634871
4.736134590383814 2.9258351007215464 45.82044299634871
18.969144124961105 2.9258351007215464 45.82044299634871
6.798989985388808 4.976107396232578 55.094253377553535
16.90628872995611 4.976107396232578 55.094253377553535
6.798989985388808 4.976107396232578 55.09425337755353
5.047422984051586 4.976107396232578 55.09425337755353
16.90628872995611 4.976107396232578 55.09425337755353
18.65785573129333 4.976107396232578 55.09425337755353
16.90628872995611 3.166925396109205 55.094253377553535
6.798989985388808 3.166925396109205 55.094253377553535
5.047422984051586 3.166925396109205 55.09425337755353
6.798989985388808 3.166925396109205 55.09425337755353
18.65785573129333 3.166925396109205 55.09425337755353
16.90628872995611 3.166925396109205 55.09425337755353
6.7317404999424655 4.924023223996364 57.09772986093499
16.973538215402453 4.924023223996365 57.097729860935
5.114672469497929 4.924023223996364 57.09772986093499
16.973538215402453 4.924023223996364 57.09772986093499
18.59060624584699 4.924023223996364 57.09772986093499
6.7317404999424655 3.2190095683454194 57.097729860935
16.973538215402453 3.2190095683454194 57.097729860935
5.114672469497929 3.2190095683454194 57.09772986093499
6.7317404999424655 3.2190095683454194 57.09772986093499
18.59060624584699 3.2190095683454194 57.09772986093499
16.973538215402453 3.2190095683454194 57.09772986093499
19.831614029420706 2.2578592678318454 20.125998499999998
15.732530431828735 2.2578592678318454 20.125998499999998
19.831614029420706 5.885173524509938 20.125998499999998
15.732530431828735 5.885173524509938 20.125998499999998
18.65785573129333 3.166925396109205 55.094253377553535
18.59060624584699 3.2190095683454194 57.097729860935
-2.9471917119523674 4.584037708056858 57.09772986093502
-4.524815515981292 4.444500903288149 55.98939002342533
-1.4104956721947062 4.54831230261461 55.094253377553564
0.5778457986028336 4.732695843415895 57.09772986093501
2.7644706293691 4.824876656379244 55.09425337755356
5.114672469497947 4.92402322399636 57.097729860935004
26.65247042729728 4.584037708056858 57.09772986093502
28.230094231326206 4.444500903288149 55.98939002342533
25.11577438753962 4.54831230261461 55.094253377553564
23.12743291674208 4.732695843415895 57.09772986093501
20.940808085975814 4.824876656379244 55.09425337755356
18.590606245846967 4.92402322399636 57.097729860935004
-2.9471917119523674 3.5589950842849216 57.09772986093502
-4.524815515981292 3.6985318890536307 55.98939002342533
-1.4104956721947062 3.59472048972717 55.094253377553564
0.5778457986028336 3.410336948925885 57.09772986093501
2.7644706293691 3.3181561359625356 55.09425337755356
5.114672469497947 3.2190095683454194 57.097729860935004
26.65247042729728 3.5589950842849216 57.09772986093502
28.230094231326206 3.6985318890536307 55.98939002342533
25.11577438753962 3.59472048972717 55.094253377553564
23.12743291674208 3.410336948925885 57.09772986093501
20.940808085975814 3.3181561359625356 55.09425337755356
18.590606245846967 3.2190095683454194 57.097729860935004
14.57591058041187 4.976107396232578 55.09425337755353
11.852639357672464 4.924023223996364 57.097729860935
9.129368134933046 4.976107396232578 55.094253377553535
6.7317404999424655 4.924023223996364 57.097729860935
11.852639357672455 4.924023223996364 57.097729860935
14.57591058041187 3.166925396109205 55.09425337755353
11.852639357672464 3.2190095683454194 57.097729860935
9.129368134933046 3.166925396109205 55.094253377553535
11.852639357672455 3.2190095683454194 57.097729860935
11.852639357672459 4.924023223996365 57.09772986093499
11.852639357672457 3.166925396109205 55.094253377553535
11.852639357672457 4.976107396232578 55.094253377553535
26.421711238654638 4.461802483085609 55.094253377553564
30.46919696664202 4.423078442002138 57.097729860935026
26.42171123865465 3.6812303092557173 55.094253377553564
30.46919696664202 3.7199543503396453 57.097729860935026
-2.7164325233097375 4.461802483085609 55.094253377553535
-6.763918251297124 4.423078442002138 57.09772986093499
-2.716432523309753 3.6812303092557173 55.094253377553535
-6.763918251297124 3.7199543503396453 57.09772986093499
9.557482652734986 2.873444114798118 43.80516457811169
7.110278379056581 2.9258351007221894 45.82044299634871
11.852639357672457 2.9258351007215464 45.82044299634871
9.557482652735311 5.269588677544288 43.80516457811169
7.11027837905689 5.21719769162088 45.82044299634871
11.852639357672768 5.217197691620237 45.82044299634871
14.147796062609922 2.8734441147978065 43.80516457811169
11.852639357672459 2.9258351007215464 45.82044299634871
14.147796062609922 5.269588677543977 43.80516457811169
11.852639357672459 5.217197691620237 45.82044299634871
11.852639357672459 5.269588677543977 43.80516457811169
11.852639357672459 2.8734441147978065 43.80516457811169
16.24818084736507 5.485806527450931 35.48810089106149
16.31108520095964 2.7059451683186158 37.36212851064208
16.374401422080652 5.38804973259061 39.248426363935614
16.437799349922948 2.8040842323659723 41.137158399342795
16.498447730832986 5.2919768887994385 42.943976757906555
16.527354702420546 2.873444114797806 43.80516457811169
16.24818084736507 2.657226264890852 35.48810089106149
16.31108520095964 5.437087624023167 37.36212851064208
16.374401422080652 2.754983059751173 39.248426363935614
16.437799349922948 5.338948559975811 41.137158399342795
16.498447730832986 2.8510559035423446 42.943976757906555
19.31596361388437 5.485806527450931 35.48810089106149
19.253059260289803 2.7059451683186158 37.36212851064208
19.18974303916879 5.38804973259061 39.248426363935614
19.126345111326494 2.8040842323659723 41.137158399342795
19.065696730416455 5.2919768887994385 42.943976757906555
19.036789758828895 2.873444114797806 43.80516457811169
19.31596361388437 2.657226264890852 35.48810089106149
19.253059260289803 5.437087624023167 37.36212851064208
19.18974303916879 2.754983059751173 39.248426363935614
19.126345111326494 5.338948559975811 41.137158399342795
19.065696730416455 2.8510559035423446 42.943976757906555
19.284607436754317 5.461521426688129 36.422254707583015
16.341335811138602 5.413658775752366 38.263345608427215
19.15816112088613 5.363589797165581 40.189305393112186
16.468177395221755 5.315421014254961 42.04217200596453
16.279537024495124 5.461521426688129 36.422254707583015
19.22280865011084 5.413658775752366 38.263345608427215
16.40598334036331 5.363589797165581 40.189305393112186
19.095967066027686 5.315421014254961 42.04217200596453
19.284607436754317 2.6815113656536544 36.422254707583015
16.341335811138602 2.729374016589417 38.263345608427215
19.15816112088613 2.7794429951762023 40.189305393112186
16.468177395221755 2.8276117780868217 42.04217200596453
16.279537024495124 2.6815113656536544 36.422254707583015
19.22280865011084 2.729374016589417 38.263345608427215
16.40598334036331 2.7794429951762023 40.189305393112186
19.095967066027686 2.8276117780868217 42.04217200596453
9.491395012227413 5.563156097165827 32.51276237131593
11.852639357672459 5.511126835902437 34.51412664213824
9.49139501222741 2.5798766951759564 32.51276237131593
11.852639357672457 2.631905956439346 34.51412664213824
14.213883703117498 5.563156097165827 32.51276237131593
11.852639357672452 5.511126835902437 34.51412664213824
14.2138837031175 2.5798766951759564 32.51276237131593
11.852639357672453 2.631905956439346 34.51412664213824
11.852639357672455 5.563156097165827 32.51276237131593
11.852639357672455 2.5798766951759564 32.51276237131593
16.626040049902187 5.193157689242575 46.7451688267919
16.595000336288336 4.071516396170892 45.82044299634871
16.688206343825954 2.998022385394714 48.59720839421166
16.7535619774681 5.094393007324877 50.54426381314126
16.815120134730392 3.0963160704801087 52.37818595569369
16.875602018566827 4.999874001296608 54.18004408342
16.626040049902187 2.949875103099208 46.7451688267919
16.688206343825954 5.145010406947069 48.59720839421166
16.7535619774681 3.048639785016906 50.54426381314126
16.815120134730392 5.046716721861674 52.37818595569369
16.875602018566827 3.143158791045175 54.18004408342
18.938104411347254 5.193157689242575 46.7451688267919
18.969144124961105 4.071516396170892 45.82044299634871
18.875938117423487 2.998022385394714 48.59720839421166
18.810582483781342 5.094393007324877 50.54426381314126
18.74902432651905 3.0963160704801087 52.37818595569369
18.688542442682614 4.999874001296608 54.18004408342
18.938104411347254 2.949875103099208 46.7451688267919
18.875938117423487 5.145010406947069 48.59720839421166
18.810582483781342 3.048639785016906 50.54426381314126
18.74902432651905 5.046716721861674 52.37818595569369
18.688542442682614 3.143158791045175 54.18004408342
18.65785573129333 4.976107396232578 55.094253377553535
16.84268674763777 5.02536660735734 53.19944221244944
18.778257757633686 5.0693577733303155 51.5072723512549
16.719069120985466 5.121107440395059 49.51666298692012
18.90864659518014 5.17034285340008 47.62276724335781
18.72145771361167 5.02536660735734 53.19944221244944
16.785886703615756 5.0693577733303155 51.5072723512549
18.845075340263975 5.121107440395059 49.51666298692012
16.6554978660693 5.17034285340008 47.62276724335781
16.84268674763777 3.1176661849844427 53.19944221244944
18.778257757633686 3.0736750190114672 51.5072723512549
16.719069120985466 3.0219253519467237 49.51666298692012
18.90864659518014 2.972689938941703 47.62276724335781
18.72145771361167 3.1176661849844427 53.19944221244944
16.785886703615756 3.0736750190114672 51.5072723512549
18.845075340263975 3.0219253519467237 49.51666298692012
16.6554978660693 2.972689938941703 47.62276724335781
19.787370189732286 2.292125757031407 21.44409769082545
19.831614029420706 4.071516396170892 20.125998499999998
19.701269969777506 5.784223124557204 24.009169598044846
19.61474383198337 2.4258234483940964 26.5869303216818
19.530804094666223 5.652198709191575 29.08763777869718
19.45274167274924 2.551292785567254 31.41325001957079
19.787370189732286 5.850907035310376 21.44409769082545
19.701269969777506 2.3588096677845787 24.009169598044846
19.61474383198337 5.717209343947687 26.5869303216818
19.530804094666223 2.490834083150208 29.08763777869718
19.45274167274924 5.591740006774529 31.41325001957079
15.776774271517155 2.292125757031407 21.44409769082545
15.732530431828735 4.071516396170892 20.125998499999998
15.862874491471935 5.784223124557204 24.009169598044846
15.949400629266073 2.4258234483940964 26.5869303216818
16.033340366583218 5.652198709191575 29.08763777869718
16.1114027885002 2.551292785567254 31.41325001957079
15.776774271517155 5.850907035310376 21.44409769082545
15.862874491471935 2.3588096677845787 24.009169598044846
15.949400629266073 5.717209343947687 26.5869303216818
16.033340366583218 2.490834083150208 29.08763777869718
16.1114027885002 5.591740006774529 31.41325001957079
16.07279014151554 5.62164518363495 30.26291363139721
19.57211787082668 5.684195888337083 27.85683016094652
15.904695061720247 5.751833437567443 25.255075473130525
19.744996185536472 5.818088718289442 22.70649130394474
19.4913543197339 5.62164518363495 30.26291363139721
15.99202659042276 5.684195888337083 27.85683016094652
19.659449399529194 5.751833437567443 25.255075473130525
15.819148275712969 5.818088718289442 22.70649130394474
16.07279014151554 2.5213876087068328 30.26291363139721
19.57211787082668 2.4588369040047007 27.85683016094652
15.904695061720247 2.3911993547743395 25.255075473130525
19.744996185536472 2.324944074052342 22.70649130394474
19.4913543197339 2.5213876087068328 30.26291363139721
15.99202659042276 2.4588369040047007 27.85683016094652
19.659449399529194 2.3911993547743395 25.255075473130525
15.819148275712969 2.324944074052342 22.70649130394474
7.079238665442729 5.193157689242575 46.7451688267919
7.11027837905658 4.071516396170892 45.82044299634871
7.017072371518962 2.998022385394714 48.59720839421166
6.9517167378768185 5.094393007324877 50.54426381314126
6.890158580614525 3.0963160704801087 52.37818595569369
6.829676696778091 4.999874001296608 54.18004408342
7.079238665442729 2.949875103099208 46.7451688267919
7.017072371518962 5.145010406947069 48.59720839421166
6.9517167378768185 3.048639785016906 50.54426381314126
6.890158580614525 5.046716721861674 52.37818595569369
6.829676696778091 3.143158791045175 54.18004408342
4.767174303997665 5.193157689242575 46.7451688267919
4.736134590383814 4.071516396170892 45.82044299634871
4.829340597921432 2.998022385394714 48.59720839421166
4.894696231563575 5.094393007324877 50.54426381314126
4.956254388825869 3.0963160704801087 52.37818595569369
5.016736272662302 4.999874001296608 54.18004408342
5.047422984051586 3.166925396109205 55.094253377553535
4.767174303997665 2.949875103099208 46.7451688267919
4.829340597921432 5.145010406947069 48.59720839421166
4.894696231563575 3.048639785016906 50.54426381314126
4.956254388825869 5.046716721861674 52.37818595569369
5.016736272662302 3.143158791045175 54.18004408342
5.047422984051586 4.976107396232578 55.094253377553535
6.8625919677071465 5.02536660735734 53.19944221244944
4.927020957711232 5.0693577733303155 51.5072723512549
6.986209594359453 5.121107440395059 49.51666298692012
4.796632120164777 5.17034285340008 47.62276724335781
4.983821001733247 5.02536660735734 53.19944221244944
6.919392011729162 5.0693577733303155 51.5072723512549
4.860203375080941 5.121107440395059 49.51666298692012
7.049780849275617 5.17034285340008 47.62276724335781
4.736134590383815 5.217197691620237 45.82044299634871
6.8625919677071465 3.1176661849844427 53.19944221244944
4.927020957711232 3.0736750190114672 51.5072723512549
6.986209594359453 3.0219253519467237 49.51666298692012
4.796632120164777 2.972689938941703 47.62276724335781
4.983821001733247 3.1176661849844427 53.19944221244944
6.919392011729162 3.0736750190114672 51.5072723512549
4.860203375080941 3.0219253519467237 49.51666298692012
7.049780849275617 2.972689938941703 47.62276724335781
4.736134590383815 2.9258351007215464 45.82044299634871
7.457097867979849 5.485806527450931 35.48810089106149
7.39419351438528 2.7059451683186158 37.36212851064208
7.330877293264265 5.38804973259061 39.248426363935614
7.267479365421968 2.8040842323659723 41.137158399342795
7.206830984511931 5.2919768887994385 42.943976757906555
7.177924012924371 2.873444114797806 43.80516457811169
7.457097867979849 2.657226264890852 35.48810089106149
7.39419351438528 5.437087624023167 37.36212851064208
7.330877293264265 2.754983059751173 39.248426363935614
7.267479365421968 5.338948559975811 41.137158399342795
7.206830984511931 2.8510559035423446 42.943976757906555
4.389315101460545 5.485806527450931 35.48810089106149
4.452219455055114 2.7059451683186158 37.36212851064208
4.515535676176128 5.38804973259061 39.248426363935614
4.578933604018426 2.8040842323659723 41.137158399342795
4.639581984928463 5.2919768887994385 42.943976757906555
4.668488956516023 2.873444114797806 43.80516457811169
4.389315101460545 2.657226264890852 35.48810089106149
4.452219455055114 5.437087624023167 37.36212851064208
4.515535676176128 2.754983059751173 39.248426363935614
4.578933604018426 5.338948559975811 41.137158399342795
4.639581984928463 2.8510559035423446 42.943976757906555
4.420671278590601 5.461521426688129 36.422254707583015
7.363942904206314 5.413658775752366 38.263345608427215
4.547117594458785 5.363589797165581 40.189305393112186
7.2371013201231635 5.315421014254961 42.04217200596453
7.425741690849793 5.461521426688129 36.422254707583015
4.48247006523408 5.413658775752366 38.263345608427215
7.299295374981608 5.363589797165581 40.189305393112186
4.60931164931723 5.315421014254961 42.04217200596453
4.420671278590601 2.6815113656536544 36.422254707583015
7.363942904206314 2.729374016589417 38.263345608427215
4.547117594458785 2.7794429951762023 40.189305393112186
7.2371013201231635 2.8276117780868217 42.04217200596453
7.425741690849793 2.6815113656536544 36.422254707583015
4.48247006523408 2.729374016589417 38.263345608427215
7.299295374981608 2.7794429951762023 40.189305393112186
4.60931164931723 2.8276117780868217 42.04217200596453
3.9179085256126314 2.292125757031407 21.44409769082545
3.8736646859242114 4.071516396170892 20.125998499999998
4.004008745567411 5.784223124557204 24.009169598044846
4.090534883361549 2.4258234483940964 26.5869303216818
4.174474620678694 5.652198709191575 29.08763777869718
4.2525370425956766 2.551292785567254 31.41325001957079
3.9179085256126314 5.850907035310376 21.44409769082545
4.004008745567411 2.3588096677845787 24.009169598044846
4.090534883361549 5.717209343947687 26.5869303216818
4.174474620678694 2.490834083150208 29.08763777869718
4.2525370425956766 5.591740006774529 31.41325001957079
7.928504443827762 2.292125757031407 21.44409769082545
7.972748283516182 4.071516396170892 20.125998499999998
7.8424042238729825 5.784223124557204 24.009169598044846
7.7558780860788445 2.4258234483940964 26.5869303216818
7.6719383487616994 5.652198709191575 29.08763777869718
7.593875926844717 2.551292785567254 31.41325001957079
7.928504443827762 5.850907035310376 21.44409769082545
7.8424042238729825 2.3588096677845787 24.009169598044846
7.7558780860788445 5.717209343947687 26.5869303216818
7.6719383487616994 2.490834083150208 29.08763777869718
7.593875926844717 5.591740006774529 31.41325001957079
7.632488573829377 5.62164518363495 30.26291363139721
4.133160844518237 5.684195888337083 27.85683016094652
7.80058365362467 5.751833437567443 25.255075473130525
3.9602825298084454 5.818088718289442 22.70649130394474
7.972748283516182 5.885173524509938 20.125998499999998
4.213924395611016 5.62164518363495 30.26291363139721
7.713252124922157 5.684195888337083 27.85683016094652
4.045829315815723 5.751833437567443 25.255075473130525
7.886130439631948 5.818088718289442 22.70649130394474
3.8736646859242114 5.885173524509938 20.125998499999998
7.632488573829377 2.5213876087068328 30.26291363139721
4.133160844518237 2.4588369040047007 27.85683016094652
7.80058365362467 2.3911993547743395 25.255075473130525
3.9602825298084454 2.324944074052342 22.70649130394474
7.972748283516182 2.2578592678318454 20.125998499999998
4.213924395611016 2.5213876087068328 30.26291363139721
7.713252124922157 2.4588369040047007 27.85683016094652
4.045829315815723 2.3911993547743395 25.255075473130525
7.886130439631948 2.324944074052342 22.70649130394474
3.8736646859242114 2.2578592678318454 20.125998499999998
11.852639357672459 0.12817806179580593 -0.09599972000000001
11.852639357672459 8.014854730545979 -0.09599972000000001
9.744115281903461 1.285551815546419 10.89363099181066
9.28431840939406 4.0715163961708924 13.290092995442695
9.744115281903461 6.857480976795366 10.89363099181066
8.84036454642763 1.7816226895728682 15.603981209075496
8.403415785252172 4.071516396170892 17.881358821446444
8.84036454642763 6.361410102768916 15.603981209075496
2.1022976875369324 6.857480976795366 10.89363099181066
5.923206484720197 6.60509740744726 13.290092995442695
3.006048423012764 6.361410102768916 15.603981209075496
5.923206484720197 6.121567914704791 17.881358821446444
3.8736646859242114 5.8851735245099395 20.125998499999998
7.972748283516182 5.8851735245099395 20.125998499999998
5.923206484720197 2.0214648776369946 17.881358821446444
3.006048423012764 1.7816226895728682 15.603981209075496
5.923206484720197 1.537935384894525 13.290092995442695
2.1022976875369324 1.285551815546419 10.89363099181066
5.923206484720197 7.292626152220908 6.761789597917083
-0.0062263882320650055 8.014854730545979 -0.09599972000000001
5.923206484720197 0.8504066401208767 6.761789597917083
-0.0062263882320650055 0.12817806179580593 -0.09599972000000001
2.562094560046333 4.0715163961708924 13.290092995442695
3.442997184188222 4.071516396170892 17.881358821446444
9.28431840939406 1.537935384894525 13.290092995442695
9.28431840939406 6.60509740744726 13.290092995442695
2.562094560046333 1.537935384894525 13.290092995442695
2.562094560046333 6.60509740744726 13.290092995442695
8.403415785252164 2.0214648776369946 17.881358821446444
8.403415785252164 6.121567914704789 17.881358821446444
3.442997184188222 2.0214648776369946 17.881358821446444
3.442997184188222 6.121567914704789 17.881358821446444
15.732530431828737 2.257859267831847 20.125998499999998
15.732530431828737 5.8851735245099395 20.125998499999998
19.831614029420713 2.257859267831847 20.125998499999998
19.831614029420713 5.8851735245099395 20.125998499999998
15.301862930092753 2.0214648776369963 17.881358821446444
15.301862930092753 6.121567914704791 17.881358821446444
20.262281531156695 2.0214648776369963 17.881358821446444
20.262281531156695 6.121567914704791 17.881358821446444
13.168408218571447 0.8504066401208776 6.761789597917083
13.168408218571447 7.292626152220911 6.761789597917083
22.395736242678005 0.8504066401208776 6.761789597917083
22.395736242678005 7.292626152220911 6.761789597917083
14.420960305950858 1.5379353848945267 13.290092995442695
14.420960305950858 6.6050974074472615 13.290092995442695
21.14318415529859 1.5379353848945267 13.290092995442695
21.14318415529859 6.6050974074472615 13.290092995442695
20.262281531156695 4.071516396170893 17.881358821446444
20.699230292332157 1.78162268957287 15.603981209075496
21.14318415529859 4.071516396170894 13.290092995442695
20.699230292332157 6.361410102768918 15.603981209075496
21.60298102780799 1.2855518155464207 10.89363099181066
22.395736242678005 4.071516396170894 6.761789597917083
21.60298102780799 6.857480976795368 10.89363099181066
23.71150510357699 0.1281780617958077 -0.09599972000000001
23.71150510357699 8.01485473054598 -0.09599972000000001
17.782072230624724 0.8504066401208785 6.761789597917083
11.85263935767246 0.1281780617958077 -0.09599972000000001
17.782072230624724 7.29262615222091 6.761789597917083
11.85263935767246 8.01485473054598 -0.09599972000000001
17.782072230624728 0.8504066401208767 6.761789597917083
17.782072230624724 1.5379353848945267 13.290092995442695
13.961163433441463 1.2855518155464207 10.89363099181066
17.782072230624724 2.0214648776369963 17.881358821446444
14.864914168917293 1.78162268957287 15.603981209075496
17.782072230624724 6.121567914704793 17.881358821446444
19.831614029420713 5.885173524509941 20.125998499999998
15.732530431828737 5.885173524509941 20.125998499999998
17.782072230624724 6.6050974074472615 13.290092995442695
14.864914168917293 6.361410102768918 15.603981209075496
17.782072230624728 7.292626152220912 6.761789597917083
13.961163433441463 6.857480976795368 10.89363099181066
15.301862930092751 4.071516396170893 17.881358821446444
14.86491416891729 1.78162268957287 15.603981209075496
14.420960305950857 4.071516396170894 13.290092995442695
14.86491416891729 6.361410102768918 15.603981209075496
13.961163433441461 1.2855518155464207 10.89363099181066
13.168408218571445 4.071516396170894 6.761789597917083
13.961163433441461 6.857480976795368 10.89363099181066
11.852639357672459 0.1281780617958077 -0.09599972000000001
11.852639357672459 8.01485473054598 -0.09599972000000001
18.590606245846967 4.924023223996364 57.097729860935004
18.657855731293367 4.976107396232578 55.09425337755355
18.657855731293314 3.166925396109205 55.09425337755355
5.114672469497928 4.924023223996364 57.09772986093499
5.114672469497928 3.2190095683454194 57.09772986093499
5.047422984051531 4.976107396232578 55.094253377553535
5.047422984051585 3.166925396109205 55.094253377553535
9.557482652734986 2.87344411479812 43.80516457811169
14.147796062609922 2.8734441147978087 43.80516457811169
18.969144124961097 2.9258351007215464 45.82044299634871
30.11857686577827 3.804809338519603 43.80516457811169
18.969144124961097 5.217197691620237 45.82044299634871
30.11857686577827 4.3382234538221764 43.80516457811169
19.03678975882889 5.2695886775439735 43.80516457811169
19.03678975882889 2.8734441147978065 43.80516457811169
-6.41329815043336 3.804809338519603 43.80516457811169
-6.41329815043336 4.3382234538221764 43.80516457811169
4.668488956516023 5.2695886775439735 43.80516457811169
16.2154880418236 5.511126835902437 34.51412664213824
16.2154880418236 2.631905956439346 34.51412664213824
26.723651536292355 3.802849613877399 32.51276237131593
26.723651536292355 4.340183178464381 32.51276237131593
19.415835005508526 5.563156097165822 32.51276237131593
19.415835005508526 2.5798766951759573 32.51276237131593
-3.0183728209474374 3.802849613877399 32.51276237131593
-3.0183728209474374 4.340183178464381 32.51276237131593
4.289443709836392 5.563156097165822 32.51276237131593
4.289443709836392 2.5798766951759573 32.51276237131593
17.78207223062472 4.071516396170892 59.02269628744577
5.923206484720197 4.071516396170892 59.02269628744577
5.114672469497929 3.2190095683454194 57.097729860935
6.7317404999424655 4.924023223996365 57.097729860935
4.66848895651602 5.269588677543977 43.80516457811169
4.66848895651602 2.8734441147978065 43.80516457811169
7.1779240129243735 2.8734441147978065 43.80516457811169
-0.0062263882320650055 0.12817806179580415 -0.09599972000000001
11.852639357672459 0.12817806179580415 -0.09599972000000001
11.85263935767246 0.12817806179580593 -0.09599972000000001
23.71150510357699 0.12817806179580593 -0.09599972000000001
2 0 1
2 2 0
2 3 2
2 1 3
2 4 5
2 6 4
2 7 6
2 5 7
2 8 9
2 10 11
2 12 9
2 13 11
2 14 8
2 15 10
2 16 17
2 18 19
2 20 17
2 21 19
2 22 16
2 23 18
2 24 25
2 24 26
2 25 27
2 28 29
2 30 28
2 31 29
2 32 33
2 33 34
2 32 35
2 36 37
2 38 36
2 39 37
2 40 41
2 42 43
2 41 44
2 45 46
2 47 46
2 48 45
2 49 50
2 49 51
2 50 52
2 53 54
2 55 54
2 56 53
2 57 58
2 59 60
2 61 62
2 63 64
2 65 66
2 67 68
2 69 70
2 69 71
2 72 73
2 74 75
2 76 77
2 78 79
2 80 31
2 81 29
2 82 27
2 83 25
2 39 31
2 37 29
2 35 27
2 32 25
2 45 53
2 53 63
2 48 56
2 56 84
2 41 50
2 50 58
2 44 52
2 52 62
2 39 48
2 35 44
2 37 45
2 32 41
2 63 75
2 84 85
2 58 70
2 62 73
2 86 87
2 88 86
2 89 88
2 90 89
2 91 90
2 92 93
2 94 92
2 95 94
2 96 95
2 97 96
2 98 99
2 100 98
2 101 100
2 102 101
2 103 102
2 104 105
2 106 104
2 107 106
2 108 107
2 109 108
2 110 72
2 111 110
2 112 113
2 114 112
2 115 79
2 116 115
2 117 74
2 118 117
2 118 119
2 120 118
2 121 120
2 119 121
2 122 123
2 124 122
2 125 124
2 123 125
2 126 127
2 128 126
2 129 128
2 127 129
2 130 131
2 132 130
2 133 134
2 135 133
2 136 53
2 137 136
2 138 50
2 139 138
2 140 141
2 139 140
2 132 139
2 141 132
2 142 37
2 143 142
2 144 143
2 145 144
2 146 145
2 147 146
2 148 32
2 149 148
2 150 149
2 151 150
2 152 151
2 41 152
2 153 39
2 154 153
2 155 154
2 156 155
2 157 156
2 158 157
2 159 35
2 160 159
2 161 160
2 162 161
2 163 162
2 44 163
2 164 32
2 165 164
2 166 165
2 167 166
2 44 167
2 168 35
2 169 168
2 170 169
2 171 170
2 41 171
2 172 37
2 173 172
2 174 173
2 175 174
2 48 175
2 176 39
2 177 176
2 178 177
2 179 178
2 45 179
2 44 48
2 45 41
2 180 181
2 182 180
2 183 182
2 184 185
2 186 184
2 187 186
2 188 181
2 189 188
2 183 189
2 181 183
2 190 191
2 192 190
2 193 192
2 194 193
2 195 194
2 63 195
2 196 191
2 197 196
2 198 197
2 199 198
2 200 199
2 58 200
2 201 202
2 203 201
2 204 203
2 205 204
2 206 205
2 84 206
2 207 202
2 208 207
2 209 208
2 210 209
2 211 210
2 212 211
2 213 212
2 214 213
2 215 214
2 216 215
2 50 216
2 217 58
2 218 217
2 219 218
2 220 219
2 52 220
2 221 84
2 222 221
2 223 222
2 224 223
2 53 224
2 225 63
2 226 225
2 227 226
2 228 227
2 56 228
2 73 78
2 79 72
2 62 67
2 68 61
2 52 56
2 53 50
2 37 32
2 35 39
2 229 230
2 231 229
2 232 231
2 233 232
2 234 233
2 27 234
2 235 230
2 236 235
2 237 236
2 238 237
2 239 238
2 31 239
2 240 241
2 242 240
2 243 242
2 244 243
2 245 244
2 25 245
2 246 241
2 247 246
2 248 247
2 249 248
2 250 249
2 29 250
2 251 27
2 252 251
2 253 252
2 254 253
2 83 254
2 255 25
2 256 255
2 257 256
2 258 257
2 82 258
2 259 31
2 260 259
2 261 260
2 262 261
2 81 262
2 263 29
2 264 263
2 265 264
2 266 265
2 80 266
2 27 31
2 29 25
2 267 268
2 269 267
2 270 269
2 271 270
2 272 271
2 64 272
2 273 268
2 274 273
2 275 274
2 276 275
2 277 276
2 57 277
2 278 279
2 280 278
2 281 280
2 282 281
2 283 282
2 284 283
2 285 279
2 286 285
2 287 286
2 288 287
2 289 288
2 290 289
2 291 290
2 292 291
2 293 292
2 294 293
2 49 294
2 295 57
2 296 295
2 297 296
2 298 297
2 299 298
2 300 284
2 301 300
2 302 301
2 303 302
2 54 303
2 304 64
2 305 304
2 306 305
2 307 306
2 308 307
2 71 76
2 77 69
2 60 65
2 66 59
2 51 55
2 54 49
2 309 36
2 310 309
2 311 310
2 312 311
2 313 312
2 314 313
2 315 33
2 316 315
2 317 316
2 318 317
2 319 318
2 42 319
2 320 38
2 321 320
2 322 321
2 323 322
2 324 323
2 325 324
2 326 34
2 327 326
2 328 327
2 329 328
2 330 329
2 43 330
2 331 33
2 332 331
2 333 332
2 334 333
2 43 334
2 335 34
2 336 335
2 337 336
2 338 337
2 42 338
2 339 36
2 340 339
2 341 340
2 342 341
2 47 342
2 343 38
2 344 343
2 345 344
2 346 345
2 46 346
2 43 47
2 46 42
2 36 33
2 34 38
2 347 348
2 349 347
2 350 349
2 351 350
2 352 351
2 26 352
2 353 348
2 354 353
2 355 354
2 356 355
2 357 356
2 30 357
2 358 359
2 360 358
2 361 360
2 362 361
2 363 362
2 24 363
2 364 359
2 365 364
2 366 365
2 367 366
2 368 367
2 28 368
2 369 26
2 370 369
2 371 370
2 372 371
2 373 372
2 374 24
2 375 374
2 376 375
2 377 376
2 378 377
2 379 30
2 380 379
2 381 380
2 382 381
2 383 382
2 384 28
2 385 384
2 386 385
2 387 386
2 388 387
2 26 30
2 28 24
2 4 389
2 390 4
2 391 392
2 4 391
2 393 4
2 392 393
2 394 395
2 392 394
2 396 392
2 395 396
2 395 383
2 373 395
2 397 5
2 398 397
2 393 398
2 5 393
2 399 398
2 400 399
2 396 400
2 398 396
2 400 401
2 402 400
2 403 388
2 383 403
2 404 405
2 403 404
2 394 403
2 405 394
2 406 6
2 405 406
2 391 405
2 6 391
2 407 390
2 408 407
2 409 389
2 410 409
2 7 410
2 408 7
2 406 411
2 7 406
2 397 7
2 411 397
2 404 412
2 411 404
2 399 411
2 412 399
2 412 388
2 378 412
2 413 414
2 415 413
2 416 415
2 414 416
2 20 22
2 21 20
2 23 21
2 22 23
2 417 418
2 419 417
2 420 419
2 418 420
2 383 373
2 388 383
2 378 388
2 373 378
2 421 422
2 423 421
2 424 423
2 422 424
2 425 426
2 427 425
2 428 427
2 426 428
2 429 430
2 431 429
2 432 431
2 430 432
2 433 434
2 435 433
2 436 435
2 434 436
2 437 423
2 424 437
2 438 437
2 439 438
2 440 439
2 437 440
2 441 439
2 442 441
2 443 442
2 439 443
2 442 444
2 445 442
2 446 447
2 444 446
2 448 449
2 445 448
2 441 450
2 451 441
2 452 451
2 450 452
2 438 451
2 453 438
2 454 453
2 451 454
2 453 423
2 421 453
2 455 456
2 457 455
2 440 458
2 455 440
2 459 455
2 458 459
2 443 460
2 458 443
2 461 458
2 460 461
2 462 421
2 422 462
2 463 462
2 464 463
2 465 464
2 462 465
2 466 464
2 467 466
2 468 467
2 464 468
2 467 469
2 470 467
2 471 123
2 109 125
2 472 122
2 473 124
2 474 127
2 475 129
2 476 126
2 477 128
2 133 478
2 138 479
2 480 481
2 482 483
2 481 483
2 484 483
2 485 481
2 308 486
2 51 487
2 486 487
2 488 487
2 47 486
2 184 489
2 186 490
2 180 33
2 182 36
2 491 39
2 35 492
2 492 491
2 493 492
2 494 491
2 495 38
2 34 496
2 496 495
2 497 496
2 498 495
2 73 499
2 499 85
2 70 499
2 499 75
2 73 84
2 58 73
2 79 58
2 84 79
2 62 85
2 72 62
2 63 72
2 85 63
2 53 48
2 56 45
2 44 56
2 52 158
2 52 41
2 53 41
2 50 45
2 39 27
2 35 31
2 32 29
2 37 25
2 32 27
2 35 25
2 37 31
2 39 29
2 71 500
2 500 501
2 502 500
2 500 74
2 71 284
2 57 71
2 77 57
2 284 77
2 60 501
2 69 60
2 64 69
2 501 64
2 54 47
2 308 46
2 43 55
2 51 325
2 51 42
2 54 42
2 49 46
2 60 71
2 51 60
2 503 51
2 57 502
2 49 57
2 40 49
2 284 501
2 308 284
2 504 308
2 64 74
2 54 64
2 505 54
2 33 42
2 36 46
2 34 43
2 38 47
2 38 26
2 34 30
2 33 28
2 36 24
2 33 26
2 34 24
2 36 30
2 38 28
2 33 24
2 34 26
2 36 28
2 38 30
2 373 24
2 378 26
2 383 28
2 388 30
2 506 388
2 507 383
2 408 378
2 390 373
2 449 422
2 445 424
2 508 421
2 509 423
