ply
format ascii 1.0
comment Converted from DAT line segments
element vertex 1298
property float x
property float y
property float z
element edge 649
property list uchar int vertex_indices
end_header
-4.40403 4.814836 57.031997
23.074441 4.814918 57.010001
-2.605317 3.531308 55.096999
26.576193 3.381349 55.173003
0.698939 3.442328 57.059997
28.344303 3.384127 57.002997
-1.579092 4.928356 55.207999
21.698399 4.862466 55.169997
-5.236035 3.806373 57.001998
30.705489 3.811741 57.094001
-6.470171 4.494834 43.811
30.11376 4.463102 43.844001
-2.571377 3.46094 43.836001
29.972673 3.388894 43.853
-6.037551 3.957554 43.818
29.826321 3.908121 43.796
-6.458409 4.830111 43.850001
26.0012 4.717337 43.908
-3.144732 3.93034 32.506999
26.69475 3.854874 32.547
-6.901972 4.598821 57.045997
25.684795 4.582074 57.059997
1.445155 3.333864 55.175002
24.394656 3.300598 55.121001
-2.759276 4.497902 55.197997
26.499887 4.402745 55.115996
-2.588404 4.719098 55.133002
23.870164 4.747681 55.041999
-2.672845 4.67837 32.558002
23.783733 4.567212 32.56
-6.54999 3.797129 43.774001
30.188252 3.80513 43.804999
-0.087477 5.144723 43.921
21.394752 5.132349 43.867
-2.987437 4.179684 32.509002
26.858834 4.090144 32.464999
2.93648 5.493016 32.584998
20.412768 5.369961 32.54
-2.323847 3.667068 55.11
26.693755 3.785004 55.096
-6.418851 4.172636 43.791999
30.157297 4.085107 43.797
-2.033247 4.934823 43.874999
23.928448 4.914573 43.811999
0.366678 5.138257 32.606002
22.492308 5.158652 32.519
-3.079837 3.579995 57.018996
30.589917 3.547827 57.059997
2.595026 3.107839 43.921
24.321801 3.091983 43.895999
-4.525749 3.628537 43.852
30.037744 3.541713 43.870002
17.244272 5.177472 46.144999
29.422842 4.528847 43.913001
-7.059268 4.349477 57.044997
29.259754 4.363447 57.067
-2.986442 4.249554 55.197997
26.15434 4.184036 55.054
-6.539046 4.565699 43.759002
4.786046 5.326912 45.908999
-0.98274 3.620018 32.590999
26.522883 3.563807 32.547
1.069648 3.465003 6.749999
22.219026 0.689954 6.728999
-4.784688 4.09346 57.135001
30.570724 4.163081 57.017997
3.673038 2.743068 32.533
20.904781 2.623495 32.524001
3.018641 7.33679 6.78
21.397446 7.284745 6.792001
7.076192 5.182488 45.811
19.305439 5.148122 45.853999
-0.310373 3.23307 43.803
25.141867 3.262004 43.797999
4.136852 5.378086 34.459998
19.282266 5.483897 34.575
-2.836929 4.4431 32.574
26.555186 4.360027 32.526
1.580211 1.039739 6.865001
22.405463 1.022743 6.838
2.807621 3.314464 57.018996
23.107853 3.23506 57.057998
-7.050667 3.97198 57.036002
27.968971 4.018429 57.094001
0.504428 4.996527 57.164001
19.190861 4.954078 57.026999
-3.038932 3.998718 55.115996
26.746246 4.03584 55.089004
-5.895002 3.662011 43.936
4.759008 2.937257 45.850001
-0.356366 4.910946 32.562999
24.415548 4.767869 32.490001
3.828634 0.909886 6.717
18.760458 0.739201 6.769
-6.52547 4.537552 57.052001
28.604766 4.498565 57.050002
5.195784 3.182621 55.231002
25.336906 3.217297 55.206
4.178689 2.917566 43.841998
22.097546 2.955932 43.735
3.0383 5.281914 43.940001
19.168683 5.359722 43.801002
2.181599 3.029864 32.580001
23.777411 3.141665 32.497001
1.628028 7.342614 6.964
22.873495 7.389519 4.157001
6.895723 5.268918 46.409999
9.881989 0.516201 2.867
1.171468 3.2539 32.607001
25.170014 3.27558 32.517001
19.383268 5.706088 32.528998
25.6838 4.512204 32.752002
3.161241 1.646185 13.275001
21.063538 1.503087 13.321
2.364296 6.53545 13.262
21.163316 6.547306 13.352
20.713721 2.947683 45.525001
29.296326 3.496362 43.934001
5.342726 7.121998 6.763
18.650036 1.3278 6.728
-2.137586 3.496694 57.001998
30.203642 3.413559 56.951003
-2.905162 3.577508 55.081
26.215256 3.554211 55.054999
1.848105 1.203647 8.292001
8.210082 0.889428 7.502999
9.256444 7.136154 9.603999
19.513764 7.018053 6.751
2.547925 7.161793 10.454
10.354176 7.66562 1.752
4.047789 5.994336 20.256999
7.448072 5.778196 20.075
5.584691 2.520172 32.549998
19.715 2.500668 32.513999
7.776063 5.745572 32.507998
25.087563 3.374592 32.621001
5.215039 5.516479 35.88
18.381738 5.552627 31.106002
15.395411 7.356231 6.738999
15.749787 2.305546 6.735999
13.003787 0.373911 1.569
21.15459 1.026578 10.617
1.91242 4.738872 6.717
18.14451 7.051527 6.808
0.9522 0.615399 4.095
22.405287 0.519579 4.124999
1.646578 7.663817 4.058
22.225295 7.510563 4.106999
-6.85826 4.72399 56.989997
24.380613 4.768366 57.122001
-3.106636 4.642617 55.182998
25.488761 4.556911 55.165999
6.149621 2.931433 45.768001
17.840272 2.862806 45.802001
2.490688 1.66971 13.405999
2.499237 6.687274 13.196
0.904746 3.663027 56.913001
12.171492 1.308234 1.936
5.631275 5.3009 46.770999
8.44187 0.4808 3.622001
-2.852495 4.331507 32.532001
26.107819 4.352421 32.561999
12.390875 1.500786 2.665
14.129791 6.815179 11.06
15.410096 4.952006 55.860999
22.15015 0.760819 5.488999
0.243726 0.429812 0.633
8.280947 0.958304 9.613
3.666488 6.209418 17.883
20.304336 6.098301 17.88
1.468856 4.507581 6.804
21.045111 7.080109 6.752
0.987021 3.060851 6.731999
20.45847 5.634871 6.709001
1.071109 2.095251 6.738
22.532042 5.004341 6.828
6.928959 3.185896 56.987998
22.219906 3.205773 56.975997
2.7209 5.076781 55.245002
19.269509 5.07875 55.205001
4.732851 3.063421 55.070998
20.051945 3.096874 55.054
-2.463411 4.172222 55.071998
26.474548 4.095616 55.121001
2.240298 7.152197 9.497001
18.523997 7.199868 6.102
4.253357 2.762758 43.736999
20.271152 2.786262 43.811999
-4.217769 4.644461 43.749999
25.565419 4.541843 43.763
5.182032 2.707604 34.746001
18.559336 2.810637 45.431998
2.908157 4.976277 32.479999
11.387656 7.608974 1.383
0.295222 0.610777 1.904
1.747052 6.376517 9.587001
6.453268 2.661549 34.450999
18.352534 2.520068 34.580001
7.06987 3.75694 32.544002
8.969875 0.752818 5.294
3.356695 5.556917 34.354999
18.256569 5.59634 29.04
14.153782 6.046111 12.05
22.977243 4.369044 55.048003
12.466248 3.358633 55.013
23.093572 1.250551 3.519
16.776365 4.708922 52.029998
19.323347 6.405783 13.282001
21.565976 6.359873 10.587001
23.1209 1.697421 3.035
4.498721 2.325982 20.146998
19.629564 2.390069 20.13
2.344284 7.583998 2.857
8.613042 7.103385 9.932
-6.186069 3.833878 56.939002
16.434445 3.763365 45.033
-6.318845 4.324958 56.889998
5.952478 5.282349 50.589999
1.022836 5.576172 6.749
21.112577 2.983934 6.674001
-5.822148 3.870626 56.985999
30.427004 3.885591 56.968001
2.284124 4.831417 55.013999
23.067653 4.828992 55.026999
4.833562 5.228397 54.999
11.663095 4.376402 55.045997
1.631831 7.11893 8.726001
12.904257 7.126143 4.653001
2.118165 2.010458 11.551999
20.444128 0.70125 6.825
5.697745 1.134854 6.749999
10.339947 0.286051 1.5
3.338673 6.745205 13.478999
8.586709 6.726385 12.02
4.782823 1.665025 13.808
22.801158 0.34622 3.207
5.373153 5.332529 45.846
19.049307 5.319492 45.745002
18.413803 2.89657 51.038001
30.276496 3.622174 56.985999
-6.21404 4.323465 43.808002
28.797815 4.314118 43.796
3.828167 2.349507 20.262
23.294052 0.115573 0.887
8.551598 6.223719 15.97
22.347656 7.760404 2.316
5.105373 2.722672 40.533999
6.982268 3.003438 45.927001
4.400704 2.313401 22.192
21.251146 2.40891 13.335
3.946787 5.772144 25.392001
21.962024 6.689678 9.554
1.816797 0.477297 2.186
4.230713 4.608024 38.021998
1.660559 3.246936 45.207
7.819361 1.915301 14.95
2.842028 1.804475 15.522
3.733373 5.998813 19.719001
4.486554 6.379439 14.342
5.995196 5.337648 39.266002
4.685044 5.104721 48.568999
6.933 6.414488 14.172999
0.059932 7.644479 0.877
11.465423 5.217827 56.735999
4.811737 6.640369 6.756999
7.327525 5.164932 45.616
9.543531 6.684807 10.785001
11.081894 1.840892 3.029
4.133981 2.722527 34.443
19.054219 2.719729 34.618999
-0.684357 4.94357 32.577998
20.708633 5.044281 32.516002
0.822823 5.27153 32.497001
19.985765 5.320134 32.533
16.979301 2.274062 24.461001
19.386014 2.463422 23.066001
10.41017 1.291383 6.783999
10.489761 6.880987 6.825
4.542496 5.400264 41.666999
21.286548 0.968791 9.485
14.417106 1.471934 13.186999
14.500324 6.33469 13.403001
4.229252 5.977775 20.469001
7.722754 5.928031 22.625999
14.511848 3.217691 14.117
17.276223 4.967364 54.990996
5.014207 5.64513 34.635001
19.464724 5.537206 31.617999
15.112884 4.201488 17.866
15.242146 1.991307 17.735
16.445213 4.028772 54.163001
16.452239 7.466975 5.301999
17.182185 5.234263 39.569999
18.923496 6.299662 14.102
16.83213 3.226582 54.263
19.616631 1.481759 12.044
15.91013 5.713612 22.937999
19.481285 5.718669 25.098998
3.797212 2.629485 20.082
18.05269 2.566268 20.167998
15.987783 5.768413 20.181998
20.006129 5.277914 20.146998
3.013718 1.592378 11.526999
8.104635 1.827378 15.096999
1.881993 6.528341 10.303
19.58609 5.717177 22.735
22.342381 1.009665 6.908
22.327935 6.866167 6.834001
-0.12633 7.814853 -0.096
7.323431 7.331401 8.342999
3.055617 2.080971 16.764001
4.331652 1.881102 16.783999
2.550785 1.473178 11.471999
6.282044 1.434025 13.369
1.207751 4.3296 6.676999
5.733499 0.701063 6.782001
3.499772 6.770865 12.088
20.416747 5.649442 17.742999
1.640371 3.79232 6.78
22.035749 1.069938 6.731
1.140865 4.540205 6.822
22.45813 1.776743 6.827001
1.075731 1.438274 6.835
21.745677 1.311675 6.797
1.226363 7.599916 5.431001
22.404769 7.354262 5.442
0.529653 7.749605 2.926
1.822248 7.7312 2.647
-3.785149 4.107181 57.017997
29.296502 3.999526 56.910003
1.484184 1.166898 8.455001
13.225978 0.27291 1.525
3.643782 5.10557 55.767997
5.778445 4.348379 58.881003
7.579563 7.160031 7.956
15.079182 7.724132 3.645
3.411579 1.558759 12.438001
22.862251 0.219559 2.664
9.3379 6.967272 10.595
21.315814 6.950463 8.074
26.583333 4.373603 55.235
30.358305 4.45962 56.954001
17.006919 0.778146 6.867999
21.500842 3.257942 6.73
5.285023 3.069535 45.812999
16.634106 3.06168 45.739001
3.537277 3.024538 44.567
10.533059 3.050715 56.101996
5.042291 2.709594 38.664001
21.709986 4.694579 55.226996
6.40599 6.21234 18.193
15.216932 7.582402 3.955001
5.720628 2.741865 20.11
19.879726 1.79948 17.55
6.861897 2.893337 38.523002
18.941517 5.111374 47.679
-0.620281 5.026518 33.197001
13.109245 7.780136 1.51
1.276978 5.265063 33.715999
18.448624 5.342022 47.22
0.271936 3.3925 32.615001
1.501159 5.303801 32.629001
15.35175 1.836001 15.203
21.171151 1.208041 10.627
4.628927 5.580732 32.705001
11.101502 5.181078 56.552001
-0.851778 3.492362 32.97
21.280578 0.549571 5.224
2.741202 2.085448 6.742999
5.762527 3.230458 54.285003
-2.098319 4.782004 32.650001
4.58141 5.679247 34.667998
17.73073 5.967225 17.858001
20.795416 6.231077 15.946
4.776387 2.685426 32.902999
19.160019 2.788107 41.989001
1.882346 7.534668 6.668
6.042826 2.793185 37.444999
2.074867 5.840729 11.889001
2.699655 2.603182 14.490001
2.048761 0.571832 2.877
9.316831 4.996838 56.126998
-0.269873 8.040527 -0.014
7.267718 3.418678 36.964999
4.636067 6.572986 12.54
6.665749 5.314123 42.532001
0.613793 1.388944 4.200999
6.795831 2.670648 34.353
-0.13775 0.14173 0.011
3.34686 2.412268 17.773999
5.817712 5.633689 26.627002
7.66646 5.900878 25.239001
4.892136 3.452504 52.326003
6.797644 2.307224 24.665
5.924331 5.268773 46.755
8.680622 0.561261 4.799001
6.258405 3.209421 55.015998
9.147711 1.463105 12.158999
2.109739 2.891119 32.516002
22.803034 2.931909 32.535998
-2.742073 3.742908 32.535998
26.720907 3.72871 32.566001
5.183907 5.293293 43.701999
15.887133 6.55255 13.192
15.647967 2.516648 34.005
18.985344 2.790594 38.436999
1.529835 6.826869 8.529
26.803711 4.636025 56.860999
4.198763 4.818131 36.076999
19.143521 5.555756 25.672
16.106983 5.30548 33.553
16.122662 2.971125 33.538001
12.606226 6.808919 2.79
18.988329 3.000204 49.872001
14.848037 7.196303 7.634
15.638432 5.773388 20.263999
13.266882 0.691633 4.631999
20.322358 4.910013 55.693999
15.771965 1.899901 16.716001
17.554003 2.880859 43.263999
14.944468 2.68041 16.425
17.977027 2.651206 39.207999
6.326172 5.514634 20.128001
7.167244 4.705978 20.150001
14.110297 1.029044 8.633
17.974104 5.390709 37.419002
11.994651 0.667817 1.045
13.90362 6.636701 10.542001
13.572053 2.00111 9.304
14.909771 6.133184 15.633
14.120485 5.180021 12.338
17.511348 5.774673 28.794002
12.954457 0.83585 6.19
15.172629 2.998629 16.943
21.680958 2.165184 9.616
23.338242 7.145295 1.591
15.006441 5.069568 55.647002
20.540507 1.580418 13.634
15.386861 2.338667 6.761001
15.877185 5.853849 6.817
18.078029 2.873398 41.239001
19.831215 1.828124 14.863
18.515623 2.685468 36.929
19.76234 1.898989 16.962001
17.541308 5.424825 41.156001
21.426878 5.425406 12.174001
18.967851 5.488374 34.673999
23.132725 4.981811 33.381999
17.163925 2.970275 55.197997
19.329896 2.939433 39.165
18.218826 5.890391 20.226001
19.885934 5.670977 20.209998
7.692555 2.825602 45.176002
16.499693 4.419347 38.561
10.237433 6.828672 8.085999
20.286956 6.350132 15.171
14.50336 1.149239 11.338
19.186819 1.725485 14.387
0.736568 5.594225 4.490001
16.497589 6.725556 12.381
14.24554 7.582257 2.728
21.239156 6.965531 10.529
3.404677 4.018781 6.745999
14.728661 7.156073 6.745
18.732436 6.62385 6.761001
22.051377 4.130644 6.726001
6.653873 7.424796 6.780999
21.564919 3.340891 6.792001
3.489295 4.562673 6.741
22.508631 1.887838 6.764001
5.320953 3.138908 57.131003
19.10671 2.970565 57.136001
4.777268 5.201245 57.176002
18.515509 5.131417 57.073997
0.962449 7.715489 4.096
23.004633 7.765026 0.999
2.356979 5.040032 55.425002
21.355837 4.853367 55.367003
3.185118 3.323066 55.225997
25.212732 3.33088 55.230002
4.956742 5.044944 53.585998
12.636653 5.019451 56.915999
4.33528 1.154255 6.818
10.639968 0.743014 5.289001
5.733385 3.147012 50.591998
22.631344 3.144007 56.697997
10.431829 7.720422 1.432
11.792482 8.064445 0.022
10.280441 4.941186 55.897002
11.259616 4.997128 56.931998
4.788616 1.581082 13.044
8.163737 1.560977 12.175
2.818679 1.637086 14.366
6.43934 1.683368 13.299001
8.563008 5.552668 6.779
13.082611 1.001747 6.341001
4.315859 6.661407 14.294
21.278889 6.81122 9.471
27.209003 3.651876 55.444999
30.256308 4.167558 56.856002
4.896354 7.184261 7.695001
8.991586 1.786795 6.769
2.731668 5.342188 45.556998
20.256467 5.190488 45.614001
2.735005 6.558125 14.585999
20.878043 6.635229 12.074
3.115311 6.273173 17.018001
9.155266 6.410799 13.228999
4.649291 5.538512 43.728999
22.694426 3.157085 45.173999
4.591121 2.925671 42.197001
27.033685 4.59082 55.325004
4.5178 4.156677 42.04
18.376764 5.203277 49.061
8.790464 3.858232 43.752002
25.583617 3.856719 43.760001
16.815279 4.987904 49.79
18.38835 5.035389 50.917998
17.565476 5.158921 43.699
25.7896 4.580581 44.534999
5.753811 6.053904 17.867999
8.442989 6.448895 15.932
4.392921 2.257604 18.926
17.909613 1.35232 13.224999
19.138256 7.149191 5.169999
21.305399 7.691384 2.89
5.778155 6.291164 17.873
19.006942 6.27052 16.924001
4.593173 6.014523 19.009999
14.544389 7.466187 2.941
1.336837 1.616255 8.178
1.491915 6.617756 7.21
0.698763 2.939164 4.511001
0.677518 0.465565 1.431
3.723891 3.860491 20.249999
4.29479 4.690972 20.117999
1.220218 6.677532 6.862
1.233846 1.254324 6.887
6.837792 6.108354 19.337001
18.305257 6.070859 18.476001
5.060842 3.030797 20.138999
18.428021 1.931966 18.697
5.541217 5.847279 21.583999
6.904677 5.897749 20.783
4.123276 5.406233 43.708999
4.936668 3.14438 49.721999
1.329355 7.961848 1.554
1.838509 1.511274 10.815
3.194601 5.461387 17.867
3.251651 2.106133 17.721
18.273534 1.389069 12.995999
21.738071 1.759042 10.240001
4.076578 5.071454 34.400001
5.830293 5.535672 42.830001
2.318355 2.818264 13.179
4.982723 4.415617 53.489997
3.781004 3.454349 32.459998
4.812203 5.200748 48.845
2.461079 3.025885 45.367999
4.651633 6.684579 13.280999
3.855382 5.242326 23.506
3.881187 4.109834 22.709998
4.129359 3.379505 34.463
4.226733 4.328543 34.519999
1.247132 3.168962 33.611999
14.618581 0.406826 3.051999
4.228018 2.455628 25.025001
21.212055 1.626764 13.240001
2.426611 1.586761 6.759
4.457174 2.843717 38.500999
2.009028 0.726143 2.507
4.792834 5.312838 43.986999
5.214977 2.567366 24.468001
21.235404 1.794153 13.322
3.368043 1.936754 15.189
5.404399 3.109766 50.820998
3.999215 3.073867 24.477
4.411357 5.024757 56.577003
4.30591 5.962706 25.445998
15.060745 4.95698 16.87
-0.059268 8.107412 0.025
1.994809 1.690747 11.383
0.135771 8.062704 0.246
4.847252 2.754301 34.747001
3.448743 5.150278 17.964999
4.124737 4.036482 27.715999
2.466645 7.833839 2.923
5.388833 2.998173 46.468001
3.784341 4.670287 20.118999
5.201463 5.544626 42.465999
4.613008 4.462812 42.235999
4.74596 4.474895 55.002997
16.994929 5.334767 40.506
18.508721 5.14549 41.499999
1.89217 2.335143 11.749
2.563781 5.330601 14.252
2.864154 6.793893 11.405
7.089415 4.148013 42.009002
4.231179 3.168402 31.000999
17.748929 5.282101 42.958999
5.056106 6.133723 18.8
6.974195 4.890426 48.617999
8.330805 2.005857 16.775001
11.02473 7.642095 4.028001
5.249912 2.566869 28.607001
7.467379 2.716993 34.909999
0.308156 1.519088 2.159
5.831226 2.65643 29.114001
4.774398 2.545686 34.833999
9.399459 5.400989 12.219001
0.525497 6.966961 2.822
7.382005 5.555508 36.331
8.237297 3.782247 18.314
9.281834 2.048222 13.346999
0.4235 6.6749 2.642
2.154862 7.041599 10.741
-2.392722 3.737933 32.691001
0.138984 3.380417 33.003001
9.830265 5.227133 8.435
11.354058 0.341495 1.089
4.915195 5.562679 34.898002
7.383995 5.695248 25.551002
1.93752 1.593725 6.768001
11.871534 3.800383 55.863997
15.77267 3.912557 20.178
17.946134 5.880297 20.074
6.533087 3.359255 32.516002
10.37653 7.76314 3.609
6.019539 5.574908 37.399001
10.324558 0.677621 5.533999
16.768872 2.71034 38.554
24.112191 3.094967 43.671
7.949391 4.666888 20.281001
8.403256 6.603206 14.342
4.088278 2.457618 22.951999
8.352341 2.53667 32.597999
7.783784 2.852256 24.074
8.395473 6.547409 15.213
10.571155 3.762992 6.377
11.617972 0.225922 0.016
8.927862 2.710174 14.471999
9.187682 4.76107 13.122001
17.662436 2.15252 21.449
19.32773 2.296529 20.431998
9.336843 3.94829 13.205001
9.507829 1.723537 11.338
7.038562 3.03059 44.848998
9.768064 7.729873 2.741
-0.01539 0.391571 0.126
6.092156 2.331247 21.651
-0.038966 5.116079 32.657001
19.030871 2.55234 32.628001
-0.894962 4.876684 55.833999
15.948402 6.929052 8.193999
-2.55663 4.005827 32.534999
25.354638 3.971794 32.516002
2.608488 5.52564 32.617999
18.920335 5.586888 32.518001
3.835194 5.78771 32.547
18.118819 5.738069 32.490001
9.125709 2.371913 13.308999
9.194004 6.186618 13.297999
15.702271 2.40406 21.482001
19.876338 5.978604 18.749
3.769241 3.119072 45.667998
14.887822 1.646931 14.432
5.113219 5.727582 30.895999
17.098915 5.766569 24.558002
14.831942 5.575219 33.324
16.355507 5.581478 34.556998
4.491114 2.773349 43.892001
7.286911 2.803424 37.431998
13.392818 5.609688 34.519
18.632895 5.031907 49.270999
13.108944 1.378747 6.901
13.306098 7.372004 6.526
5.185835 2.48392 23.610999
18.994941 2.482967 34.367
16.14285 2.42574 22.567
21.932934 1.211171 9.509
16.102122 2.510181 30.280002
21.395861 2.756271 33.951999
4.632554 4.853885 55.163001
22.974321 7.108546 3.841001
5.321834 5.654727 37.021998
19.613242 5.660883 25.819999
4.729576 4.796596 50.745002
20.867504 1.477924 13.780999
4.363955 2.677322 36.332
7.415064 2.969321 34.492
13.293744 2.578124 7.78
13.403814 0.983196 7.901
0.51361 0.733459 2.759
19.312341 2.6881 38.552001
10.108336 1.197843 8.294999
18.800078 3.030838 50.848998
15.270708 5.960323 17.863999
15.355087 3.051938 17.872001
16.393541 3.344642 39.707999
17.389806 5.091538 55.524001
4.246455 5.22278 56.375999
19.798508 5.420638 19.962001
14.726256 3.060892 14.433999
16.757814 4.387718 44.072001
15.775944 2.179382 20.014998
15.839265 5.644737 24.392001
15.213885 4.423679 17.349
16.334086 2.604716 33.513
15.468027 4.11257 17.964
15.960392 2.372431 26.617999
16.229986 4.618864 43.567
16.279378 7.106038 6.794999
7.179183 5.544419 34.628001
18.368162 5.580774 33.812999
13.297838 0.411655 3.446
17.652901 5.409259 35.428
7.954365 5.016238 20.774001
18.700133 5.82763 27.131
11.939414 3.659648 56.668998
23.108143 1.292274 2.535
16.693033 2.292115 25.825999
19.235506 2.200005 27.601001
12.03655 1.15641 1.79
19.159025 2.718237 36.584998
14.060325 2.42744 11.904
14.706597 5.115768 14.446
12.536999 5.873457 3.702001
13.123577 4.369582 6.455001
13.284562 6.841191 7.036
19.317315 3.03745 37.142001
16.293244 5.135106 37.162002
22.756751 6.55257 5.346999
12.505048 6.083564 3.117
14.747854 6.540818 14.087001
4.100279 6.245171 16.787999
8.066311 6.007 19.455001
17.806041 4.875959 20.070998
17.869413 2.946252 20.206
17.119456 6.227512 17.287
18.934729 5.125447 44.013999
16.843893 3.561859 54.690001
19.178218 2.102983 18.997001
15.587051 3.146473 56.054
22.695017 7.615689 2.579
20.630161 5.422773 34.198001
23.932251 4.690889 33.235
20.727359 5.868648 15.186
21.605937 1.313665 11.087001
19.326621 4.672608 41.526
19.467066 6.683274 12.499999
18.417492 5.118836 45.289001
20.934213 0.764156 6.888
18.442945 2.980016 51.127997
19.652799 5.003408 31.888
3.385422 1.684923 11.766999
16.203942 2.299079 20.575999
14.332789 7.329432 6.698001
15.399504 5.189763 6.762
2.86433 7.297056 7.334001
16.749741 6.274707 14.287
2.308468 5.068677 6.856999
5.417395 6.967189 6.834001
20.724198 5.155874 45.490001
28.76686 4.594095 44.093001
3.293437 5.040675 55.490996
22.050734 5.067101 43.894999
13.623083 3.621697 6.690999
17.474951 7.144922 6.846999
11.875099 0.124423 0.054
20.885878 1.295964 11.366
1.394074 7.108339 6.793
22.022297 6.99631 6.763
9.934479 0.767037 6.325
21.333069 0.800407 7.043
10.813648 0.670657 4.150001
14.342085 0.620415 5.407001
1.166266 7.796448 2.663
22.443683 7.633245 2.728
-5.938539 4.040006 56.707999
-2.444218 3.556968 56.936004
0.460777 7.82047 2.324
12.802613 7.840409 1.444
-5.48257 3.670115 57.024001
30.696711 3.686075 56.994002
4.727058 3.147365 56.855002
21.947214 3.195679 56.861999
-4.628211 4.776097 56.235
24.282596 4.755785 56.212996
15.689866 3.005241 56.112998
21.959795 3.097662 56.143996
2.108921 3.324413 55.768996
21.655153 3.297675 55.765998
8.627199 3.189668 55.378997
9.834359 3.060664 55.549003
19.986583 4.88684 55.907996
29.041366 4.240765 56.337996
-2.819726 3.688106 55.187003
24.951802 3.656062 55.172004
1.2143 0.86325 5.513
2.492325 0.803122 5.366
21.05049 3.040725 55.481002
27.352722 3.929366 55.476996
5.112338 3.211763 53.638
18.068432 3.181025 56.481002
10.339129 0.719344 4.509999
14.360459 0.438455 4.067
4.809861 4.05468 53.277999
18.732198 3.171573 54.842002
1.558034 1.445383 8.53
5.450216 0.928726 7.012
2.963041 0.978118 7.831
6.750594 0.966118 5.765
1.340817 1.895735 7.554999
12.775751 5.953918 4.113999
7.199309 2.049922 6.818999
16.993343 0.806293 5.995999
1.948236 7.254193 8.286
9.882289 6.91759 6.8
1.599176 5.316383 8.325
20.326451 2.743544 6.756
7.125459 1.771437 6.844001
13.980973 0.290113 2.506
7.73176 1.161799 7.897
22.547898 3.173149 5.624
5.266359 5.194281 50.047
27.69031 3.589115 55.826003
-5.511536 4.089833 43.707
-5.136671 4.895152 44.083999
19.420421 0.953433 8.134
20.397606 0.869634 8.035001
6.084839 0.835829 6.339
9.973218 0.542856 1.979
4.606282 7.425998 8.136001
10.601706 7.871748 1.474
9.337599 0.565883 5.214999
10.38764 0.6907 4.332999
2.054088 1.927509 11.389001
11.010501 0.262526 1.433
4.607682 3.107134 48.581
17.780174 3.059338 48.645999
8.216052 1.308649 9.509
22.980632 0.18992 0.838
2.9476 6.764751 13.318
13.137216 7.290548 6.025001
27.46929 4.26315 55.657996
29.37515 4.124198 56.501998
-2.660616 3.574026 44.447001
0.515486 3.319148 45.153998
0.852255 3.412191 43.936999
29.904792 3.529629 56.787002
-1.944537 3.312246 44.607001
3.082127 2.961134 45.518001
-4.84262 4.932895 44.123
3.046083 5.337711 45.473998
3.659109 1.764887 14.728999
6.384041 1.726086 13.582
2.902892 6.569711 15.335
13.777456 6.610543 9.571
6.443672 2.969176 47.299998
14.232896 4.731161 54.995002
4.615174 5.105715 50.472999
7.007316 5.253352 55.068999
0.062616 1.4527 2.028
0.179826 0.850027 1.421
2.779122 2.29456 15.226001
15.402074 1.443932 12.071
3.356519 5.053753 43.929
6.636607 5.230677 47.568999
-3.534987 3.516592 43.917998
19.722669 5.002413 45.042998
16.899016 3.015977 49.783
17.96743 2.958834 50.462001
2.672389 5.105425 45.584998
6.348349 5.10899 53.915999
5.811743 5.214469 43.719001
17.16293 2.900405 45.95
8.003695 4.5543 6.758
9.049466 6.342421 6.734
15.143777 0.972398 9.529
19.405207 1.848167 6.745
2.979135 2.599203 16.457999
20.900449 1.337687 13.151999
7.507817 4.575337 43.908999
27.145278 4.575254 43.895999
9.665363 5.425157 43.933002
18.985054 4.733379 47.055999
3.386593 2.257957 18.459001
20.700259 0.529881 4.856
3.304847 4.369624 17.933999
18.751805 6.511759 13.207
5.159502 2.106921 17.738999
22.886594 0.456819 3.844001
10.497015 5.427292 44.738002
11.789435 4.905723 45.503001
4.49328 3.416253 43.712001
5.780787 5.494447 44.86
7.122298 1.058663 8.325
12.170974 8.142917 0.019
14.872028 6.427235 14.721
19.435935 6.460087 13.074
5.589665 2.869522 41.014998
16.587295 5.17285 44.075999
4.182316 2.190719 19.537002
22.436242 0.239602 1.497
6.071211 6.259037 18.176999
22.571309 6.289651 5.412
16.782977 4.191684 51.420997
18.437856 5.076615 52.937003
5.489016 3.653658 58.164001
5.704596 4.069894 58.948997
4.679427 5.691828 20.111999
23.382131 7.773628 1.738
0.68273 4.267192 33.019
6.2611 5.361816 45.680999
4.659882 5.300755 47.115001
6.955645 4.569223 55.36
4.640803 3.47006 48.901999
4.870135 4.361312 49.609
5.069506 5.602412 38.638999
19.052934 4.592644 45.706
6.225284 2.846494 40.867
6.86769 2.809393 41.785998
4.708331 2.322998 20.743999
16.664357 0.769047 5.558999
0.798479 5.03427 33.547
0.895149 3.970654 33.129001
0.367673 5.208127 33.463
18.456521 2.951869 55.186004
14.804324 7.071134 10.092
22.310731 7.621161 1.672
4.162947 2.30281 20.311999
15.273278 2.214493 18.061
4.544486 5.540004 36.531001
24.401444 3.286524 56.073997
3.953575 5.758071 24.360999
9.575833 7.481027 4.144
5.670189 5.579882 20.162002
7.814739 2.572279 20.007998
4.214505 5.432888 35.248
7.240275 5.417757 45.870002
2.286052 2.022044 12.898
2.432642 4.955094 13.455001
4.470636 5.261519 39.524001
6.503655 5.218594 55.068
1.510756 4.996174 8.063001
5.043463 3.282628 56.362998
3.243817 7.445398 6.695001
3.296535 2.804336 6.862
4.276592 5.376097 36.923999
4.550279 5.456061 38.514998
3.779014 3.314609 25.954001
3.858833 4.012315 25.269
4.312636 2.99952 41.063998
4.613651 3.526354 45.803
3.987453 2.738591 31.324
4.624771 4.798088 42.695998
4.197768 4.748261 34.263
5.235517 3.02831 49.901
4.797922 3.21624 50.722999
4.873119 4.570923 51.850997
4.199053 2.875346 33.448001
4.215499 5.502758 33.574
2.583906 1.836104 6.742999
5.9705 4.094061 59.063003
4.004542 4.429545 30.367
4.051592 5.770652 25.790999
4.010688 5.351929 29.098998
4.01759 2.891907 31.067
16.539717 2.322251 20.363002
18.686495 2.906664 20.111999
4.415275 2.355124 23.149001
18.599888 2.223032 20.176002
2.348263 7.863478 4.212001
4.13767 4.944793 29.579001
-0.376264 3.513545 32.644
21.637711 0.600393 4.960999
3.118119 5.97962 16.047999
3.571217 2.95417 19.199
4.397077 3.040248 37.513
4.398952 5.625937 39.561999
3.728337 2.70035 21.172999
4.401937 5.835548 30.216998
5.360572 5.430546 44.457999
6.136749 4.972235 56.357001
7.570432 6.028037 20.257998
7.9254 5.435956 20.131
16.841727 2.918955 46.014998
26.031803 3.431032 56.193999
3.434462 3.16577 45.620002
5.638591 6.796318 13.200999
1.80118 5.760765 9.256
2.173236 6.859638 11.411
1.504258 3.067463 8.131
2.595669 2.171381 14.308
-5.386367 4.04612 56.405997
6.84914 2.48819 22.090999
2.374068 6.730987 12.561
4.864632 2.502471 30.739001
4.862176 3.802352 52.883002
4.901556 2.641714 36.780002
3.189979 6.118365 16.964999
7.145533 3.672001 43.449
16.889129 5.26639 43.931998
18.118643 5.234906 45.124999
4.762873 5.662686 30.693
9.690059 6.668744 6.881999
3.616744 2.715915 19.718001
3.867434 3.634817 20.489001
5.612082 5.916154 28.841998
6.94324 5.170404 48.096
10.704812 5.787731 4.411
11.102849 6.257276 3.0
4.681003 1.876128 14.138
6.730935 3.020993 44.088
4.073593 4.861844 55.373
5.453729 2.647828 35.517001
7.921886 3.716854 20.249999
10.285125 7.233321 6.938001
1.720076 6.935975 9.464999
5.267291 2.315038 26.2
0.867883 6.472897 5.280999
3.085816 5.1834 16.726001
5.037555 5.81252 28.593001
22.290771 3.274648 56.469001
6.694072 5.830863 29.610999
7.699229 5.257477 45.255
5.578898 2.604115 33.575999
18.074049 2.593918 35.405002
6.251503 5.669443 33.838
8.788184 5.661277 14.872001
-1.670321 4.901702 44.496001
7.643111 5.733489 26.820998
6.907424 2.655082 38.121001
6.927788 2.612862 25.907001
8.071223 3.407237 32.662002
18.794108 2.611618 38.028998
7.431511 5.596733 27.985
10.67625 1.818714 4.19
7.458601 2.591327 34.353
7.470249 5.372552 34.763999
9.831612 6.303331 9.645
10.674084 1.175811 4.98
7.271345 2.691831 35.381
8.718666 6.668599 13.242
11.871067 5.240004 34.419002
19.236563 5.218987 40.339
5.173254 2.581937 32.857001
21.210304 4.9393 6.756999
7.093861 2.987872 42.596999
7.538948 4.798524 35.892001
7.150155 3.015024 43.554999
9.567926 1.527006 6.689
4.088341 5.406731 31.579001
18.646648 5.506924 34.739001
9.776894 2.460478 32.624999
11.669354 2.852837 34.513
0.457969 8.114024 0.663
6.785063 2.405241 23.381
12.27724 6.771673 2.254
12.465843 7.747367 1.805
4.297132 5.83704 27.982001
19.238025 3.849236 38.122001
13.494639 5.398585 32.436999
26.388936 3.481854 32.436
1.734346 0.576309 2.976
16.467919 5.132619 56.646003
13.92158 2.4993 32.679
22.265143 4.910303 32.684001
7.670553 3.73441 27.705001
19.089507 3.725559 46.017001
4.011973 3.479014 57.168998
6.38059 2.956098 45.308002
4.012615 2.542557 27.971999
17.429715 5.440391 33.898002
7.503019 4.729151 34.839
21.970159 7.751802 1.964
23.44942 3.174289 32.547
25.862921 3.349575 32.836001
7.438942 4.646202 20.096
7.923524 2.850267 20.124
11.908925 2.500004 32.635001
23.635858 3.507078 55.026
14.455378 2.687375 32.97
15.066653 2.427088 33.429
4.369282 4.033 40.059001
20.015259 6.409908 14.776
5.51108 5.693963 26.463
7.435491 5.876214 27.526
4.485321 2.857293 40.338
21.180457 2.843199 13.241
-1.292357 3.470682 55.478003
19.898101 1.617519 14.929999
17.259776 2.339952 26.770999
19.233693 2.563428 25.618999
6.963427 4.62502 49.13
17.01008 1.49092 12.741
18.828867 2.107957 19.111999
20.425992 4.335487 17.835
8.188143 4.747349 18.654
18.005174 2.664782 40.954001
15.355905 2.618645 33.841998
19.245455 2.898705 41.098998
12.937554 7.992233 1.225
12.99847 7.362408 5.724
9.491268 1.542074 10.766999
18.207177 3.109165 52.869002
7.121542 4.441069 44.614001
19.320766 1.807439 16.734
11.733141 4.87857 34.486999
18.973406 1.952154 17.933
3.116305 6.343043 16.589
19.545476 3.355669 34.945998
5.729406 2.867532 45.750999
16.370078 5.623201 25.587001
14.282226 4.269223 13.032001
14.302704 1.781054 13.275001
13.198484 7.66705 2.843
13.494753 2.952636 8.21
8.631292 1.023199 8.099
21.931358 5.026871 56.055999
5.091797 2.750819 37.789001
16.141741 4.801819 29.603
16.661963 5.018041 44.111999
17.766308 5.03027 52.392997
13.604242 5.243279 45.919002
16.384877 0.773027 5.143001
11.704994 4.864994 45.836001
17.382375 6.042069 17.793
16.100309 2.873605 34.482001
16.343392 4.239874 34.535998
21.83673 0.835166 6.860999
23.270061 0.884641 1.527
14.269116 2.857749 12.339
16.856826 4.47017 51.777999
15.899186 4.945041 32.541999
18.892011 5.070148 55.047004
12.855217 5.645296 4.27
13.134231 7.080938 6.477
15.504071 1.735994 15.029
15.639251 5.340094 19.533
15.886719 2.597109 28.891002
16.478687 5.398026 39.97
14.941483 2.4708 16.505
16.714454 5.268877 42.353
14.956117 5.461636 16.299001
17.846417 3.78519 58.951003
16.020552 5.125012 29.427001
18.969664 5.12495 51.772002
14.978823 6.565483 14.419999
17.694448 4.891525 55.983001
12.558119 2.44883 4.129001
12.947731 3.799036 6.395
15.18492 4.843397 16.985
16.083748 2.692142 28.934001
15.139746 6.087979 16.773999
18.041632 4.243646 58.831
16.663134 5.591075 30.565001
25.602344 4.681086 55.771003
15.065305 1.35089 13.268001
16.115408 4.424819 30.221
12.118535 2.49702 34.313998
19.518966 2.475505 30.415999
13.789685 5.506199 9.151
17.039637 5.529807 32.852
16.60912 3.760878 49.734
16.647569 5.479482 43.797
-4.36067 3.933677 55.937003
-3.585954 4.845117 55.512
4.606396 4.980049 20.150001
6.845513 3.215038 20.114001
17.082292 2.635993 29.541999
18.724238 2.612613 41.699
13.541046 7.67615 1.872
20.772005 3.114575 55.341002
12.673163 1.203253 4.292001
15.177665 6.297092 15.900001
20.226154 4.534008 18.044
22.307218 5.90206 7.52
16.40548 4.183083 36.517001
23.035879 5.542263 4.266
11.950596 7.880495 0.101
13.501779 6.390839 7.304999
2.742435 5.607594 14.702001
19.612247 5.591013 27.945998
3.563082 1.892046 16.196
16.234079 2.452395 25.081
18.378692 2.393904 32.281001
19.206251 4.562507 44.351001
18.718269 2.193393 20.923999
19.902547 0.457378 4.494
18.73483 2.374856 32.214999
19.192965 2.647869 39.017001
19.770009 4.400735 20.421
20.298304 2.729968 16.881
19.747831 4.806379 22.138
22.468027 7.870505 2.002
19.713891 4.876747 23.377002
21.438993 6.76701 10.817
19.709912 4.597266 23.178
21.098887 5.45803 13.228
19.065868 5.500955 28.003001
22.675647 7.72778 1.261
0.515424 0.370036 0.802999
16.190605 5.779502 22.926002
19.739344 2.737927 34.356002
25.613578 3.506871 32.595
17.36827 4.560725 58.013
19.990915 6.172648 16.742999
19.3337 2.71575 35.482001
19.392274 0.939857 8.48
15.443974 1.932525 16.764001
19.554896 2.544878 28.688998
15.903103 2.275409 22.853
19.01431 2.370876 24.830001
19.564845 3.243578 29.641002
21.42892 0.170084 2.394
19.458226 3.608494 27.521998
19.648643 4.220764 27.949
18.367986 5.07761 49.006999
21.172851 3.290566 6.745999
19.209878 3.83566 36.341998
21.344137 7.467203 4.068999
19.460568 4.754562 30.909999
20.951893 6.913714 10.151
14.912518 2.890518 44.511001
19.05908 5.515028 32.687999
14.582775 6.235678 13.506
29.895372 4.34042 56.819999
18.057665 2.915618 55.121001
19.505452 5.452765 32.839999
18.29595 4.435701 58.454001
21.751419 6.622793 6.699
15.89304 4.022657 20.063998
17.069711 2.73401 20.120002
16.50016 2.979726 56.787002
16.927691 4.539045 54.776999
15.552758 2.210513 19.350001
1.392779 0.63708 1.7
15.854478 4.750002 20.152999
19.73326 4.764656 20.115001
17.581508 3.830893 58.513999
19.043628 2.957486 47.561999
14.309264 6.658878 12.488999
18.272135 5.707933 20.170001
8.989596 1.647055 13.530999
19.341306 2.268382 22.642001
12.934684 5.336674 45.042998
16.439067 3.106388 40.959998
1.011074 5.240896 43.958999
18.656358 2.753348 38.651
18.752562 3.129353 20.097999
19.573799 3.872409 20.174998
22.711981 3.408419 33.559001
22.816382 7.79566 2.041
22.729537 3.659752 32.947001
22.753238 4.833469 33.591998
20.543316 1.286865 11.53
20.935736 2.343517 14.813001
22.83171 4.454977 32.902999
22.889465 3.112378 33.561999
12.304092 0.31399 1.914
17.240054 1.445715 13.193
4.495622 4.562321 54.997001
18.450614 5.481762 39.518001
2.912022 7.701706 3.599
19.851994 5.741344 20.324
14.798178 6.14875 14.508
19.65795 5.855922 20.042998
8.325955 7.554732 4.235
9.315722 7.372916 5.526999
6.707006 6.739174 6.776999
9.917162 3.96798 6.870999
27.778554 3.406159 43.993999
28.954759 3.557133 43.935
16.090826 0.735283 6.821
20.011632 7.136755 6.773999
4.76135 4.083325 49.631
20.38573 2.980307 45.589999
4.92362 4.682018 52.161002
25.469858 3.22938 43.714
14.458135 7.788883 2.82
21.539643 5.982874 11.712001
-0.559188 4.899857 56.832
23.008841 3.152608 45.026
3.259206 7.053827 9.515
15.083804 7.067155 9.549001
14.970802 3.05741 55.258002
18.801073 3.100709 51.475997
8.003343 3.547972 6.763
20.809634 5.266473 6.73
1.012421 6.317093 6.747001
22.230674 3.471179 6.803
15.078187 7.654262 4.214999
21.883552 7.06817 8.165999
10.690293 0.350946 1.286
22.617063 1.159499 5.301999
27.023912 4.395284 56.929
28.080741 4.506027 56.109
2 0 1
2 2 3
2 4 5
2 6 7
2 8 9
2 10 11
2 12 13
2 14 15
2 16 17
2 18 19
2 20 21
2 22 23
2 24 25
2 26 27
2 28 29
2 30 31
2 32 33
2 34 35
2 36 37
2 38 39
2 40 41
2 42 43
2 44 45
2 46 47
2 48 49
2 50 51
2 52 53
2 54 55
2 56 57
2 58 59
2 60 61
2 62 63
2 64 65
2 66 67
2 68 69
2 70 71
2 72 73
2 74 75
2 76 77
2 78 79
2 80 81
2 82 83
2 84 85
2 86 87
2 88 89
2 90 91
2 92 93
2 94 95
2 96 97
2 98 99
2 100 101
2 102 103
2 104 105
2 106 107
2 108 109
2 110 111
2 112 113
2 114 115
2 116 117
2 118 119
2 120 121
2 122 123
2 124 125
2 126 127
2 128 129
2 130 131
2 132 133
2 134 135
2 136 137
2 138 139
2 140 141
2 142 143
2 144 145
2 146 147
2 148 149
2 150 151
2 152 153
2 154 155
2 156 157
2 158 159
2 160 161
2 162 163
2 164 165
2 166 167
2 168 169
2 170 171
2 172 173
2 174 175
2 176 177
2 178 179
2 180 181
2 182 183
2 184 185
2 186 187
2 188 189
2 190 191
2 192 193
2 194 195
2 196 197
2 198 199
2 200 201
2 202 203
2 204 205
2 206 207
2 208 209
2 210 211
2 212 213
2 214 215
2 216 217
2 218 219
2 220 221
2 222 223
2 224 225
2 226 227
2 228 229
2 230 231
2 232 233
2 234 235
2 236 237
2 238 239
2 240 241
2 242 243
2 244 245
2 246 247
2 248 249
2 250 251
2 252 253
2 254 255
2 256 257
2 258 259
2 260 261
2 262 263
2 264 265
2 266 267
2 268 269
2 270 271
2 272 273
2 274 275
2 276 277
2 278 279
2 280 281
2 282 283
2 284 285
2 286 287
2 288 289
2 290 291
2 292 293
2 294 295
2 296 297
2 298 299
2 300 301
2 302 303
2 304 305
2 306 307
2 308 309
2 310 311
2 312 313
2 314 315
2 316 317
2 318 319
2 320 321
2 322 323
2 324 325
2 326 327
2 328 329
2 330 331
2 332 333
2 334 335
2 336 337
2 338 339
2 340 341
2 342 343
2 344 345
2 346 347
2 348 349
2 350 351
2 352 353
2 354 355
2 356 357
2 358 359
2 360 361
2 362 363
2 364 365
2 366 367
2 368 369
2 370 371
2 372 373
2 374 375
2 376 377
2 378 379
2 380 381
2 382 383
2 384 385
2 386 387
2 388 389
2 390 391
2 392 393
2 394 395
2 396 397
2 398 399
2 400 401
2 402 403
2 404 405
2 406 407
2 408 409
2 410 411
2 412 413
2 414 415
2 416 417
2 418 419
2 420 421
2 422 423
2 424 425
2 426 427
2 428 429
2 430 431
2 432 433
2 434 435
2 436 437
2 438 439
2 440 441
2 442 443
2 444 445
2 446 447
2 448 449
2 450 451
2 452 453
2 454 455
2 456 457
2 458 459
2 460 461
2 462 463
2 464 465
2 466 467
2 468 469
2 470 471
2 472 473
2 474 475
2 476 477
2 478 479
2 480 481
2 482 483
2 484 485
2 486 487
2 488 489
2 490 491
2 492 493
2 494 495
2 496 497
2 498 499
2 500 501
2 502 503
2 504 505
2 506 507
2 508 509
2 510 511
2 512 513
2 514 515
2 516 517
2 518 519
2 520 521
2 522 523
2 524 525
2 526 527
2 528 529
2 530 531
2 532 533
2 534 535
2 536 537
2 538 539
2 540 541
2 542 543
2 544 545
2 546 547
2 548 549
2 550 551
2 552 553
2 554 555
2 556 557
2 558 559
2 560 561
2 562 563
2 564 565
2 566 567
2 568 569
2 570 571
2 572 573
2 574 575
2 576 577
2 578 579
2 580 581
2 582 583
2 584 585
2 586 587
2 588 589
2 590 591
2 592 593
2 594 595
2 596 597
2 598 599
2 600 601
2 602 603
2 604 605
2 606 607
2 608 609
2 610 611
2 612 613
2 614 615
2 616 617
2 618 619
2 620 621
2 622 623
2 624 625
2 626 627
2 628 629
2 630 631
2 632 633
2 634 635
2 636 637
2 638 639
2 640 641
2 642 643
2 644 645
2 646 647
2 648 649
2 650 651
2 652 653
2 654 655
2 656 657
2 658 659
2 660 661
2 662 663
2 664 665
2 666 667
2 668 669
2 670 671
2 672 673
2 674 675
2 676 677
2 678 679
2 680 681
2 682 683
2 684 685
2 686 687
2 688 689
2 690 691
2 692 693
2 694 695
2 696 697
2 698 699
2 700 701
2 702 703
2 704 705
2 706 707
2 708 709
2 710 711
2 712 713
2 714 715
2 716 717
2 718 719
2 720 721
2 722 723
2 724 725
2 726 727
2 728 729
2 730 731
2 732 733
2 734 735
2 736 737
2 738 739
2 740 741
2 742 743
2 744 745
2 746 747
2 748 749
2 750 751
2 752 753
2 754 755
2 756 757
2 758 759
2 760 761
2 762 763
2 764 765
2 766 767
2 768 769
2 770 771
2 772 773
2 774 775
2 776 777
2 778 779
2 780 781
2 782 783
2 784 785
2 786 787
2 788 789
2 790 791
2 792 793
2 794 795
2 796 797
2 798 799
2 800 801
2 802 803
2 804 805
2 806 807
2 808 809
2 810 811
2 812 813
2 814 815
2 816 817
2 818 819
2 820 821
2 822 823
2 824 825
2 826 827
2 828 829
2 830 831
2 832 833
2 834 835
2 836 837
2 838 839
2 840 841
2 842 843
2 844 845
2 846 847
2 848 849
2 850 851
2 852 853
2 854 855
2 856 857
2 858 859
2 860 861
2 862 863
2 864 865
2 866 867
2 868 869
2 870 871
2 872 873
2 874 875
2 876 877
2 878 879
2 880 881
2 882 883
2 884 885
2 886 887
2 888 889
2 890 891
2 892 893
2 894 895
2 896 897
2 898 899
2 900 901
2 902 903
2 904 905
2 906 907
2 908 909
2 910 911
2 912 913
2 914 915
2 916 917
2 918 919
2 920 921
2 922 923
2 924 925
2 926 927
2 928 929
2 930 931
2 932 933
2 934 935
2 936 937
2 938 939
2 940 941
2 942 943
2 944 945
2 946 947
2 948 949
2 950 951
2 952 953
2 954 955
2 956 957
2 958 959
2 960 961
2 962 963
2 964 965
2 966 967
2 968 969
2 970 971
2 972 973
2 974 975
2 976 977
2 978 979
2 980 981
2 982 983
2 984 985
2 986 987
2 988 989
2 990 991
2 992 993
2 994 995
2 996 997
2 998 999
2 1000 1001
2 1002 1003
2 1004 1005
2 1006 1007
2 1008 1009
2 1010 1011
2 1012 1013
2 1014 1015
2 1016 1017
2 1018 1019
2 1020 1021
2 1022 1023
2 1024 1025
2 1026 1027
2 1028 1029
2 1030 1031
2 1032 1033
2 1034 1035
2 1036 1037
2 1038 1039
2 1040 1041
2 1042 1043
2 1044 1045
2 1046 1047
2 1048 1049
2 1050 1051
2 1052 1053
2 1054 1055
2 1056 1057
2 1058 1059
2 1060 1061
2 1062 1063
2 1064 1065
2 1066 1067
2 1068 1069
2 1070 1071
2 1072 1073
2 1074 1075
2 1076 1077
2 1078 1079
2 1080 1081
2 1082 1083
2 1084 1085
2 1086 1087
2 1088 1089
2 1090 1091
2 1092 1093
2 1094 1095
2 1096 1097
2 1098 1099
2 1100 1101
2 1102 1103
2 1104 1105
2 1106 1107
2 1108 1109
2 1110 1111
2 1112 1113
2 1114 1115
2 1116 1117
2 1118 1119
2 1120 1121
2 1122 1123
2 1124 1125
2 1126 1127
2 1128 1129
2 1130 1131
2 1132 1133
2 1134 1135
2 1136 1137
2 1138 1139
2 1140 1141
2 1142 1143
2 1144 1145
2 1146 1147
2 1148 1149
2 1150 1151
2 1152 1153
2 1154 1155
2 1156 1157
2 1158 1159
2 1160 1161
2 1162 1163
2 1164 1165
2 1166 1167
2 1168 1169
2 1170 1171
2 1172 1173
2 1174 1175
2 1176 1177
2 1178 1179
2 1180 1181
2 1182 1183
2 1184 1185
2 1186 1187
2 1188 1189
2 1190 1191
2 1192 1193
2 1194 1195
2 1196 1197
2 1198 1199
2 1200 1201
2 1202 1203
2 1204 1205
2 1206 1207
2 1208 1209
2 1210 1211
2 1212 1213
2 1214 1215
2 1216 1217
2 1218 1219
2 1220 1221
2 1222 1223
2 1224 1225
2 1226 1227
2 1228 1229
2 1230 1231
2 1232 1233
2 1234 1235
2 1236 1237
2 1238 1239
2 1240 1241
2 1242 1243
2 1244 1245
2 1246 1247
2 1248 1249
2 1250 1251
2 1252 1253
2 1254 1255
2 1256 1257
2 1258 1259
2 1260 1261
2 1262 1263
2 1264 1265
2 1266 1267
2 1268 1269
2 1270 1271
2 1272 1273
2 1274 1275
2 1276 1277
2 1278 1279
2 1280 1281
2 1282 1283
2 1284 1285
2 1286 1287
2 1288 1289
2 1290 1291
2 1292 1293
2 1294 1295
2 1296 1297
