ply
format ascii 1.0
comment Saved by Easy3D (liangliang.nan@gmail.com)
element vertex 194
property float x
property float y
property float z
element edge 97
property list uchar int vertex_indices
end_header
-7.11047 4.78297 56.1899
30.2548 3.26836 55.9541
29.7497 3.25349 56.3742
4.77157 5.07108 55.8608
30.778 4.47602 56.1011
11.2223 3.15281 56.1309
22.1046 2.92318 43.8096
-6.557 3.79473 43.9234
18.1527 3.21233 44.192
30.4146 4.40584 44.418
30.2747 3.98337 44.4306
4.69962 4.75602 45.2814
-3.18222 4.28479 32.7232
26.8963 3.74386 32.8298
16.2243 3.29122 57.1185
-6.19246 3.67384 56.9655
-1.904 4.79647 56.1023
30.7557 3.39951 55.9818
18.528 4.10524 56.558
18.0056 3.10485 21.223
4.29643 5.32282 16.6758
6.02732 4.01655 56.4662
8.51113 5.78345 43.9043
24.0495 2.67646 43.6997
16.2146 5.05618 16.8043
18.3628 4.06229 50.0117
0.376064 5.69818 32.0859
10.0934 4.33479 32.0731
-2.25194 3.95481 33.2844
19.595 5.30509 33.6406
-0.948771 4.05982 43.762
-6.5341 4.29855 44.049
19.169 5.51508 43.8637
-6.5394 4.43625 43.7453
6.96225 3.36728 20.0735
5.67628 4.1107 56.7065
-2.33123 4.71325 55.733
6.81316 3.38593 56.348
17.0685 4.12721 54.4725
17.6884 4.21657 45.5065
16.882 5.37232 43.9177
25.2377 4.64204 43.8353
26.137 4.68642 33.2259
3.241 2.60939 33.5901
26.6814 4.01966 55.5425
15.771 4.24178 55.6415
4.2161 2.108 17.943
0.704997 1.14769 1.59104
14.3263 1.37898 8.51387
16.5889 3.04304 22.6981
6.6113 5.50052 21.9881
10.005 6.9858 8.14286
24.0092 4.98752 55.9756
16.2113 4.64136 56.0744
5.40654 3.11673 24.3913
0.41608 0.581492 0.0056572
16.2462 5.78453 23.017
14.5713 4.94932 12.515
5.65814 0.922797 6.77161
1.07649 4.53753 6.77339
2.72724 7.69447 2.88232
3.78339 6.39264 16.6347
15.0163 3.81066 43.9237
-6.42925 4.42503 43.7683
14.0361 6.22541 7.27325
22.1323 7.02619 7.39275
15.0361 5.47999 34.3627
3.35341 5.57581 34.4603
13.094 6.40494 7.78005
17.9385 5.82767 17.7419
6.36657 2.39027 17.9055
4.28757 3.19084 45.7815
6.95639 5.38177 22.2662
6.69731 4.31961 44.1598
0.430466 6.19469 3.08601
3.70985 5.56787 20.062
12.7474 1.35598 2.57914
14.3885 1.92437 13.9189
12.1586 5.06658 33.4377
23.4902 5.11287 33.2093
4.48287 2.98312 37.982
3.43873 2.63764 16.773
23.5594 0.0682273 0.0540247
20.095 2.81918 18.85
21.2897 7.06943 8.52993
18.8057 5.28035 28.3451
13.6012 7.43091 1.71531
14.8207 6.43806 14.5747
17.9763 4.62458 47.8417
15.6914 2.296 11.7383
0.121499 0.0718679 0.011764
9.51232 1.27666 10.6352
0.711534 0.528629 4.04059
4.06883 2.43628 20.3174
15.4892 5.79439 6.79266
15.8324 0.702699 6.82834
13.8286 7.21354 6.85952
12.186 8.05552 0.00347638
26.1879 5.07227 44.1672
17.1637 2.94656 44.4948
18.5831 5.19191 32.5496
26.7943 4.10265 32.6754
-5.01579 4.7871 56.2125
7.11236 3.17141 56.0425
12.7257 4.69963 56.1731
-7.13971 3.8669 56.0439
2.72769 5.33802 45.6277
20.2604 5.18903 45.7423
3.91932 2.68748 18.905
5.76342 2.97777 29.426
9.73335 1.54417 7.17546
6.02142 1.32004 7.17854
16.8769 2.57082 24.5752
12.455 0.226839 0.853798
2.72651 5.31043 12.0354
6.15285 5.07884 29.8166
5.88932 4.42087 47.0428
5.29721 4.23502 54.3072
22.0703 7.69088 1.9456
21.5894 6.7506 10.6344
20.341 5.94528 6.78817
19.6912 0.612885 6.73983
5.68084 5.38253 31.6981
8.16228 6.07499 14.3159
1.68128 2.75348 33.2215
10.0805 3.61632 33.3115
25.6911 4.93581 57.0755
17.5969 4.66764 57.0585
16.5788 2.80856 23.6248
17.1873 3.36612 55.2402
7.48338 2.98692 28.6423
6.8686 3.3423 54.0667
9.39868 1.23157 11.092
11.3678 0.454969 -0.0749645
9.12078 6.73516 7.01992
1.919 7.18558 7.37108
-3.18873 3.4814 44.7041
4.57403 3.3139 44.8999
7.53165 2.23502 16.6111
7.44963 2.85871 21.2379
-6.16714 4.31607 44.0345
12.4407 3.48189 44.3865
12.9021 7.62766 1.05562
16.1997 5.71114 18.0274
5.18014 3.44755 43.0192
4.49798 2.79387 28.1748
29.5064 3.78672 56.4665
22.9883 4.16227 56.2985
0.50259 6.78602 2.60459
2.8238 6.6945 15.3724
22.3036 0.687826 6.7447
20.0923 2.55213 18.4443
21.6132 6.85717 7.99281
17.6649 5.55132 24.3052
-6.89596 4.40814 57.102
-3.22278 3.92633 55.311
8.19542 6.73566 11.7875
4.57121 6.44074 14.4735
14.5216 2.23014 6.24425
21.2976 0.751411 6.11775
-5.02485 4.24721 44.5214
0.390614 4.45832 43.8416
7.14562 2.67519 33.4868
8.07043 2.58892 18.1242
27.358 4.5795 44.1343
18.8434 5.29953 45.9687
19.6138 1.81332 14.3678
18.5961 2.41432 32.3002
26.7804 4.7242 55.2272
28.6715 3.33917 56.2398
19.1718 5.63567 29.3904
18.3115 5.21704 36.0316
8.81286 7.02785 10.3804
0.207474 7.71121 0.735631
6.77269 2.72194 21.903
10.452 1.84376 3.90801
7.92023 2.2683 17.8145
10.8679 0.24943 0.663537
5.08427 5.84357 17.1806
7.7603 5.10026 29.1834
12.8602 3.07428 56.0597
2.71828 3.65575 55.8713
3.48478 3.18054 6.75965
3.79126 7.36289 6.80834
13.4812 0.786697 6.49323
13.4372 7.36302 6.61377
19.5633 5.33985 18.9268
18.8439 4.77095 44.3962
2.22821 7.40681 5.53274
-0.201317 8.31871 -0.201738
0.541262 8.19506 -0.199797
1.39639 7.09702 8.0408
20.0833 3.5307 19.0803
22.0219 1.1729 8.25367
2 0 1
2 2 3
2 4 5
2 6 7
2 8 9
2 10 11
2 12 13
2 14 15
2 16 17
2 18 19
2 20 21
2 22 23
2 24 25
2 26 27
2 28 29
2 30 31
2 32 33
2 34 35
2 36 37
2 38 39
2 40 41
2 42 43
2 44 45
2 46 47
2 48 49
2 50 51
2 52 53
2 54 55
2 56 57
2 58 59
2 60 61
2 62 63
2 64 65
2 66 67
2 68 69
2 70 71
2 72 73
2 74 75
2 76 77
2 78 79
2 80 81
2 82 83
2 84 85
2 86 87
2 88 89
2 90 91
2 92 93
2 94 95
2 96 97
2 98 99
2 100 101
2 102 103
2 104 105
2 106 107
2 108 109
2 110 111
2 112 113
2 114 115
2 116 117
2 118 119
2 120 121
2 122 123
2 124 125
2 126 127
2 128 129
2 130 131
2 132 133
2 134 135
2 136 137
2 138 139
2 140 141
2 142 143
2 144 145
2 146 147
2 148 149
2 150 151
2 152 153
2 154 155
2 156 157
2 158 159
2 160 161
2 162 163
2 164 165
2 166 167
2 168 169
2 170 171
2 172 173
2 174 175
2 176 177
2 178 179
2 180 181
2 182 183
2 184 185
2 186 187
2 188 189
2 190 191
2 192 193
