ply
format ascii 1.0
comment Saved by Easy3D (liangliang.nan@gmail.com)
element vertex 27
property float x
property float y
property float z
end_header
25.7196 4.07841 54.968
7.32237 4.31242 43.975
26.8025 4.06299 55.194
3.96627 3.2141 26.032
2.34826 7.86348 4.212
3.99922 3.07387 24.477
3.80816 3.39806 24.71
26.3697 4.09711 55.072
-5.0352 3.67772 57.102
18.7526 3.12935 20.098
3.77901 3.31461 25.954
19.116 4.60572 20.11
4.94305 7.51904 7.742
3.60715 3.02354 23.647
16.6846 3.17278 20.113
18.8031 3.24045 20.165
7.75382 3.2021 26.033
7.84406 3.15889 23.459
-3.95901 3.67637 57.035
26.7462 4.03584 55.089
26.4745 4.09562 55.121
18.991 5.1526 56.941
18.1631 1.97767 34.318
16.2839 3.49995 36.79
11.8456 4.42971 45.686
19.2446 3.332 20.192
17.6929 3.31216 20.158
